<svg width="96" height="96" viewBox="0 0 96 96" fill="none" xmlns="http://www.w3.org/2000/svg">
<path d="M48.0156 0C21.4823 0 0 21.4823 0 47.9844C0 74.4865 21.4823 96 48.0156 96C74.5489 96 96 74.5177 96 47.9844C96 21.4511 74.5177 0 48.0156 0ZM90.2319 47.9844C90.2319 49.0757 90.1384 50.1358 90.076 51.1647C85.3368 44.087 72.3664 42.0292 66.7853 41.4992C66.7853 41.4368 66.7853 41.3745 66.7853 41.3121C66.7853 37.2588 64.5404 33.7668 61.2355 31.8961C61.859 28.0922 63.6674 15.9948 62.8256 8.48068C78.8204 14.4982 90.2319 29.9006 90.2319 47.9844ZM50.8841 41.3121C50.8841 38.506 53.1601 36.2299 55.9662 36.2299C58.7723 36.2299 61.0484 38.506 61.0484 41.3121C61.0484 44.1182 58.7723 46.3943 55.9662 46.3943C53.1601 46.3943 50.8841 44.1182 50.8841 41.3121ZM27.9363 10.8503C33.2679 13.937 43.3699 20.9523 49.6681 32.5508C47.2361 34.2968 45.5836 37.0094 45.2407 40.1585C38.1007 40.6262 18.8321 43.4011 7.2647 58.9594C6.32933 55.4674 5.76811 51.7882 5.76811 48.0156C5.76811 31.9896 14.7476 18.0214 27.9363 10.8503ZM30.15 86.241C35.3569 80.5041 48.3586 65.164 51.5388 51.227C52.8795 51.8194 54.3761 52.1936 55.9662 52.1936C57.4316 52.1936 58.8347 51.8818 60.113 51.3517C60.113 51.3517 72.4599 69.5602 72.834 82.0942C65.85 87.2075 57.2757 90.2319 47.9844 90.2319C41.5927 90.2319 35.5752 88.7665 30.15 86.2098V86.241Z" fill="#3F5BC0"/>
</svg>
