<?xml version="1.0" encoding="UTF-8"?><svg id="_레이어_2" xmlns="http://www.w3.org/2000/svg" viewBox="0 0 30.79 30.79"><defs><style>.cls-1{fill:#444;}</style></defs><g id="_레이어_1-2"><path id="ball" class="cls-1" d="M15.4,0C6.89,0,0,6.89,0,15.39s6.89,15.4,15.4,15.4,15.39-6.89,15.39-15.4S23.9,0,15.4,0ZM28.94,15.39c0,.35-.03.69-.05,1.02-1.52-2.27-5.68-2.93-7.47-3.1,0-.02,0-.04,0-.06,0-1.3-.72-2.42-1.78-3.02.2-1.22.78-5.1.51-7.51,5.13,1.93,8.79,6.87,8.79,12.67ZM16.32,13.25c0-.9.73-1.63,1.63-1.63s1.63.73,1.63,1.63-.73,1.63-1.63,1.63-1.63-.73-1.63-1.63ZM8.96,3.48c1.71.99,4.95,3.24,6.97,6.96-.78.56-1.31,1.43-1.42,2.44-2.29.15-8.47,1.04-12.18,6.03-.3-1.12-.48-2.3-.48-3.51,0-5.14,2.88-9.62,7.11-11.92ZM9.67,27.66c1.67-1.84,5.84-6.76,6.86-11.23.43.19.91.31,1.42.31.47,0,.92-.1,1.33-.27h0s3.96,5.84,4.08,9.86c-2.24,1.64-4.99,2.61-7.97,2.61-2.05,0-3.98-.47-5.72-1.29Z"/></g></svg>