<svg width="95" height="88" viewBox="0 0 95 88" fill="none" xmlns="http://www.w3.org/2000/svg">
<path d="M60.2271 76.3162C60.2271 82.4664 55.2368 87.4298 49.1135 87.4298C42.9903 87.4298 38 82.4395 38 76.3162H60.2271Z" fill="#3F5BC0"/>
<path d="M89.5376 67.8149L76.428 53.1406C76.0503 52.6011 76.0503 37.0366 76.0503 36.3892C76.0503 29.8882 75.6457 10.79 56.1161 7.28323C56.1161 7.06743 56.1701 6.8786 56.1701 6.6628C56.1701 2.96724 53.1759 0 49.5073 0C45.8388 0 42.8446 2.99422 42.8446 6.6628C42.8446 6.8786 42.8986 7.06743 42.8986 7.25625C23.2341 10.709 22.1821 29.5375 22.1821 36.3892C22.1821 37.0366 22.1821 52.6011 21.7775 53.1136L8.45202 67.788C7.31908 69.3525 8.45202 71.5105 10.3402 71.5105H87.5954C89.5106 71.5105 90.6166 69.3525 89.5106 67.8149H89.5376Z" fill="#3F5BC0"/>
<path d="M7.86107 53.9684C7.02486 53.9684 6.18865 53.5907 5.67613 52.8624C3.65304 50.057 0.227264 44.2035 0.0114672 36.2728C-0.231304 27.5869 3.43724 21.1669 5.64916 18.1187C6.51234 16.9048 8.21174 16.6351 9.4256 17.5253C10.6395 18.3885 10.9092 20.0879 10.019 21.3018C8.21174 23.8104 5.21756 29.0436 5.40638 36.1649C5.56823 42.6659 8.37359 47.4404 10.019 49.7063C10.8822 50.9202 10.6125 52.5927 9.4256 53.4828C8.94005 53.8335 8.40056 53.9953 7.8341 53.9953L7.86107 53.9684Z" fill="#3F5BC0"/>
<path d="M87.1653 53.7919C86.6258 53.7919 86.0593 53.63 85.5738 53.2794C84.3599 52.4162 84.0902 50.7168 84.9803 49.5029C86.6258 47.237 89.4311 42.4355 89.593 35.9615C89.7818 28.8401 86.7876 23.607 84.9803 21.0983C84.1171 19.8844 84.3869 18.212 85.5738 17.3218C86.7876 16.4586 88.4601 16.7284 89.3502 17.9153C91.5621 20.9634 95.2307 27.3565 94.9879 36.0694C94.7721 44.027 91.3733 49.8536 89.3502 52.632C88.8107 53.3603 88.0015 53.7379 87.1653 53.7379V53.7919Z" fill="#3F5BC0"/>
</svg>
