<?xml version="1.0" encoding="UTF-8"?><svg id="_레이어_2" xmlns="http://www.w3.org/2000/svg" viewBox="0 0 35.59 31.67"><defs><style>.cls-1{fill:#444;}</style></defs><g id="_레이어_1-2"><g id="bell"><path class="cls-1" d="M21.91,27.55c0,2.28-1.85,4.12-4.12,4.12s-4.12-1.85-4.12-4.12h8.24Z"/><path class="cls-1" d="M32.63,25.14l-4.86-5.44c-.14-.2-.14-5.97-.14-6.21,0-2.41-.15-9.49-7.39-10.79,0-.08.02-.15.02-.23,0-1.37-1.11-2.47-2.47-2.47s-2.47,1.11-2.47,2.47c0,.08.02.15.02.22-7.29,1.28-7.68,8.26-7.68,10.8,0,.24,0,6.01-.15,6.2l-4.94,5.44c-.42.58,0,1.38.7,1.38h28.64c.71,0,1.12-.8.71-1.37Z"/><path class="cls-1" d="M2.91,19.2c-.31,0-.62-.14-.81-.41C1.35,17.75.08,15.58,0,12.64c-.09-3.22,1.27-5.6,2.09-6.73.32-.45.95-.55,1.4-.22.45.32.55.95.22,1.4-.67.93-1.78,2.87-1.71,5.51.06,2.41,1.1,4.18,1.71,5.02.32.45.22,1.07-.22,1.4-.18.13-.38.19-.59.19Z"/><path class="cls-1" d="M32.68,19.2c-.2,0-.41-.06-.59-.19-.45-.32-.55-.95-.22-1.4.61-.84,1.65-2.62,1.71-5.02.07-2.64-1.04-4.58-1.71-5.51-.32-.45-.22-1.07.22-1.4.45-.32,1.07-.22,1.4.22.82,1.13,2.18,3.5,2.09,6.73-.08,2.95-1.34,5.11-2.09,6.14-.2.27-.5.41-.81.41Z"/></g></g></svg>