<svg xmlns="http://www.w3.org/2000/svg" viewBox="0 0 400 300"><defs><style>.cls-1{fill:none;}.cls-2{fill:#f4a27b;}.cls-3{fill:#ef8465;}.cls-4{fill:#162726;}.cls-5{fill:#ef804e;}.cls-6{fill:#44b4d8;}.cls-7{fill:#fff;}.cls-8{fill:#1b8ebc;}.cls-9{fill:#fab611;}.cls-10{fill:#f1f5f6;}</style></defs><g id="Layer_2" data-name="Layer 2"><g id="Layer_3" data-name="Layer 3"><g id="evt_swim"><rect class="cls-1" width="400" height="300"/><path class="cls-2" d="M295.24,249.52,227.9,223.09l15.36-23.28,76.16,14.59L329,196l-89.7-28.92a23.94,23.94,0,0,0-22.85,6.23l-41.72,41.49a40.37,40.37,0,0,0-5,6.06l-14.35,21.31,7.92,52.3L205,300h73.76C287.93,281.64,292.83,262,295.24,249.52Z"/><path class="cls-3" d="M295.24,249.52c-2.41,12.44-7.31,32.12-16.49,50.48h26.82l69.71-19.06Z"/><polygon class="cls-2" points="143.08 234.59 181.8 243.29 152.07 272.05 134.54 253.32 143.08 234.59"/><polygon class="cls-2" points="165.88 255.71 112.32 274.76 42.72 257.82 38.85 274.6 97.31 300 151.94 300 194.31 292.78 165.88 255.71"/><path class="cls-2" d="M144,222.78l-.39-.68c-6.18-10.4-16.24-11.34-26.65-5.16l-.11.06a14.09,14.09,0,0,0-6.61,14.92l3.36,16.53.59,2.94a1.69,1.69,0,0,0,2.33,1.21l2.92-1.27,5.54,10a4.79,4.79,0,0,0,6.5,1.87,5.9,5.9,0,0,0,.92-.68l.74-.68,6.83-6.28a20.31,20.31,0,0,0,6.36-17.82,7.54,7.54,0,0,0,1.66-.34,7.39,7.39,0,0,0,1.55-.7A7.59,7.59,0,0,0,144,222.78Z"/><path class="cls-4" d="M122.3,241.63a1.1,1.1,0,1,1-1.51-.39A1.1,1.1,0,0,1,122.3,241.63Z"/><path class="cls-4" d="M119.1,236.71l3.83-1h0a2.08,2.08,0,0,0-2.52-1.51l-3.83,1h0A2.07,2.07,0,0,0,119.1,236.71Z"/><path class="cls-5" d="M134.88,240a4.11,4.11,0,1,1-5.67-1.26A4.1,4.1,0,0,1,134.88,240Z"/><path class="cls-4" d="M109.92,227.55s2,4.47,11.3,5l-3.7-6.72Z"/><path class="cls-4" d="M116.53,227.5s3.06,3.82,12.19,1.94l-5.29-5.56Z"/><path class="cls-4" d="M125.51,226.08s3.06,3.82,12.19,1.94l-5.28-5.56Z"/><path class="cls-3" d="M110,227.74l42.17-1.42s.1-16.1-18.5-18.59S109,222.13,110,227.74Z"/><path class="cls-4" d="M123.81,252a.79.79,0,0,1-.67-.39.77.77,0,0,1,.29-1.05h0s4.82-2.85,4.41-6.74a.77.77,0,1,1,1.53-.17c.52,4.9-4.94,8.11-5.17,8.24A.79.79,0,0,1,123.81,252Z"/><path class="cls-2" d="M38.92,274.5s-11.27,1.84-17.08-4.3L9.59,267.52a2.21,2.21,0,0,1-1.73-2.41h0a2.21,2.21,0,0,1,2-1.95l2.73-.23-6.26-1.45A2.19,2.19,0,0,1,4.69,259h0a2.18,2.18,0,0,1,2.38-1.81l7.76,1.36-8.61-3.47a2.39,2.39,0,0,1-1.36-3h0a2.39,2.39,0,0,1,2.81-1.58l8.53,2.15L8.68,248a2.36,2.36,0,0,1-.62-3h0a2.8,2.8,0,0,1,3.28-1.45l21,9.64,10.57,14.47Z"/><path class="cls-4" d="M22.52,266l-.17,0-9.91-2.25a.79.79,0,0,1-.58-.93.78.78,0,0,1,.92-.58l9.91,2.25a.78.78,0,0,1-.17,1.53Z"/><path class="cls-2" d="M42.86,267.73s-13.12,3.36-16.68-7.46l-8-.66a6.83,6.83,0,0,1-6.22-6h0l17.21-3.71,17.73,8.72Z"/><path class="cls-4" d="M39.07,269.26a19.49,19.49,0,0,1-4.45-.51,11.91,11.91,0,0,1-9-7.75l-7.51-.62a7.72,7.72,0,0,1-6.92-6.7L11.1,253l14.82-3.2a.76.76,0,0,1,.92.59.78.78,0,0,1-.59.92l-13.42,2.89c.9,4.13,5.22,4.63,5.42,4.65l8.51.7.16.5c1.17,3.78,3.87,6.2,8,7.2a18.48,18.48,0,0,0,6.09.36.77.77,0,0,1,.22,1.53A16,16,0,0,1,39.07,269.26Z"/><path class="cls-4" d="M16,255.7a3,3,0,0,1-2.95-2.34A.78.78,0,0,1,14.6,253a1.48,1.48,0,0,0,1.74,1.12l1.15-.22-.31-1.44a.79.79,0,0,1,.6-.92.77.77,0,0,1,.91.6l.38,1.71a1.27,1.27,0,0,1-1,1.51l-1.44.28A3.05,3.05,0,0,1,16,255.7Zm1.52-1.52h0Z"/><path class="cls-4" d="M138.19,258a.73.73,0,0,1-.56-.25.76.76,0,0,1,0-1.09l4.29-4a12.46,12.46,0,0,0,3.88-9.7l-.27-5.11a.77.77,0,1,1,1.54-.08l.27,5.11a13.94,13.94,0,0,1-4.36,10.9l-4.29,4.06A.77.77,0,0,1,138.19,258Z"/><path class="cls-2" d="M361,216.48a2.52,2.52,0,0,1-3.24,1l-1.26-.62a3,3,0,0,1,.39,3.89l-.07.1a3.27,3.27,0,0,1-3.61,1.41l-14.09-4.11,2.05,1c2.54,1.6,3.77,6.09,2.37,8.75l-.08.14-16-5.38-12.29-10.06.33-9.84v-9.81l12,1.74,17.25,3,13.49,5.32a5.36,5.36,0,0,1,1.37.79h0a2.1,2.1,0,0,1,.58,2.56l-.54,1.11.8.81a2.43,2.43,0,0,1,.52,2.33,2.82,2.82,0,0,1-1.68,1.67l1.16,1A2.51,2.51,0,0,1,361,216.48Z"/><path class="cls-4" d="M356.49,217.6a.86.86,0,0,1-.27,0l-15.83-5.8a.77.77,0,0,1,.53-1.45l15.83,5.8a.77.77,0,0,1-.26,1.5Z"/><path class="cls-4" d="M359.74,213.34a.65.65,0,0,1-.27-.05l-17-6.4a.78.78,0,1,1,.55-1.45l17,6.41a.77.77,0,0,1-.27,1.49Z"/><path class="cls-4" d="M343.14,220.87a.84.84,0,0,1-.34-.08l-6.61-3.27a.78.78,0,0,1,.69-1.39l6.6,3.27a.78.78,0,0,1-.34,1.47Z"/><path class="cls-4" d="M359.7,208.17a.72.72,0,0,1-.28,0l-15-5.7a.77.77,0,0,1-.45-1,.78.78,0,0,1,1-.45l15,5.7a.77.77,0,0,1-.27,1.49Z"/><line class="cls-1" x1="359.03" y1="203.23" x2="344.8" y2="197.62"/><path class="cls-4" d="M341.87,228.18h-.1a.76.76,0,0,1-.66-.87,2.68,2.68,0,0,0-.45-2.07,3.06,3.06,0,0,0-1.56-.95l-.74,1.8a.77.77,0,1,1-1.43-.58l1.19-2.92.57,0a4.92,4.92,0,0,1,3.17,1.63,4.13,4.13,0,0,1,.78,3.25A.78.78,0,0,1,341.87,228.18Z"/><path class="cls-4" d="M224.07,262.34a.73.73,0,0,1-.25,0,.77.77,0,0,1-.48-1c4.15-12-3.17-25.56-3.25-25.7l-.21-.39.23-.39,13.3-21.51a.78.78,0,0,1,1.32.82l-13.07,21.13c1.25,2.43,7.16,14.94,3.14,26.54A.77.77,0,0,1,224.07,262.34Z"/><path class="cls-6" d="M395.15,284.19c-10.73-7.15-24.82-6.56-37.45-3.94s-25.12,7-38,6.59c-19-.61-36.94-11.67-55.93-10.24-14.89,1.13-28.65,9.89-43.58,9.59-14.6-.29-27.88-9.22-42.46-10.13-17-1.05-32.77,8.88-49.64,11.49-17.94,2.78-36-2.83-53.78-6.26s-37.61-3.21-52.22,7.57H0V300H400V284.19Z"/><path class="cls-7" d="M114.38,289.36c-2,0-4-.08-6-.23-8.35-.83-16.64-2.74-24.65-4.58-16-3.67-31-7.13-46.94-3.12a.77.77,0,1,1-.38-1.49c16.3-4.11,32.24-.44,47.66,3.1,8,1.83,16.21,3.73,24.44,4.55a83,83,0,0,0,24.06-1.81,119.35,119.35,0,0,0,16.81-4.93c9.12-3.17,17.74-6.17,27.73-5.41,3.63,0,6.78,0,10.54,1.25,2.44.82,4.85,1.71,7.17,2.58A117.45,117.45,0,0,0,209.44,284c1.8.18,3.55.47,5.25.75,4.08.67,7.94,1.3,12.08.47a171,171,0,0,0,16.91-4.41,134.45,134.45,0,0,1,19-4.71h0c12-1.19,23.07,2.05,33.81,5.19a162,162,0,0,0,18,4.53,51.76,51.76,0,0,0,9.05.13c1.53-.06,3.12-.13,4.76-.14a143.33,143.33,0,0,0,19.8-3.87c12.07-2.95,24.55-6,37-2.9l5.41,1a.77.77,0,1,1-.28,1.52l-5.49-1c-12-3-24.34,0-36.24,2.9a143.61,143.61,0,0,1-20,3.92h-.08c-1.62,0-3.2.07-4.73.14a53.13,53.13,0,0,1-9.33-.15h0a164.68,164.68,0,0,1-18.2-4.57c-11.09-3.24-21.55-6.3-33.2-5.14a133.22,133.22,0,0,0-18.74,4.65,168.9,168.9,0,0,1-17.05,4.45c-4.41.88-8.41.23-12.63-.47-1.69-.27-3.44-.56-5.21-.74h-.1a119.43,119.43,0,0,1-14.8-4.75c-2.32-.87-4.72-1.75-7.13-2.56-3.53-1.18-6.42-1.18-10.08-1.18h-.06c-9.68-.74-18.16,2.21-27.13,5.33a120.62,120.62,0,0,1-17,5A88,88,0,0,1,114.38,289.36Z"/><path class="cls-7" d="M85.44,108l-3-1c-4.84-1.69-8.83-3.08-8.77-6.52s3-4.65,5.93-4.65a12.34,12.34,0,0,1,7.19,1.81,5.58,5.58,0,0,0,2.77.79c2.3,0,4.41-1,5.2-3.45.91-2.9-1-5.92-3.81-7.43-2.23-1.21-5.86-2.42-11.78-2.42-8.27,0-15.1,3.75-17,11.24-2,7.67.84,16.19,10.08,19.64l2.91,1.08c4.89,1.82,9.6,3.33,9.54,7.13-.06,3.08-2.36,5.14-6.58,5.14a18.57,18.57,0,0,1-8-1.81C69,127,67.67,126,65.68,126a5.05,5.05,0,0,0-4.11,2.18c-1.81,2.78-.72,6,1.57,7.91,3.27,2.6,9.85,4,15.23,4,11,0,18.36-5,18.85-15.22C97.64,115.82,92.5,110.5,85.44,108Z"/><path class="cls-8" d="M96,112.51a20.59,20.59,0,0,0-9.81-6.76l-3-1h0c-4.45-1.56-7.15-2.62-7.12-4.21,0-.57,0-2.29,3.52-2.29,3.29,0,4.89.78,5.8,1.38a8.06,8.06,0,0,0,4.16,1.22c3.68,0,6.47-1.92,7.49-5.12a7.83,7.83,0,0,0-.7-6.12,10.62,10.62,0,0,0-4.25-4.15c-3.32-1.8-7.67-2.71-12.93-2.71A22.83,22.83,0,0,0,67,85.9a16.18,16.18,0,0,0-7.19,9.86,19.5,19.5,0,0,0,1,13,18.32,18.32,0,0,0,10.61,9.48l2.89,1.08.82.31c4.35,1.59,7.2,2.77,7.17,4.53s-1.45,2.77-4.18,2.77a16,16,0,0,1-7-1.58l-.64-.34a9.77,9.77,0,0,0-4.85-1.46,7.46,7.46,0,0,0-6.09,3.23l0,0v0a8.34,8.34,0,0,0,2.06,11.09h0c3.91,3.12,11.21,4.51,16.72,4.51,6.16,0,11.15-1.44,14.83-4.28,3.93-3,6.15-7.61,6.42-13.23A18.48,18.48,0,0,0,96,112.51Zm1.18,12.31C96.73,135,89.36,140,78.37,140c-5.38,0-12-1.39-15.23-4-2.29-1.87-3.38-5.13-1.57-7.91A5.05,5.05,0,0,1,65.68,126c2,0,3.32,1,4.47,1.58a18.57,18.57,0,0,0,8,1.81c4.22,0,6.52-2.06,6.58-5.14.06-3.8-4.65-5.31-9.54-7.13L72.26,116C63,112.55,60.18,104,62.18,96.36c1.93-7.49,8.76-11.24,17-11.24,5.92,0,9.55,1.21,11.78,2.42,2.78,1.51,4.72,4.53,3.81,7.43-.79,2.48-2.9,3.45-5.2,3.45a5.58,5.58,0,0,1-2.77-.79,12.34,12.34,0,0,0-7.19-1.81c-2.9,0-5.86,1.15-5.93,4.65s3.93,4.83,8.77,6.52l3,1C92.5,110.5,97.64,115.82,97.22,124.82Z"/><path class="cls-7" d="M134.13,85.12c-3.32,0-6.22,1.88-6.22,6v31.65a7,7,0,0,1-14,0V91.11c0-4.11-2.84-6-6.22-6s-6.22,1.88-6.22,6v31.17c0,13.47,10.75,17.76,19.45,17.76s19.45-4.29,19.45-17.76V91.11C140.35,87,137.51,85.12,134.13,85.12Z"/><path class="cls-8" d="M134.13,82.72a8.94,8.94,0,0,0-5.93,2,8,8,0,0,0-2.7,6.36v31.65a4.61,4.61,0,0,1-9.21,0V91.11c0-5-3.46-8.39-8.62-8.39a8.94,8.94,0,0,0-5.93,2A8,8,0,0,0,99,91.11v31.17c0,6.83,2.58,12.32,7.45,15.87a26.33,26.33,0,0,0,28.81,0c4.88-3.55,7.46-9,7.46-15.87V91.11C142.76,86.09,139.29,82.72,134.13,82.72Zm6.22,39.56c0,13.47-10.75,17.76-19.45,17.76s-19.45-4.29-19.45-17.76V91.11c0-4.11,2.89-6,6.22-6s6.22,1.88,6.22,6v31.65a7,7,0,0,0,14,0V91.11c0-4.11,2.9-6,6.22-6s6.22,1.88,6.22,6Z"/><path class="cls-7" d="M187.6,85.18l-.73,0c-2.83,0-6.48,1.31-7.31,5l-7.31,32.44-7.31-32.44c-.83-3.67-4.48-5-7.31-5l-.72,0a7,7,0,0,0-6.35,6l-5.07,47.84h11.42l2.77-31.59,6.11,26.46c.48,2.05,4.17,3,6.46,3s6-.91,6.47-3l6.16-26.58,2.72,31.71H199l-5.07-47.84A7,7,0,0,0,187.6,85.18Z"/><path class="cls-8" d="M201.4,138.82,196.33,91a8.76,8.76,0,0,0-3.12-5.9,10,10,0,0,0-5.4-2.29h0c-.31,0-.62,0-.93,0a11.35,11.35,0,0,0-5.6,1.44,8.24,8.24,0,0,0-4.05,5.42l-5,22-5-22a8.22,8.22,0,0,0-4.06-5.42,11.35,11.35,0,0,0-5.6-1.44c-.31,0-.62,0-.92,0h0a10,10,0,0,0-5.4,2.29,8.76,8.76,0,0,0-3.12,5.9l-5.07,47.84-.28,2.66h16.29l.19-2.19,1.45-16.5,2.69,11.69c.9,3.82,6.16,4.82,8.81,4.82s7.91-1,8.8-4.81l2.73-11.77,1.42,16.56.19,2.2h16.3Zm-13.8.25-2.72-31.71-6.16,26.58c-.49,2.05-4.17,3-6.47,3s-6-.91-6.46-3l-6.11-26.46-2.77,31.59H145.49l5.07-47.84a7,7,0,0,1,6.35-6l.72,0c2.83,0,6.48,1.31,7.31,5l7.31,32.44,7.31-32.44c.83-3.67,4.48-5,7.31-5l.73,0a7,7,0,0,1,6.34,6L199,139.07Z"/><path class="cls-7" d="M245.35,85.18l-.72,0c-2.84,0-6.48,1.31-7.31,5L230,122.58,222.7,90.14c-.84-3.67-4.48-5-7.32-5l-.72,0a7,7,0,0,0-6.34,6l-5.08,47.84h11.42l2.78-31.59,6.1,26.46c.49,2.05,4.17,3,6.47,3s6-.91,6.46-3l6.16-26.58,2.72,31.71h11.42L251.7,91.23A7,7,0,0,0,245.35,85.18Z"/><path class="cls-8" d="M259.16,138.82,254.09,91a8.73,8.73,0,0,0-3.13-5.9,9.92,9.92,0,0,0-5.39-2.29h0c-.3,0-.61,0-.92,0a11.35,11.35,0,0,0-5.6,1.44A8.22,8.22,0,0,0,235,89.61l-5,22-5-22a8.24,8.24,0,0,0-4-5.42,11.36,11.36,0,0,0-5.61-1.44c-.31,0-.62,0-.92,0h0a10,10,0,0,0-5.4,2.29,8.76,8.76,0,0,0-3.12,5.9l-5.08,47.84-.28,2.66h16.29l.2-2.19,1.45-16.5,2.69,11.69c.9,3.82,6.15,4.82,8.81,4.82s7.91-1,8.8-4.81l2.73-11.77L243,139.28l.19,2.2h16.29Zm-13.81.25-2.72-31.71-6.16,26.58c-.48,2.05-4.17,3-6.46,3s-6-.91-6.47-3l-6.1-26.46-2.78,31.59H203.24l5.08-47.84a7,7,0,0,1,6.34-6l.72,0c2.84,0,6.48,1.31,7.32,5L230,122.58l7.31-32.44c.83-3.67,4.47-5,7.31-5l.72,0a7,7,0,0,1,6.35,6l5.07,47.84Z"/><path class="cls-7" d="M292.23,128.5H276.35c-1.39,0-1.76-.3-1.76-1.75v-9.24h16.5c3.56,0,4.89-2.72,4.89-5.14s-1.39-5.32-4.89-5.32h-16.5V98.42c0-1.45.37-1.76,1.76-1.76h15.28c3.57,0,4.89-2.72,4.89-5.19s-1.38-5.38-4.89-5.38h-20c-7.25,0-9.42,2.6-9.42,9.55v33.89c0,6.95,2.17,9.54,9.42,9.54h20.6c3.51,0,4.9-2.9,4.9-5.37S295.8,128.5,292.23,128.5Z"/><path class="cls-8" d="M297.91,128.69a6.9,6.9,0,0,0-5.68-2.59H277v-6.19h14.09c5,0,7.29-3.91,7.29-7.54,0-3.83-2.5-7.72-7.29-7.72H277V99.07h14.63a6.86,6.86,0,0,0,5.67-2.59,8.09,8.09,0,0,0,1.63-5c0-3.87-2.51-7.78-7.3-7.78h-20c-4.41,0-7.24.9-9.17,2.91s-2.65,4.71-2.65,9v33.89c0,4.32.82,7.11,2.65,9s4.76,2.91,9.17,2.91h20.6c4.8,0,7.3-3.92,7.3-7.78A8.08,8.08,0,0,0,297.91,128.69Zm-5.68,10.38h-20.6c-7.25,0-9.42-2.59-9.42-9.54V95.64c0-7,2.17-9.55,9.42-9.55h20c3.51,0,4.89,2.9,4.89,5.38s-1.32,5.19-4.89,5.19H276.35c-1.39,0-1.76.31-1.76,1.76v8.63h16.5c3.5,0,4.89,2.9,4.89,5.32s-1.33,5.14-4.89,5.14h-16.5v9.24c0,1.45.37,1.75,1.76,1.75h15.88c3.57,0,4.9,2.72,4.9,5.2S295.74,139.07,292.23,139.07Z"/><path class="cls-7" d="M330.74,140.28,321,122.82h-5.16v17.46H301.06V95.64c0-7.84,2.88-10.75,10.63-10.75H322.8c12.11,0,19.33,6.34,19.33,17v3.87a16,16,0,0,1-7.42,13.62l12.51,20.93ZM322.5,110.2c3.66,0,5-2.31,5-4.47v-3.57c0-2.16-1.3-4.48-5-4.48h-6.1a4.47,4.47,0,0,0-.52,0,4.47,4.47,0,0,0,0,.52v12Z"/><path class="cls-8" d="M322.8,86.09c10.46,0,18.13,5,18.13,15.77v3.87A15.11,15.11,0,0,1,333.08,119l12,20.11H331.44l-9.72-17.46h-7.07v17.46H302.26V95.64c0-7,2.18-9.55,9.43-9.55H322.8m-8.15,25.31h7.85c4.05,0,6.17-2.59,6.17-5.67v-3.57c0-3.08-2.12-5.68-6.17-5.68h-6.1c-1.39,0-1.75.3-1.75,1.75V111.4m8.15-27.71H311.69c-4.42,0-7.25.9-9.17,2.91s-2.66,4.71-2.66,9v45.84h17.19V124h3.25l9,16.22.69,1.24h19.3l-2.17-3.64-10.85-18.16a18.39,18.39,0,0,0,4.45-4.84,16.87,16.87,0,0,0,2.57-9.11v-3.87c0-5.86-2.09-10.64-6-13.81-3.55-2.86-8.56-4.36-14.49-4.36Zm-5.75,15.2h5.45c2.39,0,3.76,1.19,3.76,3.27v3.57c0,2.08-1.37,3.27-3.76,3.27h-5.45V98.89Z"/><path class="cls-9" d="M146.11,166.16a9.68,9.68,0,0,1-6.3-1.95,11,11,0,0,1-3.46-5,19.29,19.29,0,0,1-1.08-6.43,30.31,30.31,0,0,1,1.32-8.75,39.42,39.42,0,0,1,3.61-8.39,37.24,37.24,0,0,1,5.2-7.1,25.44,25.44,0,0,1,6.13-4.9,13,13,0,0,1,6.35-1.78,5.81,5.81,0,0,1,3.66,1.07,4.31,4.31,0,0,1,1.41,3.66,14.09,14.09,0,0,1-.55,3.6,20.87,20.87,0,0,1-1.49,3.85,13.27,13.27,0,0,1-2.06,3.06,3.24,3.24,0,0,1-2.29,1.21,1.71,1.71,0,0,1-.9-.28,2.06,2.06,0,0,1-.8-1c.55-.62,1.16-1.4,1.84-2.34s1.33-1.92,2-3a19.49,19.49,0,0,0,1.52-3.08,7.77,7.77,0,0,0,.58-2.67,2.56,2.56,0,0,0-.64-1.79,2.72,2.72,0,0,0-2.06-.68,8.26,8.26,0,0,0-4.92,1.92,25.26,25.26,0,0,0-5,5.15,44.76,44.76,0,0,0-4.31,7.18,45.84,45.84,0,0,0-3.06,8.08,30,30,0,0,0-1.13,7.87,17.1,17.1,0,0,0,.77,5.14,8.54,8.54,0,0,0,2.51,4,6.6,6.6,0,0,0,4.48,1.51,11.65,11.65,0,0,0,5.81-1.65,21.37,21.37,0,0,0,5.3-4.35,22.89,22.89,0,0,0,3.86-5.83l.77.55a32.34,32.34,0,0,1-4.41,6.58,21.63,21.63,0,0,1-5.77,4.78A13.87,13.87,0,0,1,146.11,166.16Z"/><path class="cls-9" d="M166.58,166.16a3.48,3.48,0,0,1-1.54-1.51,3.74,3.74,0,0,1-.33-1.35,11.48,11.48,0,0,1,1.12-4.18,65.33,65.33,0,0,1,3-6q1.9-3.37,4.21-7c-1.36-.11-2.51-.18-3.47-.22s-1.78-.06-2.47-.06H165.2a3.75,3.75,0,0,1,2.12-2.22,9.16,9.16,0,0,1,3.6-.64,18.28,18.28,0,0,1,1.93.11c.66.08,1.34.17,2,.28q2.81-4.25,5.75-8.23t5.5-7.09a51.72,51.72,0,0,1,4.27-4.71,4.41,4.41,0,0,1,2.64-1.54,2.64,2.64,0,0,1,1.35.47,9.73,9.73,0,0,1,1.57,1.29,7.13,7.13,0,0,0-1.41,2.34c-.57,1.27-1.17,2.85-1.81,4.76s-1.28,4-1.9,6.27-1.2,4.59-1.73,7-1,4.61-1.27,6.74a39.63,39.63,0,0,0-.47,5.61,9,9,0,0,0,.47,3.25,1.6,1.6,0,0,0,1.57,1.15q1.43,0,3.24-2a29.23,29.23,0,0,0,4-6.16l.55.55a22.1,22.1,0,0,1-4.21,7.21q-2.57,2.81-5.31,2.8a3.43,3.43,0,0,1-3.28-2,12.09,12.09,0,0,1-1-5.37,33.93,33.93,0,0,1,.24-3.85q.26-2.09.69-4.35c-1.61-.25-3.09-.46-4.43-.63l-3.71-.47q-2.58,4.78-5,9.85C169.48,159.58,168,162.89,166.58,166.16Zm18.1-20.63q.82-3.63,1.92-7.35t2.34-7.07c.83-2.23,1.6-4.2,2.34-5.88a17.4,17.4,0,0,0-3.94,3.71,67.92,67.92,0,0,0-4.7,6.49q-2.47,3.82-5.06,8.39c1.25.26,2.48.54,3.71.86Z"/><path class="cls-9" d="M199.48,166.16c.22-.51.82-1.86,1.81-4s2.28-5,3.88-8.53,3.39-7.48,5.39-11.94l6.36-14.17a10.22,10.22,0,0,0,.35-1,4.28,4.28,0,0,0,.2-1.24,1.48,1.48,0,0,0-.36-1,2,2,0,0,0-1.51-.41,5.09,5.09,0,0,0-3.83,1.57,9.65,9.65,0,0,0-2.25,3.87,14.77,14.77,0,0,0-.75,4.57c0,.37,0,.68,0,.94s0,.51.08.77a2.08,2.08,0,0,1-1.67-.75,4.59,4.59,0,0,1-.94-1.81,7.37,7.37,0,0,1-.3-2,6.62,6.62,0,0,1,1-3.46,11.75,11.75,0,0,1,2.56-3A12.42,12.42,0,0,1,213,122.5a10.31,10.31,0,0,1,3.72-.74,4.64,4.64,0,0,1,3.05,1,6.67,6.67,0,0,1,1.87,3.66,35.12,35.12,0,0,1,.63,7.65q0,3.41-.24,7.26c-.17,2.57-.34,5.1-.53,7.59s-.31,4.77-.38,6.82a50.8,50.8,0,0,1,2.5-7.15q1.62-3.8,3.58-7.57t3.88-7.06c1.28-2.21,2.43-4.11,3.46-5.73l2.26-3.52a15,15,0,0,1,1.32-1.68,1.88,1.88,0,0,1,1.43-.57,5.09,5.09,0,0,1,1.76.38c-.26.66-.62,1.64-1.07,3s-.93,2.88-1.41,4.75q-.87,3.36-1.76,7.62t-1.62,8.67q-.75,4.4-1.18,8.28a57.82,57.82,0,0,0-.44,6.52,11.37,11.37,0,0,0,.11,1.87,6.15,6.15,0,0,0,.3,1.18,14,14,0,0,1,.41,1.46,5.45,5.45,0,0,1-2.86-.61,3,3,0,0,1-1.32-2,15.73,15.73,0,0,1-.33-3.6,64.59,64.59,0,0,1,1.68-14.06q1.68-7.51,3.82-15.6a41.37,41.37,0,0,0-3.33,5.15c-1.15,2.07-2.31,4.31-3.46,6.71s-2.26,4.81-3.3,7.21-2,4.63-2.78,6.68-1.43,3.76-1.87,5.12c-.22.07-.37.13-.44.16a.93.93,0,0,1-.39.06c-1,0-1.64-.59-2-1.76a20.42,20.42,0,0,1-.47-4.95c0-1.51.05-3.3.14-5.37s.19-4.21.3-6.41.21-4.32.3-6.35.14-3.79.14-5.26c0-.73,0-1.33,0-1.81s0-.9-.08-1.27Q214,138.5,211,145.72t-5,11.75a37.77,37.77,0,0,1-3.55,6.6C201.47,165.46,200.47,166.16,199.48,166.16Z"/><path class="cls-9" d="M248.22,166.16a4.78,4.78,0,0,1-2.59-.77,2.3,2.3,0,0,1-1.21-2,4.69,4.69,0,0,1,.28-1.46c.18-.57.35-1.09.49-1.57q1.77-5.38,3.3-10.07t3.09-9.07q1.53-4.41,3.27-8.81t3.88-9.18a15.65,15.65,0,0,0-3.72,1.12c-1.08.5-1.95.94-2.61,1.33a3.66,3.66,0,0,1-1.32.57,1.39,1.39,0,0,1-.63-.24,3.4,3.4,0,0,1-.75-.61,1,1,0,0,1-.33-.63q1.44-.62,3.39-1.32a31.65,31.65,0,0,1,4.21-1.21,21.17,21.17,0,0,1,4.56-.5,19.28,19.28,0,0,1,4.93.66,15.78,15.78,0,0,1,4.59,2,11.12,11.12,0,0,1,3.36,3.33,8.42,8.42,0,0,1,1.26,4.62,9.23,9.23,0,0,1-1.26,4.92,11.33,11.33,0,0,1-3.36,3.47,19.84,19.84,0,0,1-4.51,2.26,37.14,37.14,0,0,1-4.81,1.32,36.51,36.51,0,0,1-4.27.6c-1.25.09-2.16.14-2.75.14h-.55q-1.65,5.67-3.16,11.17T248.22,166.16Zm6.16-21.95a30.42,30.42,0,0,0,6.14-1,21.55,21.55,0,0,0,5.69-2.4,13.27,13.27,0,0,0,4.18-3.9,9.51,9.51,0,0,0,1.6-5.48,7.83,7.83,0,0,0-1.41-4.84,8.42,8.42,0,0,0-3.68-2.78,13.21,13.21,0,0,0-4.87-.9,74.69,74.69,0,0,0-4,9.62C256.78,136.29,255.55,140.17,254.38,144.21Z"/><path class="cls-8" d="M165.27,229.17a7.93,7.93,0,0,1,0-15.86h75.34a7.93,7.93,0,0,1,0,15.86Z"/><path class="cls-7" d="M240.61,213.81a7.43,7.43,0,0,1,0,14.86H165.27a7.43,7.43,0,0,1,0-14.86h75.34m0-1H165.27a8.43,8.43,0,0,0,0,16.86h75.34a8.43,8.43,0,0,0,0-16.86Z"/><path class="cls-10" d="M170.54,223.37a1.91,1.91,0,0,1-.7-.89,3.61,3.61,0,0,1-.25-1.42,3.52,3.52,0,0,1,.25-1.41,1.86,1.86,0,0,1,.7-.89,2.09,2.09,0,0,1,2.19,0,1.92,1.92,0,0,1,.7.89,3.59,3.59,0,0,1,.25,1.41,3.54,3.54,0,0,1-.25,1.42,1.92,1.92,0,0,1-.7.89,2.09,2.09,0,0,1-2.19,0Zm1.61-.75a1.29,1.29,0,0,0,.33-.58,3.16,3.16,0,0,0,.12-.94,2.77,2.77,0,0,0-.26-1.33.77.77,0,0,0-1.41,0,2.77,2.77,0,0,0-.26,1.33,3.16,3.16,0,0,0,.12.94,1.29,1.29,0,0,0,.33.58.79.79,0,0,0,1,0Z"/><path class="cls-10" d="M177.06,223.48a1.59,1.59,0,0,1-.66-.53,1.42,1.42,0,0,1-.25-.78h1a.55.55,0,0,0,.12.35.73.73,0,0,0,.3.24,1.06,1.06,0,0,0,.4.08,1,1,0,0,0,.47-.11.89.89,0,0,0,.32-.32.93.93,0,0,0,.11-.47,1,1,0,0,0-.11-.47.87.87,0,0,0-.33-.33A.91.91,0,0,0,178,221a.82.82,0,0,0-.8.43h-1l.28-2.93h3.13v.86h-2.26l-.14,1.29h0a1,1,0,0,1,.42-.31,1.46,1.46,0,0,1,.6-.12,1.54,1.54,0,0,1,.83.22,1.59,1.59,0,0,1,.59.59,1.77,1.77,0,0,1,.21.86,1.72,1.72,0,0,1-.24.91,1.66,1.66,0,0,1-.68.63,2.18,2.18,0,0,1-1,.23A2.23,2.23,0,0,1,177.06,223.48Z"/><path class="cls-10" d="M182.53,223.59a.66.66,0,0,1-.22-.22.64.64,0,0,1,0-.58.63.63,0,0,1,.22-.21.52.52,0,0,1,.3-.08.48.48,0,0,1,.28.08.56.56,0,0,1,.22.21.57.57,0,0,1,0,.58.58.58,0,0,1-.22.22.57.57,0,0,1-.28.08A.61.61,0,0,1,182.53,223.59Z"/><path class="cls-10" d="M186.7,223.49A1.7,1.7,0,0,1,186,223a1.35,1.35,0,0,1-.26-.78h1.07a.53.53,0,0,0,.12.33.78.78,0,0,0,.32.23,1.19,1.19,0,0,0,.44.08,1,1,0,0,0,.44-.09.72.72,0,0,0,.31-.25.59.59,0,0,0,.11-.36.61.61,0,0,0-.12-.37.71.71,0,0,0-.33-.25,1.36,1.36,0,0,0-.51-.09h-.47v-.78h.47a1.23,1.23,0,0,0,.44-.08.8.8,0,0,0,.3-.24.63.63,0,0,0,.11-.35.55.55,0,0,0-.1-.34.58.58,0,0,0-.26-.23.8.8,0,0,0-.39-.09,1.07,1.07,0,0,0-.41.08.71.71,0,0,0-.3.23.5.5,0,0,0-.12.33h-1a1.39,1.39,0,0,1,.25-.77,1.66,1.66,0,0,1,.67-.52,2.18,2.18,0,0,1,.93-.19,2,2,0,0,1,.92.19,1.53,1.53,0,0,1,.63.51,1.28,1.28,0,0,1,.22.73,1.07,1.07,0,0,1-.12.51,1.09,1.09,0,0,1-.34.37,1.27,1.27,0,0,1-.51.2v0a1.61,1.61,0,0,1,.63.2,1,1,0,0,1,.52,1,1.24,1.24,0,0,1-.24.77,1.7,1.7,0,0,1-.71.54,2.67,2.67,0,0,1-1,.19A2.57,2.57,0,0,1,186.7,223.49Z"/><path class="cls-10" d="M193,223.37a2,2,0,0,1-.71-.89,3.8,3.8,0,0,1-.24-1.42,3.71,3.71,0,0,1,.24-1.41,1.94,1.94,0,0,1,.71-.89,2.07,2.07,0,0,1,2.18,0,1.94,1.94,0,0,1,.71.89,3.78,3.78,0,0,1,.24,1.41,3.73,3.73,0,0,1-.24,1.42,2,2,0,0,1-2.89.89Zm1.6-.75a1.13,1.13,0,0,0,.33-.58,3.16,3.16,0,0,0,.12-.94,2.78,2.78,0,0,0-.25-1.33.78.78,0,0,0-1.42,0,2.78,2.78,0,0,0-.25,1.33,3.16,3.16,0,0,0,.12.94,1.13,1.13,0,0,0,.33.58.78.78,0,0,0,1,0Z"/><path class="cls-10" d="M202.65,220.53a1.1,1.1,0,0,1,.47-.1,1.58,1.58,0,0,1,.38,0l.45.15.44.15a1.58,1.58,0,0,0,.38.05,1.06,1.06,0,0,0,.46-.1,1.28,1.28,0,0,0,.39-.28v.85a1.36,1.36,0,0,1-.4.29,1.1,1.1,0,0,1-.47.1,1.74,1.74,0,0,1-.39-.05l-.44-.15a3.29,3.29,0,0,0-.44-.15,1.2,1.2,0,0,0-.38-.05,1.06,1.06,0,0,0-.46.1,1.28,1.28,0,0,0-.39.28v-.85A1.36,1.36,0,0,1,202.65,220.53Z"/><path class="cls-10" d="M212.68,223.37a1.92,1.92,0,0,1-.71-.89,3.8,3.8,0,0,1-.24-1.42,3.71,3.71,0,0,1,.24-1.41,2,2,0,0,1,2.89-.89,1.94,1.94,0,0,1,.71.89,3.78,3.78,0,0,1,.24,1.41,3.73,3.73,0,0,1-.24,1.42,2,2,0,0,1-2.89.89Zm1.6-.75a1.2,1.2,0,0,0,.33-.58,3.16,3.16,0,0,0,.12-.94,2.78,2.78,0,0,0-.25-1.33.8.8,0,0,0-.71-.46.79.79,0,0,0-.71.46,2.78,2.78,0,0,0-.25,1.33,3.57,3.57,0,0,0,.11.94,1.21,1.21,0,0,0,.34.58.78.78,0,0,0,1,0Z"/><path class="cls-10" d="M221.14,218.69a1.83,1.83,0,0,1,.75.8,3.15,3.15,0,0,1,.29,1.44,3.83,3.83,0,0,1-.26,1.47,2,2,0,0,1-.73.95,1.87,1.87,0,0,1-1.11.33,2,2,0,0,1-.89-.2,1.59,1.59,0,0,1-.64-.53,1.64,1.64,0,0,1-.29-.78h1a.7.7,0,0,0,.27.44.8.8,0,0,0,.51.16.87.87,0,0,0,.79-.43,2.28,2.28,0,0,0,.27-1.21h0a1.23,1.23,0,0,1-.53.53,1.55,1.55,0,0,1-.78.19,1.58,1.58,0,0,1-.81-.21,1.54,1.54,0,0,1-.57-.59,1.64,1.64,0,0,1-.21-.84,1.71,1.71,0,0,1,.24-.9,1.63,1.63,0,0,1,.67-.63,2.17,2.17,0,0,1,1-.23A2.2,2.2,0,0,1,221.14,218.69Zm-1.47.71a1,1,0,0,0-.32.32.89.89,0,0,0-.12.45.9.9,0,0,0,.12.46.82.82,0,0,0,.31.33.9.9,0,0,0,.46.12.94.94,0,0,0,.47-.12.87.87,0,0,0,.33-.33.89.89,0,0,0,.12-.45,1,1,0,0,0-.12-.45.87.87,0,0,0-.33-.33.94.94,0,0,0-.92,0Z"/><path class="cls-10" d="M224.73,223.59a.56.56,0,0,1-.21-.22.57.57,0,0,1,0-.58.53.53,0,0,1,.21-.21.52.52,0,0,1,.3-.08.51.51,0,0,1,.29.08.53.53,0,0,1,.21.21.57.57,0,0,1,0,.58.56.56,0,0,1-.21.22.6.6,0,0,1-.29.08A.61.61,0,0,1,224.73,223.59Z"/><path class="cls-10" d="M229.73,223.61h-1.06v-4.08h0l-1.17.73v-.94l1.26-.8h1Z"/><path class="cls-10" d="M232.63,222.84l1.82-1.68c.18-.17.32-.32.42-.43a1.36,1.36,0,0,0,.23-.34.8.8,0,0,0,.08-.37.7.7,0,0,0-.1-.38.67.67,0,0,0-.29-.26.91.91,0,0,0-.41-.09.74.74,0,0,0-.79.79h-1a1.53,1.53,0,0,1,.22-.86,1.42,1.42,0,0,1,.64-.57,2.13,2.13,0,0,1,.94-.2,2.21,2.21,0,0,1,1,.19,1.6,1.6,0,0,1,.64.53,1.39,1.39,0,0,1,.22.78,1.66,1.66,0,0,1-.11.58,2.32,2.32,0,0,1-.41.61,9.71,9.71,0,0,1-.8.82l-.78.75v0h2.17v.87h-3.64Z"/><path class="cls-8" d="M303.49,163.33a1.83,1.83,0,0,0-.13-.16l-.12-.17-.13-.17-.12-.16a1.09,1.09,0,0,0-.13-.17l-.12-.17a1.83,1.83,0,0,0-.13-.16l-.12-.17a1.83,1.83,0,0,0-.13-.16l-.12-.17-.13-.17-.12-.16a1.09,1.09,0,0,0-.13-.17l-.12-.17a1.83,1.83,0,0,0-.13-.16l-.12-.17a1.83,1.83,0,0,0-.13-.16l-.12-.17-.13-.17L301,160l-.13-.17-.12-.16a1.09,1.09,0,0,0-.13-.17l-.12-.17a1.83,1.83,0,0,0-.13-.16l-.12-.17-.13-.17-.12-.16-.13-.17-.12-.16A5.87,5.87,0,0,0,295,156a6,6,0,0,0-6,6.18v6l-1.62-3.32h0a5.59,5.59,0,0,0-.57-.89l-.12-.17a1.83,1.83,0,0,0-.13-.16l-.12-.17-.13-.17-.12-.16L286,163l-.12-.16a1.09,1.09,0,0,0-.13-.17l-.12-.17a1.83,1.83,0,0,0-.13-.16l-.12-.17-.13-.17-.12-.16-.13-.17-.12-.16-.13-.17-.12-.17a1.83,1.83,0,0,0-.13-.16l-.12-.17a1,1,0,0,0-.13-.16l-.12-.17-.13-.17-.12-.16-.13-.17-.12-.17a1.83,1.83,0,0,0-.13-.16l-.12-.17a1.83,1.83,0,0,0-.13-.16l-.12-.17L283,159a7.61,7.61,0,0,0-6.24-2.94,8.11,8.11,0,0,0-.86.05,6.55,6.55,0,0,0-6.13,6.36v34.4h.12V197H270v.17h.12v.16h.13v.17h.12v.16h.13v.17h.12V198h.13v.16h.12v.17H271v.17h.12v.16h.13v.17h.12V199h.13v.17h.12v.17h.13v.16h.12v.17H272v.16h.12V200h.13v.17h.12v.16h.13v.17h.12v.17h.13v.16h.12V201H273v.16h.12v.17h.13v.17h.12v.16h.13v.17h.12V202h12V190.36l1.62,3.34a5.86,5.86,0,0,0,.64,1l.12.16.13.17.12.16.13.17.12.17a1.83,1.83,0,0,1,.13.16l.12.17.13.16.12.17.13.17.12.16.13.17.13.17.12.16.13.17.12.16a1.09,1.09,0,0,0,.13.17l.12.17a1.83,1.83,0,0,0,.13.16l.12.17.13.17.12.16.13.17.12.16a1.09,1.09,0,0,0,.13.17l.12.17a1.83,1.83,0,0,0,.13.16l.12.17a1.83,1.83,0,0,0,.13.16l.12.17c1.5,2.07,4.26,2.83,6.35,2.83.24,0,.49,0,.73,0,3-.27,6.1-2.48,6.1-6.2v-29A6.31,6.31,0,0,0,303.49,163.33Z"/><path class="cls-8" d="M139.51,166.54l-.12-.16c0-.06-.08-.12-.13-.17l-.12-.17s-.08-.11-.13-.16l-.12-.17c0-.05-.08-.11-.13-.17l-.12-.16-.13-.17-.12-.16c0-.06-.08-.12-.13-.17l-.12-.17a1.83,1.83,0,0,1-.13-.16l-.12-.17a1.83,1.83,0,0,1-.13-.16l-.12-.17-.13-.17-.12-.16-.13-.17-.12-.17a1.83,1.83,0,0,1-.13-.16l-.12-.17a1.83,1.83,0,0,1-.13-.16l-.12-.17-.13-.17-.12-.16-.13-.17-.12-.17a1.83,1.83,0,0,1-.13-.16l-.12-.17c-3-3.89-8-5.71-13-5.71a17.81,17.81,0,0,0-10.45,3.14c-2.49,1.82-5.46,5.3-5.46,11.55v12.13a14.22,14.22,0,0,0,3,9.15l.13.17.12.16a1.09,1.09,0,0,0,.13.17l.12.17a1.83,1.83,0,0,0,.13.16l.12.17a1.83,1.83,0,0,0,.13.16l.12.17.13.17.12.16a1.09,1.09,0,0,0,.13.17l.12.16a1.09,1.09,0,0,0,.13.17l.12.17a1.83,1.83,0,0,0,.13.16l.12.17.13.17.12.16.13.17.12.16a1.09,1.09,0,0,0,.13.17l.12.17a1.83,1.83,0,0,0,.13.16l.12.17.13.17.12.16.13.17.12.16a1.09,1.09,0,0,0,.13.17l.12.17c3,3.89,8,5.7,13,5.7,7.92,0,15.91-4.54,15.91-14.69V175.86a14.22,14.22,0,0,0-3-9.15Zm-13.68,16.54a2.57,2.57,0,0,1-2.11,2.77V175.61a2.45,2.45,0,0,1,2.11-2.8Z"/><path class="cls-8" d="M249.63,192.44a1,1,0,0,0-.12-.16l-.13-.17a1.77,1.77,0,0,0-.12-.17c0-.06-.09-.1-.13-.16a1.77,1.77,0,0,0-.12-.17c0-.06-.09-.11-.13-.16a1.77,1.77,0,0,0-.12-.17l-.13-.17a1,1,0,0,0-.12-.16l-.13-.17a1.77,1.77,0,0,0-.12-.17c0-.06-.09-.1-.13-.16a1.77,1.77,0,0,0-.12-.17c0-.06-.09-.11-.13-.16a1.77,1.77,0,0,0-.12-.17l-.13-.17a1.67,1.67,0,0,0-.12-.16l-.13-.17a1,1,0,0,0-.12-.16l-.13-.17A1.77,1.77,0,0,0,247,189c0-.06-.09-.11-.13-.16a1.77,1.77,0,0,0-.12-.17l-.13-.17a1.67,1.67,0,0,0-.12-.16l-.13-.17-.12-.16-.13-.17-.12-.17-.19-.24a5.21,5.21,0,0,0,2.94-1.83,6.08,6.08,0,0,0,1.25-3.77A6.32,6.32,0,0,0,248.8,178l-.12-.17-.13-.16-.12-.17c0-.06-.09-.11-.13-.16l-.12-.17-.13-.17-.12-.16-.13-.17-.12-.17-.13-.16-.12-.17-.13-.16-.12-.17-.13-.17-.12-.16-.13-.17-.12-.16-.13-.17-.12-.17-.13-.16-.12-.17-.13-.17-.12-.16-.13-.17-.12-.16-.13-.17-.12-.17,0,0a5.43,5.43,0,0,0,5-5.75,6.41,6.41,0,0,0-1.21-3.79l-.12-.16-.13-.17-.12-.16-.13-.17-.12-.17-.13-.16-.12-.17c0-.06-.09-.11-.13-.16l-.12-.17-.13-.17-.12-.16-.13-.17-.12-.17-.13-.16-.12-.17c0-.06-.09-.11-.13-.16l-.12-.17-.13-.17-.12-.16-.13-.17-.12-.17-.13-.16-.12-.17-.13-.16-.12-.17-.13-.17-.12-.16-.13-.17-.12-.16-.13-.17a5.26,5.26,0,0,0-4.52-2.31H227.47c-2,0-4.81.23-6.67,2.18s-2,4.46-2,6.55v22.76a10,10,0,0,0,1.49,5.95l.12.17.13.16.12.17.13.16.12.17.13.17.12.16.13.17.12.16.13.17.12.17.13.16.12.17.13.17.12.16.13.17.12.16.13.17.13.17a1.67,1.67,0,0,0,.12.16l.13.17a1,1,0,0,0,.12.16l.13.17a1.77,1.77,0,0,0,.12.17,1.83,1.83,0,0,0,.13.16,1.77,1.77,0,0,0,.12.17l.13.17.12.16.13.17a1.67,1.67,0,0,0,.12.16,5,5,0,0,0,.62.77c1.86,2,4.69,2.18,6.66,2.18h13.83c3.68,0,5.61-3,5.61-5.93a6.17,6.17,0,0,0-1-3.49Z"/><path class="cls-8" d="M194.19,167.15l-.13-.16-.12-.17-.13-.17-.12-.16-.13-.17-.12-.16-.13-.17-.12-.17-.13-.16-.12-.17-.13-.17-.12-.16-.13-.17-.12-.16-.13-.17-.12-.17-.13-.16-.12-.17c0-.06-.09-.11-.13-.16l-.12-.17-.13-.17-.12-.16-.13-.17-.12-.17-.13-.16-.12-.17-.13-.16-.12-.17-.13-.17-.12-.16a11.47,11.47,0,0,0-1.88-2.12c-2.55-2.25-6.05-3.39-10.43-3.39h-6.85c-2,0-4.81.23-6.67,2.18s-2,4.46-2,6.55v31.48h.13V197h.12v.17H163v.16h.12v.17h.13v.16h.12v.17h.13V198h.12v.16h.13v.17h.12v.17H164v.16h.12v.17h.13V199h.12v.17h.13v.17h.12v.16h.13v.17h.12v.16H165V200h.12v.17h.13v.16h.12v.17h.13v.17h.12v.16h.13V201h.12v.16H166v.17h.12v.17h.13v.16h.12v.17h.13V202h13V191.72H182c4.37,0,7.88-1.14,10.43-3.38,2.82-2.5,4.26-6.16,4.26-10.9V176.1A15.08,15.08,0,0,0,194.19,167.15Z"/><path class="cls-7" d="M109,170.7c0-9.33,7.5-12.37,13.59-12.37s13.58,3,13.58,12.37v12.13c0,9.33-7.62,12.37-13.58,12.37s-13.59-3-13.59-12.37Zm18.9-.24c0-3.57-2.35-5.19-5.31-5.19s-5.32,1.62-5.32,5.19v12.62a5.32,5.32,0,0,0,10.63,0Z"/><path class="cls-7" d="M173,184.25v10.31h-8.36V165.39c0-4.66,1.46-6.41,6.33-6.41h6.85c7.22,0,12.37,3.49,12.37,12v1.34c0,8.47-5.15,12-12.37,12Zm0-7.06h4.42c2.92,0,4.46-2,4.46-5.11v-.93c0-3.08-1.54-5.11-4.46-5.11h-3.25c-.93,0-1.17.2-1.17,1.18Z"/><path class="cls-7" d="M229.16,173.06h11.08a3.29,3.29,0,0,1,3.28,3.57,3.17,3.17,0,0,1-3.28,3.44H229.16v6.21c0,1,.25,1.18,1.18,1.18H241a3.18,3.18,0,0,1,3.28,3.49c0,1.66-.93,3.61-3.28,3.61H227.18c-4.87,0-6.33-1.75-6.33-6.41V165.39c0-4.66,1.46-6.41,6.33-6.41H240.6c2.36,0,3.29,2,3.29,3.61a3.19,3.19,0,0,1-3.29,3.49H230.34c-.93,0-1.18.2-1.18,1.18Z"/><path class="cls-7" d="M298.37,162.19v29a4.07,4.07,0,0,1-4,3.89c-1.95.16-4.46-.57-5.32-2.35l-9.89-20.44v22.31H271.8V162.47a4.27,4.27,0,0,1,4.06-4.06c1.95-.2,4.34.57,5.23,2.36l9.9,20.28V162.19a3.69,3.69,0,1,1,7.38,0Z"/></g></g></g></svg>