<svg xmlns="http://www.w3.org/2000/svg" xmlns:xlink="http://www.w3.org/1999/xlink" viewBox="0 0 400.05 300.05"><defs><style>.cls-1{fill:#fdac9e;}.cls-2{isolation:isolate;}.cls-3{fill:none;}.cls-4{fill:#fdae7a;}.cls-5{mix-blend-mode:screen;}.cls-11,.cls-5{opacity:0.4;}.cls-6{fill:#db8952;}.cls-12,.cls-7{fill:#fff;}.cls-7{stroke:#d9c0bc;stroke-miterlimit:10;stroke-width:1px;}.cls-8{fill:#7e6b7f;}.cls-9{fill:#3f3634;}.cls-10{fill:#d9c0bc;}.cls-13{fill:#4c3c35;}.cls-14{fill:#b1aba6;}.cls-15,.cls-18{fill:#3a7c4d;}.cls-15,.cls-16,.cls-17,.cls-26,.cls-27,.cls-28{fill-rule:evenodd;}.cls-16{fill:#336d42;}.cls-17{fill:#539666;}.cls-19{fill:#4c705b;}.cls-20{fill:#df562e;}.cls-21{fill:#d34a2a;}.cls-22{fill:#ff4040;}.cls-23{fill:#f90;}.cls-24{fill:#a3cb40;}.cls-25{fill:#309b48;}.cls-26{fill:#d1492a;}.cls-27{fill:#fcc244;}.cls-28{fill:#edb443;}.cls-29{fill:#ffdc48;}.cls-30{fill:#5b6899;}.cls-31{fill:#ddc2a4;}.cls-32{fill:#290920;}.cls-33{fill:#f6afa5;}.cls-34{fill:#8a8a88;}.cls-35{clip-path:url(#clip-path);}.cls-36{fill:#e27b6d;}.cls-37{fill:#f2e2d4;}.cls-38{fill:#68ae45;}.cls-39{fill:#ba5778;}.cls-40{fill:#a5b79f;}.cls-41{fill:#4e3e37;}.cls-42{fill:#ffd200;}.cls-43{fill:#ffe642;}.cls-44{fill:#ffffdc;}.cls-45{fill:#83bf2f;}.cls-46{opacity:0.17;}.cls-47{fill:#559945;}.cls-48{fill:#4d883b;}</style><clipPath id="clip-path"><path class="cls-1" d="M185.6,222.25a8,8,0,0,1,5.75-1.75h0s3,.15,3.65.28,3.86,1.8,3.78,2.31a.59.59,0,0,1-.26.46c.62.4,1.1.78,1.07,1-.08.51-.32.87-2.4.11a4.58,4.58,0,0,0-.56-.17c1,.6,3.11,2.22,3,2.64s-.45.81-2.39-.26a12.64,12.64,0,0,0-3.26-1.09,11,11,0,0,1,3.07,1.53c.43.75-.83,1.14-1.82.56a13.76,13.76,0,0,0-2.93-1v0c-2,.57-3.78,1.31-5.19.85C184.52,226.88,183.37,223.94,185.6,222.25Z"/></clipPath></defs><g class="cls-2"><g id="Layer_2" data-name="Layer 2"><g id="Layer_3" data-name="Layer 3"><g id="evt_cook"><rect class="cls-3" x="0.05" width="400" height="300"/><rect class="cls-4" x="197.8" y="217.63" width="94.88" height="77.45"/><g class="cls-5"><path class="cls-4" d="M273,223.37H197.8V222.2H273A.59.59,0,0,1,273,223.37Z"/><path class="cls-4" d="M260.45,226.29h-45.3a.59.59,0,0,0,0,1.17h45.3A.59.59,0,0,0,260.45,226.29Z"/><path class="cls-4" d="M292.68,222.49v1.17H282.63a.59.59,0,0,1,0-1.17Z"/><path class="cls-4" d="M285.59,226.58H269.8a.59.59,0,0,0,0,1.17h15.79A.59.59,0,0,0,285.59,226.58Z"/><path class="cls-4" d="M200.83,228h-3v-1.17h3A.59.59,0,0,1,200.83,228Z"/><path class="cls-4" d="M230.06,233.45H197.8v-1.17h32.26A.59.59,0,0,1,230.06,233.45Z"/><path class="cls-4" d="M292.68,232v1.17H251.53a.59.59,0,0,1,0-1.17Z"/><path class="cls-4" d="M246.13,232h-3.94a.59.59,0,0,0,0,1.17h3.94A.59.59,0,0,0,246.13,232Z"/><path class="cls-4" d="M221.14,239H197.8v-1.17h23.34A.59.59,0,0,1,221.14,239Z"/><path class="cls-4" d="M257.68,238h-26.6a.59.59,0,0,0,0,1.17h26.6A.59.59,0,0,0,257.68,238Z"/><path class="cls-4" d="M270.53,237.69h-5.4a.58.58,0,0,0,0,1.16h5.4A.58.58,0,0,0,270.53,237.69Z"/><path class="cls-4" d="M292.68,237.69v1.16h-11a.58.58,0,0,1,0-1.16Z"/><path class="cls-4" d="M292.68,246.16v1.17h-43a.59.59,0,0,1,0-1.17Z"/><path class="cls-4" d="M216.32,248.35H197.8v-1.17h18.52A.59.59,0,0,1,216.32,248.35Z"/><path class="cls-4" d="M223.63,242.8H207.55a.59.59,0,0,0,0,1.17h16.08A.59.59,0,0,0,223.63,242.8Z"/><path class="cls-4" d="M240.29,246h-8.63a.59.59,0,0,0,0,1.17h8.63A.59.59,0,0,0,240.29,246Z"/><path class="cls-4" d="M214.86,252.44H203.17a.59.59,0,0,0,0,1.17h11.69A.59.59,0,0,0,214.86,252.44Z"/><path class="cls-4" d="M270.39,252.44H229.18a.59.59,0,0,0,0,1.17h41.21A.59.59,0,0,0,270.39,252.44Z"/><path class="cls-4" d="M286.17,251.86H277a.59.59,0,0,0,0,1.17h9.21A.59.59,0,0,0,286.17,251.86Z"/><path class="cls-4" d="M223.2,258.59H197.8v-1.17h25.4A.59.59,0,0,1,223.2,258.59Z"/><path class="cls-4" d="M250.52,256.83H230.2a.59.59,0,0,0,0,1.17h20.32A.59.59,0,0,0,250.52,256.83Z"/><path class="cls-4" d="M288.65,256.68H259.28a.59.59,0,0,0,0,1.17h29.37A.59.59,0,0,0,288.65,256.68Z"/><path class="cls-4" d="M207.41,263.7H197.8v-1.17h9.61A.59.59,0,0,1,207.41,263.7Z"/><path class="cls-4" d="M235.61,262.38H213.54a.59.59,0,0,0,0,1.17h22.07A.59.59,0,0,0,235.61,262.38Z"/><path class="cls-4" d="M252.56,261.36h-9.5a.59.59,0,0,0,0,1.17h9.5A.59.59,0,0,0,252.56,261.36Z"/><path class="cls-4" d="M292.68,263v1.17H260.16a.59.59,0,0,1,0-1.17Z"/><path class="cls-4" d="M226.55,268.66H197.8V267.5h28.75A.58.58,0,0,1,226.55,268.66Z"/><path class="cls-4" d="M245.25,267.79h-8.47a.59.59,0,0,0,0,1.17h8.47A.59.59,0,0,0,245.25,267.79Z"/><path class="cls-4" d="M292.68,270.13v1.17H255.93a.59.59,0,0,1,0-1.17Z"/><path class="cls-4" d="M222.75,275.23H197.8v-1.16h24.95A.58.58,0,0,1,222.75,275.23Z"/><path class="cls-4" d="M234.88,274.51h-7.75a.59.59,0,0,0,0,1.17h7.75A.59.59,0,0,0,234.88,274.51Z"/><path class="cls-4" d="M292.68,276.85V278H252.42a.59.59,0,0,1,0-1.17Z"/><path class="cls-4" d="M234.44,281.38H197.8v-1.17h36.64A.59.59,0,0,1,234.44,281.38Z"/><path class="cls-4" d="M209.45,288.54H197.8v-1.17h11.65A.59.59,0,0,1,209.45,288.54Z"/><path class="cls-4" d="M227.57,287.08H215.44a.59.59,0,0,0,0,1.17h12.13A.59.59,0,0,0,227.57,287.08Z"/><path class="cls-4" d="M281.79,284.3H239.26a.59.59,0,0,0,0,1.17h42.53A.59.59,0,0,0,281.79,284.3Z"/><path class="cls-4" d="M292.68,281.66v1.17h-2.13a.59.59,0,0,1,0-1.17Z"/><path class="cls-4" d="M268.64,290.44H246.57a.59.59,0,0,0,0,1.17h22.07A.59.59,0,0,0,268.64,290.44Z"/><path class="cls-4" d="M292.68,289.41v1.17H283.1a.59.59,0,0,1,0-1.17Z"/></g><rect class="cls-6" x="236.68" y="217.62" width="2.05" height="77.45"/><rect class="cls-6" x="224.21" y="225.69" width="7.31" height="2.24"/><rect class="cls-6" x="243.89" y="225.69" width="7.31" height="2.24"/><rect class="cls-7" x="292.68" y="213.57" width="75.22" height="81.51"/><rect class="cls-8" x="193.81" y="212.77" width="176.41" height="4.85"/><path class="cls-9" d="M351,228.41a2.41,2.41,0,1,1,2.41-2.41A2.42,2.42,0,0,1,351,228.41Zm0-3.65a1.24,1.24,0,1,0,1.24,1.24A1.24,1.24,0,0,0,351,224.76Z"/><path class="cls-9" d="M342.57,228.41A2.41,2.41,0,1,1,345,226,2.41,2.41,0,0,1,342.57,228.41Zm0-3.65a1.24,1.24,0,1,0,0,2.48,1.24,1.24,0,0,0,0-2.48Z"/><path class="cls-9" d="M334.16,228.41a2.41,2.41,0,1,1,2.41-2.41A2.41,2.41,0,0,1,334.16,228.41Zm0-3.65A1.24,1.24,0,1,0,335.4,226,1.24,1.24,0,0,0,334.16,224.76Z"/><path class="cls-9" d="M359.38,228.41a2.41,2.41,0,1,1,2.41-2.41A2.41,2.41,0,0,1,359.38,228.41Zm0-3.65a1.24,1.24,0,1,0,1.24,1.24A1.24,1.24,0,0,0,359.38,224.76Z"/><rect class="cls-10" x="292.68" y="287.81" width="75.22" height="1.9"/><path class="cls-10" d="M361.21,238.14v38.58a4,4,0,0,1-4,4H303.37a3.49,3.49,0,0,1-1-.13,4,4,0,0,1-3-3.87V238.14a4,4,0,0,1,4-4h53.85a4,4,0,0,1,3.73,2.57A3.84,3.84,0,0,1,361.21,238.14Z"/><g class="cls-11"><path class="cls-12" d="M348.83,234.16,302.4,280.59a4,4,0,0,1-3-3.87v-14.6l28-28Z"/></g><g class="cls-11"><path class="cls-12" d="M361.21,238.14v9.8l-32.78,32.78H317l44-44A3.84,3.84,0,0,1,361.21,238.14Z"/></g><g class="cls-11"><polygon class="cls-12" points="361.21 254.63 361.21 260.37 340.86 280.72 335.12 280.72 361.21 254.63"/></g><rect class="cls-6" x="297.08" y="208.75" width="28.16" height="4.02"/><rect class="cls-13" x="335.35" y="208.75" width="28.16" height="4.02"/><path class="cls-9" d="M379.37,199.42l-19.89,6.4a1,1,0,0,1-1.29-.66h0a1,1,0,0,1,.66-1.28l19.89-6.41a1,1,0,0,1,1.29.66h0A1,1,0,0,1,379.37,199.42Z"/><path class="cls-14" d="M359.27,208.75H339.4a4,4,0,0,1-4-4V203h27.87v1.75A4,4,0,0,1,359.27,208.75Z"/><rect class="cls-3" x="332.28" y="185.99" width="59.61" height="67.58"/><path class="cls-15" d="M357.68,176.72c-2.59,5.84-5.9,10.18-12.26,12.29l-.06,0a1.6,1.6,0,0,1-.84-3.08,17.43,17.43,0,0,0,10.9-9.29c0-.13.05-.26.08-.39s.05-.24.07-.36c-.23-.44-.87-1.3-1.22-1.83-2-3-4.75-6.19-4.15-7.8,1-2.69,3.77-4.49,6.22-11.77,4.25-12.61,17.06-8.89,13.15,4.18-2.21,7.36-1,10.43-1.72,13.2C367.26,174.07,360,175.49,357.68,176.72Z"/><path class="cls-16" d="M367.66,147.79a8.71,8.71,0,0,0-7,3.1c-1.79,2.23-2.64,5.19-3.68,7.82-.12.31-.24.62-.37.92a17.57,17.57,0,0,0-2.43,6.09c-.4,2.29.34,4.07,1,6.21a17.37,17.37,0,0,1,.91,4.7,11.82,11.82,0,0,1-2.2,4.25,25.64,25.64,0,0,1-5.54,5,11.13,11.13,0,0,1-4.92,2.25,1.84,1.84,0,0,1-.09-.25,1.6,1.6,0,0,1,1.11-1.94,17.43,17.43,0,0,0,10.9-9.29c0-.13.05-.26.08-.39s.05-.24.07-.36c-.23-.44-.87-1.3-1.22-1.83-2-3-4.75-6.19-4.15-7.8,1-2.69,3.77-4.49,6.22-11.77S364.38,145.33,367.66,147.79Z"/><path class="cls-17" d="M344.8,186.88a18.3,18.3,0,0,0,12-12.36c.74-3.92-1.54-8.85-2.11-13.26,1.18,3.61,2.9,7.33,3.09,11.16.83-2.23,1.55-4.56,2.28-6.89a.07.07,0,0,1,0-.05A108.2,108.2,0,0,1,359,154.65v0a.5.5,0,0,1,0-.24c.14.19,1.17,5.77,1.73,8.92,1.14-3.78,2-7.49,3.12-11.31a86.74,86.74,0,0,1-2.65,12.12c2.12-2.1,6.83-6.7,7.07-6.77a.49.49,0,0,1-.11.2h0c-.73,1-6.85,8.33-7.48,8.39-.53,1.84-1.05,3.67-1.63,5.44,2.31-2.43,5.34-4.24,8-6.21-3,3.27-7.44,6.14-9.11,9.77a.57.57,0,0,1-.33.38c-2.37,5.75-5.83,10.52-12.51,12.74a.62.62,0,0,1-.31-1.21Z"/><path class="cls-18" d="M169.49,119a3.42,3.42,0,0,0-.1-.74s.82.76.84.2-.67-.92-.67-.92.43.06.25-.4-3.18-.94-2.78-1.66,4.06,2.14,4.32,1.46a.78.78,0,0,0-.49-1c.19.08,2,.84,1.79-.14s-2.7-1-2.32-1.4,3.75.09,3.54-.57-1.32-.62-1.32-.62,1.4-1.13,1.16-1.38-1-.12-1-.12.44-.22.18-.51-2,1.92-1.93,1.08,1-1.56.82-1.85-1.22.41-1.22.41l-.09-.64s-1.92,2.65-2.19,2.2,1.85-1.63,1-2.39-1.72,1.8-2.13,1.24,0-1.92-.52-1.53-.44,1.41-.44,1.41-.23-.92-.58-.72.72,1-1,2.29a13.31,13.31,0,0,1-2.38,1.36,30.15,30.15,0,0,0,1.7-2.52,28.38,28.38,0,0,1,2.45-2.31c.8-.61,4.57-.64,4.73-1.21s-1.62-.66-1.49-1,2.18-.31,2.24-.65-.88-.52-.88-.52,1.08-.55.78-1.26-1.21.31-1.21.31a.89.89,0,0,0-.17-.83c-.33-.4-1,.9-1,.9s.13-.67-.25-.64-2,1.67-2.31,1.26,3.8-2.14,3.71-2.46-.37-.1-.37-.1a1.7,1.7,0,0,0,.2-1.35c-.24-.65-1.71,1.29-2,.86s1.56-1.56,1.32-2-.51.7-.79.36.28-1.53-.14-1.63-.87,1.22-.87,1.22-.14-.86-.62-1-.13,2.2-.6,2.19-.29-2-.83-2,0,.53-.14.8-.31-.25-.56,0,.77,4.13.15,4.47.08-2.73-.44-3.09-.25.87-.49.85-1.07-2.41-1.6-2.09.24.71.1,1.16-.75-.57-1.16-.24,1.42,1,1.26,1.75-1.36-1-1.63-.82.45,1.44.45,1.44-.53-.36-.77.18,1.18,1,2.19,3.36a3.57,3.57,0,0,1-.29,3.8l0,0a26.32,26.32,0,0,1-2.37,3.28c-.07-.76-.31-1.81-.42-3.33-.18-2.47,1.53-3.18,1.15-3.55s-1.34,1.36-.43-.29-.42-1.32-.77-.68c-.24.42.3-1.52-.1-1.77s-.47,1.59-1.24,1.72,1.38-2.64,1.27-2.94-.39.06-.39.06.08-1.14-.26-1.54-.53,1.58-.91,1.64.11-1.77-.07-2-.45.87-.45.87.1-1.21-.51-1.37-.3,2-.75,2-.21-1-1-.94,1.22,3.23.95,4-1.33-2.56-1.67-2.58-.32.67-.32.67-.47-.86-1-.63.48,1.12.48,1.12-.47-.42-.84-.26,1.3,1.33,1,1.63-1-.9-1.15-.46.95,1,.95,1-.91.17-.5.58,3.13,1.24,3,1.85-2.69-.86-2.9-.54,1.12.86.78.84-1.58-.91-1.85-.38a.75.75,0,0,0,.17.9s-.89-.11-.91.39,1.44.41,1.24.51-.33.14-.31.55,3,.11,2.94.67-1.66-.19-1.6.26,1.36.52,1.4.87-1.26-.38-1.47-.23.14.87,1,.82,3.24-.47,4.13,1.05a2.92,2.92,0,0,1,.27.59,15.29,15.29,0,0,1-1.42,1.25c-3.73,2.92-4.79,3.34-4.84,3.36l.28.83c.18-.06,1.06-.38,5.1-3.5a15.49,15.49,0,0,0,1.81-1.63,2.24,2.24,0,0,1,2.74.84c1.27,1.9,2.44,3.27,2.7,2.37s-.81-2.83.52-1.74,1.32,2.4,1.81,2.1-.19-1,.23-1.09S169.53,119.59,169.49,119Z"/><polygon class="cls-19" points="54.41 181.84 45.05 173.61 46.24 172.77 52.27 178.07 48.93 170.93 50.99 170.51 55.61 181 54.41 181.84"/><path class="cls-18" d="M48.41,166.94l6.5,14.4-12.56-9.16c-.29.68-.58,1.36-.86,2l12.32,8.36L57,181l-6.46-14.54Z"/><path class="cls-20" d="M95.65,208C84.88,207.5,76.5,198.45,72,189.32c-2.18-4.24-3.42-8.79-7.55-11.86-4.74-3.54-8.81-.76-11.9,2.95-4,4.75-4.33,9.68.86,14a60.17,60.17,0,0,0,6.17,4.14c.26.15,1.62-1.51,1.88-1.36s-.57,2.13-.31,2.28c2.42,1.4,4.85,2.73,7,4,4.6,2.46,9,3.19,14.08,4.05,4,.75,9.12,2.86,13.14,1.6a9.75,9.75,0,0,0,2.44-1.35,6.2,6.2,0,0,1-2.74.2"/><path class="cls-21" d="M66.42,191a14.07,14.07,0,0,1,4.38-4c-.15-.16-.3-.32-.44-.49A6.87,6.87,0,0,0,66.42,191Z"/><path class="cls-21" d="M73.08,197.47c-1.92.2-3.07,1.82-3.92,3.59C70.29,199.68,71.92,198.81,73.08,197.47Z"/><path class="cls-21" d="M64.67,198.34a10.81,10.81,0,0,1,3.78-3.45c-2.27-.06-4.56,2.35-5.13,4.68a11.25,11.25,0,0,1,1.28-1.19Z"/><path class="cls-21" d="M72,189.32c-.84-1.64-1.55-3.33-2.34-5,.12.7.23,1.41.35,2.11a20.89,20.89,0,0,0,1.15,4.61,25.59,25.59,0,0,0,2.91,4.66c1.13,1.64,2.57,3.05,3.68,4.7.78,1.15,1.82,2.84.73,4.12-1.25,1.47-4.5.9-6.09.59-.45-.09-.89-.19-1.33-.3a52.59,52.59,0,0,0,11.14,2.69c4,.75,9.12,2.86,13.14,1.6a9.75,9.75,0,0,0,2.44-1.35,6.2,6.2,0,0,1-2.74.2l.59.06C84.88,207.5,76.5,198.45,72,189.32Z"/><path class="cls-22" d="M76.92,83.91l12.62,28.84-6.87,3-6-13.63L72.31,104,74,107.85c2.6,6,.06,10.9-5.47,13.32s-11,.94-13.55-5l-5.56-12.7c-2.58-5.91-.06-10.9,5.5-13.33s10.93-.93,13.52,5l1.33,3,4.39-1.92-4.08-9.34a3.74,3.74,0,0,1,6.86-3ZM61.68,97.69c-.93-2.13-2.83-2.65-4.33-2a3.23,3.23,0,0,0-1.51,4.5l5.84,13.36c1,2.2,2.81,2.66,4.35,2s2.45-2.35,1.49-4.54Z"/><path class="cls-23" d="M93.58,87.38A4.87,4.87,0,0,1,89,81.63l.07-.55c.38-2.92,2.46-4.54,5.55-4.14l5.33.7.17-1.28c.06-.47-.1-.61-.65-.68l-7.4-1a2.26,2.26,0,0,1,.58-4.45l9.94,1.3c3,.39,4,2,3.67,4.27l-.87,6.7-9.24-1.21a.89.89,0,0,0-1.11.77v.12c-.08.61.35.91.88,1l9.7,1.27a2.06,2.06,0,0,1,1.71,2.5,2,2,0,0,1-2.29,1.92Zm-.73,9.86c-3.26-.43-4-1.68-3.58-4.79l.27-2c.23-1.75,1.72-2.47,3.35-2.26a2.64,2.64,0,0,1,2.56,3l-.17,1.31c0,.41.08.55.49.6L111.9,95.2a2.25,2.25,0,1,1-.58,4.46ZM108,92.4l2.32-17.77a2.94,2.94,0,0,1,5.83.77l-2.33,17.76Z"/><path class="cls-24" d="M123.19,85.74c1.37-4.89,5.51-6.63,10.15-5.33s7.32,4.92,5.94,9.84l-2.91,10.39c-1.39,5-5.55,6.65-10.16,5.35s-7.32-4.91-5.93-9.86Zm2.55,12.13a2.6,2.6,0,0,0,1.74,3.48,2.66,2.66,0,0,0,3.35-2l3-10.78a2.65,2.65,0,1,0-5.09-1.43Zm11.55,11.81,6.65-23.76a2.94,2.94,0,0,1,5.66,1.58l-6.66,23.76Z"/><path class="cls-23" d="M153.26,172.43c4.72-.78,7.15,2,7.7,5.3s-1,6.65-5.59,7.42L93.8,195.35c-4.64.77-7.13-1.86-7.68-5.22s.86-6.71,5.57-7.49l7.84-1.3-1.26-7.6c-.83-5,2.42-7.22,6.66-7.92s8,.39,8.85,5.35l1.26,7.6,14.87-2.47-1.26-7.59c-.83-5,2.42-7.22,6.66-7.92s8,.39,8.85,5.35l1.26,7.59Zm-47.8-9.33c-13,2.16-22.34-5.91-24.11-16.62L81,144.64c-1.77-10.72,4.43-21.35,17.47-23.51l28.38-4.71c13-2.16,22.42,5.9,24.2,16.61l.3,1.84c1.78,10.72-4.51,21.37-17.54,23.53Zm-7.55-19.28c.69,4.15,4.57,6.72,9.6,5.88l20.07-3.32c5-.84,8-4.53,7.27-8.68l-.33-2c-.69-4.16-4.64-6.71-9.68-5.88l-20.07,3.33c-5,.83-7.88,4.51-7.19,8.67Z"/><path class="cls-22" d="M170.2,170.08c-7-.41-9.52-3.1-9.11-10.06l.65-11c.41-7,3.25-9.21,10.21-8.8l10.64.62.49-8.4c0-.74-.14-1.56-1.35-1.63L168.28,130a4.81,4.81,0,1,1,.56-9.6l16.62,1c7.7.45,9.64,2.76,9.27,9.08l-1.19,20.42-17.71-1c-2-.12-2.62.31-2.73,2.26l-.37,6.27c-.11,1.95.49,2.45,2.45,2.56l17.07,1a4.73,4.73,0,1,1-.55,9.43Zm29.35,4.14,2.83-48.3a5.76,5.76,0,0,1,11.5.68l-2.83,48.29Z"/><path class="cls-24" d="M267.56,180.55c3.38-.28,4.94,1.84,5.14,4.2s-1.06,4.65-4.39,4.93l-44.2,3.66c-3.33.27-4.94-1.73-5.14-4.14s1-4.71,4.39-5l3.9-.32-1.36-16.42c-.29-3.56,1.85-4.89,4.89-5.14s5.38.76,5.67,4.27L237.82,183l4.65-.38-1.36-16.42c-.29-3.56,1.85-4.89,4.89-5.14s5.38.76,5.67,4.27L253,181.75ZM223.46,152a5,5,0,1,1-.82-9.87l35.07-2.91c6.78-.56,9.06,1.85,9.52,7.48l.53,6.31c.74,9,.09,15.83-1.1,19.57a6.61,6.61,0,0,1-8.4,4,4.55,4.55,0,0,1-2.72-5.67c1.2-4.32,1.52-9.54.93-16.72l-.29-3.44a1.35,1.35,0,0,0-1.55-1.32Z"/><path class="cls-25" d="M281.12,150.79c-3.86-.23-6.29-2.37-6.06-6.3.16-2.68,1.92-4.59,4.86-5.17,6.18-1.79,9.78-5.38,10.65-13.34l.27-2.13c.47-3.5,3.49-5.46,7.34-5.17s6.54,2.87,6.33,6.45l-.12,2a26.82,26.82,0,0,1-.4,3.43c10,1.27,15.88,8.59,14.65,21.44l-13.43-.78c.75-5.82-1.31-9.54-5.4-10.6C294.84,147.64,286.9,151.12,281.12,150.79ZM333.91,177c2.75.16,3.8,2.43,3.68,4.5a3.74,3.74,0,0,1-4.16,3.77l-46.62-2.71c-6.27-.36-9.41-4.62-9.13-9.44l.1-1.65c.27-4.68,3.83-7.66,10.1-7.29l34.77,2,.1-1.65c0-.83-.14-1.18-1-1.23l-38.77-2.25c-2.68-.16-3.67-2.15-3.55-4.22a3.79,3.79,0,0,1,4-3.84l45.66,2.65c6.05.35,8.09,2.26,7.78,7.57l-.65,11.15-42.35-2.45c-1-.06-1.48.46-1.52,1.15l0,.35c0,.62.42,1.19,1.38,1.25Zm3.4-23-13.77-.8,1.54-26.51c.25-4.47,3.63-6.63,7.28-6.42s6.75,2.75,6.49,7.22Z"/><circle class="cls-23" cx="154.69" cy="80.09" r="2.03"/><circle class="cls-23" cx="49.43" cy="132.63" r="2.03"/><circle class="cls-22" cx="60.18" cy="133.79" r="3.22"/><circle class="cls-22" cx="149.46" cy="77.88" r="1.34"/><circle class="cls-25" cx="44.5" cy="98.42" r="1.34"/><path class="cls-26" d="M300.36,101.6A4.44,4.44,0,0,0,295.52,99a1.41,1.41,0,0,1-1.48-.52,4.44,4.44,0,0,0-7.38,4.75,4.67,4.67,0,0,0,.82,1.25c.65.69.47.69.24,1.56a4.47,4.47,0,0,0,.22,2.94,4.73,4.73,0,0,0,5.85,2.28,3.88,3.88,0,0,0,2.47-2.51c.19-.65.3-.88,1-1.05a4.44,4.44,0,0,0,3.06-6.11Zm-1.95.4c1.07,2.49-1,3.71-1.9,4.12s-.75.25-1.12.25c-.14,1-.59,2.6-1.83,3.15s-4-1-4.51-2.16.38-2.06.81-2.84a3.36,3.36,0,0,1-1.07-1.28c-.42-.95-.94-2.12-.41-2.93a6.82,6.82,0,0,1,2.13-1.48c1.41-.62,2.94.53,3.67,1.84C295.67,100.06,297.34,99.5,298.41,102Z"/><path class="cls-27" d="M299.27,101.89a3.76,3.76,0,0,0-4.87-2,3.75,3.75,0,1,0-5.46,4.87,3.75,3.75,0,1,0,7,2.34,3.74,3.74,0,0,0,3.34-5.25Zm-1.07.49c.92,2.2-1,3.72-3,3.77a3.35,3.35,0,0,1-1.5,2.58,2.76,2.76,0,0,1-2.33.29,3.26,3.26,0,0,1-1.66-1.69c-.75-1.52,0-2.17.39-2.89-.39-.27-.5-.19-.91-1.12s-1.53-2.67.54-3.85a3.08,3.08,0,0,1,4.36,1.41C295.49,100.32,297.27,100.17,298.2,102.38Z"/><path class="cls-28" d="M292.11,101.47c-.22,0-.39-.5-.38-.79s.79-.32.78.07S292.33,101.49,292.11,101.47Z"/><path class="cls-28" d="M291.23,101.74c-.2.05-.67-.37-.85-.64s.45-.53.71-.16S291.42,101.7,291.23,101.74Z"/><path class="cls-28" d="M291,102.43c-.07.13-.81,0-1.22-.1-.57-.17-.32-.63.25-.46C290.45,102,291.08,102.31,291,102.43Z"/><path class="cls-28" d="M291.56,105.69c.06.21-.32.55-.58.66s-.6-.61-.24-.75S291.49,105.48,291.56,105.69Z"/><path class="cls-28" d="M292.15,106.4c.12.16-.09.76-.27,1s-.66-.21-.42-.59S292,106.24,292.15,106.4Z"/><path class="cls-28" d="M292.87,106.34c.15,0,.34.74.38,1.16.06.59-.47.54-.53,0C292.68,107,292.73,106.32,292.87,106.34Z"/><path class="cls-28" d="M295.83,104.06c.08-.2.6-.21.87-.12s.05.85-.32.72S295.74,104.26,295.83,104.06Z"/><path class="cls-28" d="M295.85,103.13c0-.2.56-.51.88-.6s.36.6-.08.72S295.83,103.33,295.85,103.13Z"/><path class="cls-28" d="M295.26,102.71c-.1-.11.24-.78.48-1.13s.71-.1.36.39S295.36,102.81,295.26,102.71Z"/><rect class="cls-29" y="273.5" width="400" height="26.55"/><polygon class="cls-30" points="169.9 259.96 165.68 274.99 209.35 274.99 210.07 260.56 169.9 259.96"/><path class="cls-22" d="M174.55,230s-5.44,30.59-5.38,30.71,41.48.87,41.48.87-4.86-27.72-6.35-32.64S174.55,230,174.55,230Z"/><path class="cls-22" d="M219.74,234.82a5.17,5.17,0,0,1-.46.66c-2-1.42-5.47-3.69-6.81-3.46s-6.43-1.39-7.87-1.08a17.22,17.22,0,0,1-1.53-2,49.78,49.78,0,0,1-4.14-8.44c-.11-.26-.22-.52-.32-.78a58.53,58.53,0,0,0-3.54-8.05c-2.65-4.07-9.17-9.18-5.5-8.88a74.47,74.47,0,0,1,8.55,1.36c10.92,3.42,14.8,13.77,18.11,22.51A63.85,63.85,0,0,0,219.74,234.82Z"/><path class="cls-22" d="M175.54,205.73c-2.84,3.1-9.75,10.44-14.21,17.57a23.5,23.5,0,0,0,2.19,1.36,20.41,20.41,0,0,0,3.31,1.28c2.25.72,4.55,1.27,6.83,1.86l4.59,1.22c7-7.44,19-17.92,19.52-20.31C199.15,202.82,181.77,198.91,175.54,205.73Z"/><path class="cls-22" d="M175.53,245c.94.8,7.13,6.4,14.38,6.4s13.44-5.6,14.38-6.4-1-19.61-1.1-23.17c-.07-4.61-6.16-15.6-9.11-17a8.32,8.32,0,0,0-8.34,0c-3,1.4-9,12.39-9.11,17C176.58,225.4,174.71,244.29,175.53,245Z"/><path class="cls-31" d="M203.44,229c.2,0,.41,0,.61.06a14.91,14.91,0,0,0-.1-2.32,30,30,0,0,0-1.82-6.92c-.28-1.36-.62-2.71-1-4,0-.12-.19-.07-.17,0,.12.71.25,1.43.39,2.15-.52-1.24-1.08-2.46-1.64-3.63,0-.09-.19,0-.16.07C201.17,218.8,203.66,224.08,203.44,229Z"/><path class="cls-32" d="M177.53,214.69c0-.1-.14-.14-.17-.05-.39,1.23-.78,2.51-1.14,3.82,0-.73.08-1.46.11-2.19,0-.11-.17-.14-.18,0-.16,1.37-.32,2.75-.41,4.14a30.53,30.53,0,0,0-.88,7.1c0,3.18,1.09,6.48,3.64,8.53.27.21.55-.19.32-.41C173,230.12,176.12,221.37,177.53,214.69Z"/><path class="cls-1" d="M184.39,190.94s.42,6.1.75,10.42c.07.95.14,1.82.2,2.52a5.4,5.4,0,0,0,1,.43,7.91,7.91,0,0,1,3.2,3.56c.15-1.14,3.11-3.57,4.11-3.87,0-.52.08-1.13.13-1.8.29-4.35.72-11,.72-11Z"/><path class="cls-33" d="M184.39,190.94s.42,6.1.75,10.42a9.58,9.58,0,0,0,8.68.84c.29-4.35.72-11,.72-11Z"/><path class="cls-1" d="M179.44,187.05s-2.64-5.07-4.91-4.19-.69,7.95,1.67,9.19a2.53,2.53,0,0,0,3.55-.91Z"/><path class="cls-32" d="M175,184.88s-.05,0,0,.06c1.65.93,2.35,2.66,2.78,4.42a1.41,1.41,0,0,0-2-.66c-.05,0,0,.11,0,.1a1.54,1.54,0,0,1,1.63.77,7,7,0,0,1,.64,1.48c.06.17.35.12.32-.07v0C178.7,188.73,177.38,185.41,175,184.88Z"/><path class="cls-1" d="M201.11,187.61s2.9-4.93,5.12-3.93.28,8-2.14,9.09a2.55,2.55,0,0,1-3.5-1.1Z"/><path class="cls-32" d="M205.62,185.66a0,0,0,0,1,0,.07c-1.69.84-2.48,2.53-3,4.26a1.4,1.4,0,0,1,2.06-.54s0,.1,0,.09a1.57,1.57,0,0,0-1.67.68,7.84,7.84,0,0,0-.72,1.45c-.07.17-.35.1-.31-.08v0C201.76,189.33,203.25,186.07,205.62,185.66Z"/><path class="cls-1" d="M203.61,186.14c-1.48,15-9.94,15-12.52,15.12-2.94.2-14.17-1.35-14.23-16.38s7.35-19.07,14.08-18.75S205.1,171.19,203.61,186.14Z"/><path class="cls-32" d="M186.2,184.53c-2-.12-2.06,4.28-.22,4.39S187.87,184.63,186.2,184.53Z"/><path class="cls-32" d="M195.41,184.65c2,.09,1.69,4.48-.16,4.4S193.74,184.58,195.41,184.65Z"/><path class="cls-32" d="M196.37,182.56c-.34-.07-.65-.2-1-.3a1.77,1.77,0,0,1-.95-.51.54.54,0,0,1,.06-.65,1.32,1.32,0,0,1,1.33-.19,2,2,0,0,1,1.16.8A.57.57,0,0,1,196.37,182.56Z"/><path class="cls-32" d="M184.9,182.35a9.29,9.29,0,0,0,1-.22,1.63,1.63,0,0,0,1-.41.53.53,0,0,0,0-.65,1.31,1.31,0,0,0-1.3-.32,2,2,0,0,0-1.23.69A.58.58,0,0,0,184.9,182.35Z"/><path class="cls-34" d="M181,244.91l23.08-53.17a1.89,1.89,0,0,1,2.12-.4c1.16.59.8,1.5.8,1.5L184.7,244.41Z"/><path class="cls-1" d="M173.12,230.8a108,108,0,0,0,13.73-3.4c2.13-.65,1.91-5.55-1.12-6-7.48-1.08-16.13-2.08-20.09,0-3.14,1.68-4.13,2.53-3.92,4.75C162.09,230,166,231.94,173.12,230.8Z"/><path class="cls-32" d="M193.52,193.52a7,7,0,0,1-3.87.71,5.74,5.74,0,0,1-3.29-1.58A11.64,11.64,0,0,0,193.52,193.52Z"/><path class="cls-32" d="M180.16,180a13.13,13.13,0,0,0-1.37,4.1,9.23,9.23,0,0,0-.21,2.22c0,.75.3,1.55.28,2.28-.53-.45-.77-1.54-1.06-2.16a19.45,19.45,0,0,1-1-3c-.44-1.61-.9-3.11-.2-4.73Z"/><path class="cls-1" d="M218.93,236.32l-.19.19a3.73,3.73,0,0,1-.61.52c-2.62,1.92-6.56.8-11.1-3.93a109,109,0,0,1-8.75-11.1,1.55,1.55,0,0,1-.26-.64c-.27-1.7,2.06-4.25,4.24-4a2.43,2.43,0,0,1,1,.31l.1,0c5.58,3.09,11.25,5.78,14.08,10a11.36,11.36,0,0,1,1.24,2.46C219.85,233.52,220.45,234.68,218.93,236.32Z"/><path class="cls-32" d="M176.48,181.8c-.75-2.17-.37-5.32.09-7.55a9.67,9.67,0,0,1,3.45-5.5c1.14-1.07,1.42-2.89,2.89-4.06a13.55,13.55,0,0,1,9.21-2.43c4.83.32,11,3,12.89,7.79,1.47,3.73.7,7.26.8,11a8,8,0,0,1-2.09-.81c-1.69-.7-3.43-1.05-5.18-1.58-3.82-1.16-8.45-2.3-10.78-5.84a9.88,9.88,0,0,1-4.2,6.36c-1.72,1.1-5.15,2.7-6.72.59Z"/><path class="cls-32" d="M200.59,178.22a25.85,25.85,0,0,1,1.74,5.88,10.37,10.37,0,0,1,.21,2.22c0,.75-.31,1.55-.29,2.28.54-.45.77-1.54,1.06-2.16a18.45,18.45,0,0,0,1-3c.44-1.61.9-3.11.2-4.73Z"/><path class="cls-32" d="M191.07,188.54a3.07,3.07,0,0,1,.59,3.53l-.68-.61c.64-.74.35-2-.08-2.8l.17-.12Z"/><path class="cls-1" d="M204,219.77a8,8,0,0,0-3.09-5.15h0s-2.29-1.86-2.9-2.23-4.07-1.25-4.35-.82a.61.61,0,0,0-.12.51c-.73-.12-1.33-.16-1.45,0-.28.44-.34.86,1.71,1.69.18.07.35.16.53.25-1.16-.24-3.79-.44-4,0s-.21.89,2,1.4a12.9,12.9,0,0,1,3.15,1.38,11.1,11.1,0,0,0-3.3-.92c-.83.27-.15,1.4,1,1.63A14.07,14.07,0,0,1,196,218.7l0,0c1.1,1.75,1.93,3.5,3.28,4.1C201.75,223.93,204.57,222.52,204,219.77Z"/><path class="cls-1" d="M185.6,222.25a8,8,0,0,1,5.75-1.75h0s3,.15,3.65.28,3.86,1.8,3.78,2.31a.59.59,0,0,1-.26.46c.62.4,1.1.78,1.07,1-.08.51-.32.87-2.4.11a4.58,4.58,0,0,0-.56-.17c1,.6,3.11,2.22,3,2.64s-.45.81-2.39-.26a12.64,12.64,0,0,0-3.26-1.09,11,11,0,0,1,3.07,1.53c.43.75-.83,1.14-1.82.56a13.76,13.76,0,0,0-2.93-1v0c-2,.57-3.78,1.31-5.19.85C184.52,226.88,183.37,223.94,185.6,222.25Z"/><g class="cls-35"><path class="cls-36" d="M202.72,221a10,10,0,0,0-2.47-1.92,2.32,2.32,0,0,0-3.14.82,2.36,2.36,0,0,0,.82,3.15l.27.19c-.22-.18-.26-.21-.13-.11l.43.39,2.79-3.61c-1.41-.94-2.7-2-4.15-2.94a35.77,35.77,0,0,0-4.48-2.31,2.47,2.47,0,0,0-1.77-.23,2.35,2.35,0,0,0-1.37,1.06,2.32,2.32,0,0,0,.82,3.14,35.77,35.77,0,0,1,4.48,2.31c1.45.89,2.74,2,4.15,2.94a2.3,2.3,0,0,0,2.78-3.61,11.53,11.53,0,0,0-1.5-1.19l-2.32,4a6.05,6.05,0,0,1,.55.32c.06,0,.55.43.29.19s.2.19.25.24.3.29.45.45a2.31,2.31,0,0,0,3.25,0,2.35,2.35,0,0,0,0-3.25Z"/><path class="cls-1" d="M199.78,224.6a1.38,1.38,0,0,0-.61-.56l-.9-.56-.46.79a11,11,0,0,1,1.45.74l.47-.79a46.42,46.42,0,0,1-4-2.76,11.64,11.64,0,0,0-4.44-1.75c-.58-.12-.83.76-.25.89a20.65,20.65,0,0,1,2.34.62,8.08,8.08,0,0,1,2,1.12,39.67,39.67,0,0,0,3.91,2.67.46.46,0,0,0,.47-.79,11.76,11.76,0,0,0-1.46-.74.46.46,0,0,0-.46.79l.62.39c.16.1.47.22.56.4.24.54,1,.07.79-.46Z"/></g><path class="cls-25" d="M233.42,260.51l8.08,4.95s.27,5.78,6.88,4.34c0,0,2.93,6.71,10,3.67,0,0,7.61,4.83,9.74-.18s-6.19-7-6.19-7a9.28,9.28,0,0,0-10.85-2.94s-4.19-5-8.8-1.16Z"/><path class="cls-37" d="M264.16,271.47q-3.77-1.56-7.58-3t-7.65-2.86c-2.55-.92-5.12-1.83-7.7-2.69s-5.18-1.69-7.81-2.39l1.94.65,1.92.67,3.84,1.37,7.67,2.78,7.68,2.77Q260.31,270.13,264.16,271.47Z"/><path class="cls-25" d="M233.38,260l7.19-6.16s-.64-5.75,6.11-5.37c0,0,1.84-7.09,9.31-5.2,0,0,6.75-6,9.65-1.37s-5,7.86-5,7.86a9.27,9.27,0,0,1-10.25,4.62s-3.34,5.62-8.51,2.53Z"/><path class="cls-37" d="M262,244.29c-2.39,1.29-4.78,2.58-7.16,3.9l-7.14,3.95-7.14,3.95-3.58,2-1.79,1-1.81.95c2.49-1.1,4.92-2.33,7.33-3.59s4.8-2.56,7.18-3.88,4.75-2.66,7.1-4S259.69,245.71,262,244.29Z"/><path class="cls-38" d="M231.92,260.49l12.73.8s3.37,6.84,10.59,1.62c0,0,7.08,6.55,14-.85,0,0,11.74,1.84,11.67-5.33s-11.15-5.16-11.15-5.16a12.21,12.21,0,0,0-14.64,2.16s-7.71-3.85-11.24,3.24Z"/><path class="cls-37" d="M273.52,255.55c-3.5,0-7,.23-10.48.49l-2.61.21-2.61.23-2.61.27-2.6.29c-1.74.2-3.47.44-5.21.67l-2.59.39-1.3.19-1.29.22c-3.45.55-6.88,1.26-10.29,2l1.3-.2,1.29-.22,1.29-.21,1.3-.19,2.58-.41,2.6-.37c3.45-.49,6.91-.95,10.38-1.35,1.73-.21,3.47-.39,5.2-.59l2.61-.27,2.6-.26,5.22-.48C270,255.82,271.78,255.69,273.52,255.55Z"/><path class="cls-39" d="M222.91,249.46l-.75.08c-7.94,1.09-8.48,8.86-10.2,10.59s-4.29,1.31-4.18,2.67,2.51.48,4.55,2c1.59,1.16,3,6.3,7.71,8.17a8.29,8.29,0,0,0,1.19.38,10.5,10.5,0,0,0,2.84.3c.24,0,.49,0,.75,0l.41,0a13,13,0,0,0,7.61-3.12,10.41,10.41,0,0,0,1.07-1.14,12.24,12.24,0,0,0,2.46-8.76c-.41-5.18-3.42-9.82-9.34-10.9-.38-.07-.77-.12-1.17-.16a17.73,17.73,0,0,0-2.54,0Z"/><path class="cls-37" d="M220.63,265.76l-1.15.09.56,7.09a8.29,8.29,0,0,0,1.19.38Z"/><path class="cls-37" d="M224.84,268.64l-1.16.1.39,4.88c.24,0,.49,0,.75,0l.41,0Z"/><path class="cls-37" d="M233.61,265.41l-1.16.09.39,4.93a10.41,10.41,0,0,0,1.07-1.14Z"/><path class="cls-40" d="M194.07,242.73H213.7a1.13,1.13,0,1,0,0-2.26H194.07a1.13,1.13,0,0,0,0,2.26Z"/><rect class="cls-41" x="199.58" y="238.98" width="17.46" height="5.24" rx="1.31" transform="translate(416.62 483.2) rotate(180)"/><path class="cls-14" d="M139.91,235.14s1.89,27.58,10.69,27.58h46.6c8.8,0,10.69-27.58,10.69-27.58Z"/><path class="cls-34" d="M135.31,242.73H155a1.13,1.13,0,0,0,0-2.26H135.31a1.13,1.13,0,0,0,0,2.26Z"/><rect class="cls-41" x="131.98" y="238.98" width="17.46" height="5.24" rx="1.31"/><polygon class="cls-34" points="139.76 270.91 143.31 264.65 204.48 264.65 208.04 270.91 210 269.8 205.8 262.39 142 262.39 137.8 269.8 139.76 270.91"/><polygon class="cls-34" points="150.96 270.76 153.33 264.65 194.47 264.65 196.84 270.76 198.94 269.95 196.02 262.39 151.78 262.39 148.85 269.95 150.96 270.76"/><path class="cls-12" d="M225.11,263.6c-16.46.36-33.35,1.06-33.35,1.06-1.77,2.73.22,5.66.22,5.66l33.36-.69,1.72,0,1.16,0,3.43-.07,1.16,0,6.85-.15,1.17,0L254.1,269c7.44-.17,33.37,9.7,33.37,9.7s2.5.52,2.94-4c0,0-10.35-3.54-20.23-6.62l25,5.27a4.24,4.24,0,0,0,1.16-3.94l-14.52-2.75,15.34.07s1-1.43-.18-4.47l-27.39.82,22.2-3.39a7,7,0,0,0-.66-4s-14.73,3.23-34.05,6.29l23.41-6.45a4.64,4.64,0,0,0-1.33-3.53s-23,9.79-38.58,11.16l-1.16.09-1.59.07h0l-5.26.06-1.16,0-3.43.06-1.16,0Z"/><path class="cls-24" d="M279.17,252.08s-23,9.79-38.58,11.16l.24,6.07L254.1,269c7.44-.17,33.37,9.7,33.37,9.7s2.5.52,2.94-4c0,0-10.35-3.54-20.23-6.62l25,5.27a4.24,4.24,0,0,0,1.16-3.94l-14.52-2.75,15.34.07s1-1.43-.18-4.47l-27.39.82,22.2-3.39a7,7,0,0,0-.66-4s-14.73,3.23-34.05,6.29l23.41-6.45A4.64,4.64,0,0,0,279.17,252.08Z"/><path class="cls-24" d="M232.57,263.46l.24,6,6.85-.15-.23-6-1.59.07h0Z"/><path class="cls-24" d="M228,263.54l.24,6,3.43-.07-.24-6Z"/><path class="cls-24" d="M225.11,263.6l.23,6,1.72,0-.24-6Z"/><rect class="cls-13" x="102.43" y="269.19" width="173.33" height="7.28" rx="3.14" transform="translate(378.18 545.66) rotate(-180)"/><path class="cls-42" d="M95.25,276.21a10.29,10.29,0,1,0,5.36-13.53A10.29,10.29,0,0,0,95.25,276.21Z"/><circle class="cls-43" cx="104.69" cy="272.13" r="8.64" transform="translate(-107.43 72.08) rotate(-25.63)"/><path class="cls-44" d="M103.56,272.62a1.23,1.23,0,1,0,.64-1.63A1.23,1.23,0,0,0,103.56,272.62Z"/><path class="cls-44" d="M96.73,275.57a8.67,8.67,0,1,0,4.52-11.41A8.67,8.67,0,0,0,96.73,275.57Zm.74-.32a7.87,7.87,0,1,1,10.34,4.1A7.87,7.87,0,0,1,97.47,275.25Z"/><polygon class="cls-44" points="102.09 264.47 104.46 271.3 104.2 271.42 101.1 264.74 102.09 264.47"/><polygon class="cls-44" points="108.53 279.36 105.16 272.9 104.89 273.02 107.65 279.89 108.53 279.36"/><polygon class="cls-44" points="97.19 274.87 104.03 272.49 104.14 272.76 97.47 275.86 97.19 274.87"/><polygon class="cls-44" points="112.08 268.43 105.63 271.8 105.74 272.07 112.31 269.39 112.08 268.43"/><polygon class="cls-44" points="101.1 279.38 104.35 272.92 104.62 273.03 101.98 279.9 101.1 279.38"/><polygon class="cls-44" points="107.3 264.39 105.02 271.31 105.28 271.42 108.3 264.65 107.3 264.39"/><polygon class="cls-44" points="97.37 268.51 103.83 271.76 103.72 272.03 96.85 269.39 97.37 268.51"/><polygon class="cls-44" points="112.36 274.71 105.44 272.43 105.33 272.7 112.1 275.71 112.36 274.71"/><path class="cls-45" d="M77.21,277.25,75.44,273a27.53,27.53,0,0,1,9.63.73h0l.09,0,.76.25c.46.12.94.17,1-.14a1.39,1.39,0,0,0-.43-.91,12.23,12.23,0,0,0-10-2.41l1.41-4.62s6.8.54,11.55,4.17l.11.06c1.15.63,1.51-.05,1.62-.56,0-2.37.27-7.28,3.08-10.48,4.42-5,3.12,4,3.12,4s-6.45,6.29,4.55,18.53a11.25,11.25,0,0,1-7.53,5.62S88.66,272.86,77.21,277.25Z"/><path d="M89.18,259.83V260A.49.49,0,0,1,89.18,259.83Z"/><g class="cls-46"><path d="M81.33,276.42l-.29-1a15,15,0,0,1,11,4.84c4.38,4.69,6.71,4.52,7.18,4.59a11.37,11.37,0,0,1-4.89,2.41S90,276.31,81.33,276.42Z"/></g><path class="cls-47" d="M69.46,277.93a8.14,8.14,0,0,1-.39-6.18c-.91-.77-4.08-3.8-3-7.64a6.75,6.75,0,0,1,3.36-4.36,4.37,4.37,0,0,1,3.18-.69,5.43,5.43,0,0,1,1.7-4.55,7.19,7.19,0,0,1,2.82-1.83l.22-.07.17,0a5.26,5.26,0,0,1,1.08-.17h.14a7.08,7.08,0,0,1,3.46.93s1.77-4.55,6.58-3.86c4.47.64,5.16,3.79,5.16,3.79a6.46,6.46,0,0,1,5.32,1.65c2.11,2.19,2.73,7.46-2.82,9.77-3.17,1.32-5.6-1.3-5.6-1.3s0,3-2.18,3.07a3.84,3.84,0,0,1-3.23-1.72s1.65,2.79-.69,4.59a3,3,0,0,1-3.88.29c.33.31,1,1.27-.69,2.86,0,0,2.41,2,.58,6.15S71.52,282.17,69.46,277.93Z"/><path class="cls-48" d="M69.28,277.31c2.2,2.57,5.79,3.3,7.94.34,2.74-3.78-1-6.4-1-6.4a3.72,3.72,0,0,0,2.63-1.39c1.4-1.45-.27-3.35-.27-3.35a2.85,2.85,0,0,0,3.19-.32C83.4,265,83,262.63,83,262.63c5.59,2.29,6.16-1.69,6.22-2.61.07.38,1,2.71,5,2.85,4.84.17,6.37-5,6.37-5l.14.12c.37,2.37.09,5.49-3.59,7a6.59,6.59,0,0,1-5.86-.49,2.68,2.68,0,0,1-2.59,2,3.84,3.84,0,0,1-3.23-1.72s1.65,2.79-.69,4.59a3,3,0,0,1-3.88.29c.33.31,1,1.27-.69,2.86a5.3,5.3,0,0,1,.64,6.68c-2.76,4.42-9.25,3-11.31-1.22-.09-.18-.16-.37-.23-.55Z"/></g></g></g></g></svg>