<svg xmlns="http://www.w3.org/2000/svg" viewBox="0 0 400.01 300"><defs><style>.cls-1{fill:none;}.cls-2{fill:#a6c46a;}.cls-3{fill:#267707;}.cls-4{fill:#a3ea59;}.cls-5{fill:#fa9778;}.cls-6{fill:#bddbf2;}.cls-7{fill:#004b80;}.cls-8{fill:#290920;}.cls-9{fill:#42a3e8;}.cls-10{fill:#613b2e;}.cls-11{fill:#ffb41b;}.cls-12{fill:#fcaeb4;}.cls-13{fill:#362119;}.cls-14{fill:#fa7c55;}.cls-15{fill:#498d11;}.cls-16{fill:#93c46a;}.cls-17{fill:#efd4bd;}.cls-18{fill:#e5c1a3;}.cls-19{fill:#ff6168;}.cls-20{fill:#f9c569;}</style></defs><g id="Layer_2" data-name="Layer 2"><g id="Layer_3" data-name="Layer 3"><g id="evt_garden"><rect class="cls-1" width="400" height="300"/><rect class="cls-2" x="0.01" y="273.52" width="400" height="26.48"/><polygon class="cls-3" points="136.47 120.49 176.48 120.49 176.48 112.53 161.26 112.53 161.26 106.33 151.68 106.33 151.68 112.53 136.47 112.53 136.47 120.49"/><path class="cls-3" d="M160.33,94.77c.14-.56.28-1.11.47-1.71s.18-1.11.27-1.76h14.06v-8H161.26V79.69h-9.58v3.65H137.81v8h13.6a11.41,11.41,0,0,1-4.58,6.89c-2.5,1.85-6.2,3.19-11,4.07l3.93,7.45a41.92,41.92,0,0,0,9.62-3.29A24.34,24.34,0,0,0,156,101.8l16.52,7.45,4.72-7.08Z"/><polygon class="cls-3" points="205.71 99.76 218.66 99.76 218.66 94.63 193.22 94.63 193.22 93.33 218.2 93.33 218.2 81.77 183.65 81.77 183.65 86.9 208.62 86.9 208.62 88.2 183.65 88.2 183.65 99.76 196.13 99.76 196.13 101.52 180.92 101.52 180.92 109.01 220.93 109.01 220.93 101.52 205.71 101.52 205.71 99.76"/><polygon class="cls-3" points="209.09 121.41 218.66 121.41 218.66 110.54 183.18 110.54 183.18 117.99 209.09 117.99 209.09 121.41"/><path class="cls-3" d="M260.89,97.5l3.33-6.62-14.15-4.62a13,13,0,0,0,.55-1.9,14.29,14.29,0,0,0,.19-2V80.89h-9.62v1.39a4.73,4.73,0,0,1-.84,2.73,7.76,7.76,0,0,1-2.68,2.26,20.55,20.55,0,0,1-4.72,1.9,55.08,55.08,0,0,1-6.89,1.57l3,6.76a57.73,57.73,0,0,0,9-2.08,27.19,27.19,0,0,0,6.84-3.15Z"/><polygon class="cls-3" points="250.11 95.23 240.54 95.23 240.54 99.44 225.32 99.44 225.32 107.39 265.33 107.39 265.33 99.44 250.11 99.44 250.11 95.23"/><polygon class="cls-3" points="237.16 109.15 227.59 109.15 227.59 121.41 263.53 121.41 263.53 113.5 237.16 113.5 237.16 109.15"/><path class="cls-3" d="M129.43,146.42l4-.93v17.86H143V133.47h-9.58v4.11l-4.11.93a10.75,10.75,0,0,0-2-2.27,13,13,0,0,0-2.87-1.52,25.84,25.84,0,0,0-3.52-.93,29.78,29.78,0,0,0-4.07-.28,27.16,27.16,0,0,0-5.27.51,13.66,13.66,0,0,0-4.26,1.62,8.27,8.27,0,0,0-2.82,2.82,7.78,7.78,0,0,0-1.06,4.17,7.25,7.25,0,0,0,1.06,4.11,7.86,7.86,0,0,0,2.82,2.82,12.53,12.53,0,0,0,4.26,1.62,23.75,23.75,0,0,0,5.27.51,22.22,22.22,0,0,0,7.77-1.25A8.55,8.55,0,0,0,129.43,146.42Zm-9.52-1.9a6.77,6.77,0,0,1-3.06.6,6.92,6.92,0,0,1-3-.55,2,2,0,0,1-1.25-1.94,2.07,2.07,0,0,1,1.25-1.95,6.89,6.89,0,0,1,3-.6,7.51,7.51,0,0,1,3.06.6,2.06,2.06,0,0,1,1.24,1.95A1.9,1.9,0,0,1,119.91,144.52Z"/><polygon class="cls-3" points="114.49 163.9 121.76 163.9 121.76 160.34 131.61 160.34 131.61 153.31 102.75 153.31 102.75 160.34 112.18 160.34 112.18 162.19 104.92 162.19 104.92 173.53 143.45 173.53 143.45 165.62 114.49 165.62 114.49 163.9"/><rect class="cls-3" x="245.63" y="133.47" width="9.02" height="39.13"/><path class="cls-3" d="M225,154.14c.05-1,.1-2,.1-3.14v-6.34h7.12v-7.95h-7.12v-4.07h-9v4.07h-6.34v7.95h6.34V151a31.44,31.44,0,0,1-.37,5,13.38,13.38,0,0,1-1.29,3.89,10.48,10.48,0,0,1-2.45,3,15.68,15.68,0,0,1-4,2.27l4.11,7a21.56,21.56,0,0,0,5.65-2.77,17.59,17.59,0,0,0,3.74-3.93l6.34,6.7,5.41-6.61-8.69-8.23C224.81,156.23,225,155.21,225,154.14Z"/><polygon class="cls-3" points="229.07 157.47 234.66 155.58 234.66 172.6 243.64 172.6 243.64 133.47 234.66 133.47 234.66 146.84 229.07 148.73 229.07 157.47"/><polygon class="cls-3" points="276.48 131.71 266.9 131.71 266.9 134.85 258.39 134.85 258.39 141.89 284.99 141.89 284.99 134.85 276.48 134.85 276.48 131.71"/><path class="cls-3" d="M298.4,159H261.86v14.57H298.4Zm-9.57,8.28H271.44v-2h17.39Z"/><path class="cls-3" d="M277.17,143.64a31.11,31.11,0,0,0-5.46-.46,26.63,26.63,0,0,0-5.55.51,12.79,12.79,0,0,0-3.79,1.43,5.63,5.63,0,0,0-2.13,2.32,6.48,6.48,0,0,0-.69,3,6,6,0,0,0,2.82,5.27c1.85,1.3,5,1.94,9.34,1.94a19.82,19.82,0,0,0,8.1-1.29,6.48,6.48,0,0,0,3.65-3.52l5.37-1.15v5.69h9.57V133.47h-9.57v9.9l-7.91,1.71A14.18,14.18,0,0,0,277.17,143.64Zm-3.28,8.14a3.81,3.81,0,0,1-2.18.51,3.43,3.43,0,0,1-2.12-.51,1.47,1.47,0,0,1-.79-1.38,1.57,1.57,0,0,1,.79-1.39,4.22,4.22,0,0,1,2.12-.46,4.64,4.64,0,0,1,2.13.46,1.57,1.57,0,0,1,.79,1.39A1.51,1.51,0,0,1,273.89,151.78Z"/><polygon class="cls-4" points="182.02 181.54 182.02 181.54 182.02 181.54 182.02 181.54"/><path class="cls-4" d="M115.36,179v1h-1.53v-.67h-.93v1h-1.7v-1h-.93v3.35h3.56v-.58h1.53v.82h.93V179Zm-2.46,2.95h-1.7V181h1.7Zm2.46-.56h-1.53v-.67h1.53Z"/><path class="cls-4" d="M109.27,181.31h-.53l.26-1.57h-.83l-.26,1.57H106.6l.26-1.57H106l-.25,1.57h-.86l-.13.83h.85l-.21,1.29h-.86l-.14.83h.86l-.26,1.57h.84l.25-1.57h1.32l-.26,1.57H108l.26-1.57h.86l.14-.83h-.86l.21-1.29h.86l.14-.83Zm-1.71,2.12h-1.31l.21-1.29h1.31Z"/><path class="cls-4" d="M121.29,184.89v-1.66h2.23v-3.67h-5.38v3.67h2.23v1.66h-3v.76h6.95v-.76Zm-2.24-2.39v-2.19h3.55v2.19Z"/><polygon class="cls-4" points="116.37 185.75 112.22 185.75 112.22 185.17 116.29 185.17 116.29 183.21 111.28 183.21 111.28 183.95 115.36 183.95 115.36 184.48 111.28 184.48 111.28 186.49 116.37 186.49 116.54 186.49 116.54 185.75 116.37 185.75"/><path class="cls-4" d="M130.25,184.42a4.91,4.91,0,0,0-2-.31,5,5,0,0,0-2,.31,1,1,0,0,0,0,1.84,5,5,0,0,0,2,.31,4.91,4.91,0,0,0,2-.31,1,1,0,0,0,0-1.84Zm-.69,1.33a4.29,4.29,0,0,1-1.23.13h-.1a4.4,4.4,0,0,1-1.25-.13c-.29-.09-.43-.22-.43-.41s.14-.31.43-.4a5.13,5.13,0,0,1,1.3-.13,5,5,0,0,1,1.28.13c.29.09.44.22.44.4S129.85,185.66,129.56,185.75Z"/><polygon class="cls-4" points="131.77 182.97 128.75 182.97 128.75 182.41 131.06 182.41 131.06 181.69 126.62 181.69 126.62 181.12 130.91 181.12 130.91 179.16 125.67 179.16 125.67 179.89 129.97 179.89 129.97 180.44 125.7 180.44 125.7 182.41 127.83 182.41 127.83 182.97 124.81 182.97 124.81 183.71 131.77 183.71 131.77 182.97"/><path class="cls-4" d="M151.15,183.56a17.22,17.22,0,0,1-3.24.34v-4.2H147v1.1h0v3.88h.64a18.69,18.69,0,0,0,3.63-.33Z"/><polygon class="cls-4" points="146.99 180.8 146.99 180.83 146.99 180.8 146.99 180.8"/><path class="cls-4" d="M146,182.13h.26l.15-.83h-.86l.25-1.57H145l-.26,1.57H143.4l.25-1.57h-.83l-.26,1.57h-.85l-.14.83h.85l-.21,1.29h-.85l-.14.83h.86l-.26,1.57h.83l.26-1.57h1.31l-.25,1.57h.82l.26-1.57h.86l.08-.48,0-.35h-.85l.21-1.29Zm-1.63,1.29h-1.31l.21-1.29h1.31Z"/><polygon class="cls-4" points="156.23 183.98 155.3 183.98 155.3 186.42 160.47 186.42 160.47 185.66 156.23 185.66 156.23 183.98"/><path class="cls-4" d="M154.43,179.62v3.59H158v-3.59Zm2.68,2.85h-1.76v-2.1h1.76Z"/><polygon class="cls-4" points="153.43 181.9 152.68 181.9 152.68 178.96 151.74 178.96 151.74 186.56 152.68 186.56 152.68 182.67 153.43 182.67 153.81 182.67 153.81 181.9 153.43 181.9"/><rect class="cls-4" x="167.02" y="178.96" width="0.93" height="7.62"/><path class="cls-4" d="M161.65,184.22l.12.77c.94,0,1.81,0,2.58-.06a15.75,15.75,0,0,0,2.29-.28l-.07-.68c-.73.11-1.5.17-2.31.21S162.58,184.22,161.65,184.22Z"/><path class="cls-4" d="M165.9,180.38a1.89,1.89,0,0,0-.74-.66,2.46,2.46,0,0,0-1.06-.23h0a2.37,2.37,0,0,0-1,.23,1.86,1.86,0,0,0-.75.66s0,.05,0,.08a1.76,1.76,0,0,0,0,1.74s0,.06,0,.08a1.86,1.86,0,0,0,.75.66,2.43,2.43,0,0,0,1.06.23,2.52,2.52,0,0,0,1.08-.23,1.89,1.89,0,0,0,.74-.66,1.66,1.66,0,0,0,.28-.95A1.63,1.63,0,0,0,165.9,180.38Zm-.79,1.49a.93.93,0,0,1-.42.36,1.48,1.48,0,0,1-.61.13,1.38,1.38,0,0,1-.59-.13.93.93,0,0,1-.42-.36,1,1,0,0,1,0-1.08.93.93,0,0,1,.42-.36,1.25,1.25,0,0,1,.59-.13,1.33,1.33,0,0,1,.61.13.93.93,0,0,1,.42.36,1,1,0,0,1,0,1.08Z"/><polygon class="cls-4" points="161.01 181.19 160.17 181.19 160.17 178.96 159.24 178.96 159.24 184.52 160.17 184.52 160.17 181.98 161.09 181.98 161.23 181.98 161.23 181.19 161.01 181.19"/><polygon class="cls-4" points="172.05 184.65 176.18 184.65 176.18 186.57 177.12 186.57 177.12 183.9 172.05 183.9 172.05 184.65"/><polygon class="cls-4" points="177.12 178.96 176.18 178.96 176.18 183.55 177.12 183.55 177.12 181.65 178.18 181.65 178.18 180.87 177.12 180.87 177.12 178.96"/><path class="cls-4" d="M173.38,181.7a3,3,0,0,0,.71,1,3,3,0,0,0,1.08.61l.47-.72a2.89,2.89,0,0,1-1-.54,2.34,2.34,0,0,1-.62-.8,2.24,2.24,0,0,1-.2-.92v-.09h1.58v-.75h-4.13v.75h1.61v.09a2.3,2.3,0,0,1-.22,1,2.51,2.51,0,0,1-.63.84,3,3,0,0,1-1,.56l.5.73a3.14,3.14,0,0,0,1.12-.66A3,3,0,0,0,173.38,181.7Z"/><polygon class="cls-4" points="175.68 183.4 175.68 183.4 175.68 183.4 175.68 183.4"/><path class="cls-4" d="M180.58,182.12a5.15,5.15,0,0,0,1.44.18,5.27,5.27,0,0,0,1.45-.18,2.22,2.22,0,0,0,.95-.54,1.16,1.16,0,0,0,0-1.66,2.21,2.21,0,0,0-.95-.53,5.27,5.27,0,0,0-1.45-.18,5.15,5.15,0,0,0-1.44.18,2.19,2.19,0,0,0-1,.53,1.18,1.18,0,0,0,0,1.66A2.2,2.2,0,0,0,180.58,182.12Zm.14-2a3.47,3.47,0,0,1,1.3-.2,3.3,3.3,0,0,1,1.31.2c.31.14.47.33.47.59a.66.66,0,0,1-.47.59,3.17,3.17,0,0,1-1.24.2H182a4.06,4.06,0,0,1-.91-.09,1.5,1.5,0,0,1-.61-.27.51.51,0,0,1-.2-.43C180.25,180.5,180.41,180.3,180.72,180.16Z"/><rect class="cls-4" x="178.56" y="182.89" width="6.94" height="0.75"/><polygon class="cls-4" points="180.36 184.21 179.42 184.21 179.42 186.42 184.72 186.42 184.72 185.66 180.36 185.66 180.36 184.21"/><path class="cls-4" d="M190.85,184.41v-.68a1.87,1.87,0,0,0,.73-.26,1.41,1.41,0,0,0,.49-.48,1.24,1.24,0,0,0,.17-.63,1.2,1.2,0,0,0-.24-.75,1.55,1.55,0,0,0-.66-.51,2.37,2.37,0,0,0-1-.18,2.42,2.42,0,0,0-1,.18,1.55,1.55,0,0,0-.66.51,1.19,1.19,0,0,0-.22.75,1.14,1.14,0,0,0,.16.63,1.38,1.38,0,0,0,.48.48,2.06,2.06,0,0,0,.72.26v.71l-1.94,0,.13.77c.89,0,1.71,0,2.47,0a17.72,17.72,0,0,0,2.22-.26l-.06-.68C192.21,184.31,191.58,184.37,190.85,184.41Zm-.42-1.36h-.08a1.12,1.12,0,0,1-.66-.18.6.6,0,0,1-.26-.51.6.6,0,0,1,.26-.52,1.21,1.21,0,0,1,.7-.2,1.18,1.18,0,0,1,.69.2.59.59,0,0,1,.26.52.59.59,0,0,1-.26.51A1.07,1.07,0,0,1,190.43,183.05Z"/><polygon class="cls-4" points="192.65 179.84 190.85 179.84 190.85 179 189.91 179 189.91 179.84 188.11 179.84 188.11 180.58 192.65 180.58 192.65 179.84"/><polygon class="cls-4" points="197.27 184.32 196.34 184.32 196.34 186.42 201.69 186.42 201.69 185.66 197.27 185.66 197.27 184.32"/><path class="cls-4" d="M201.54,179.21h-.92v.86h-3.28v-.86h-.93v3.09h5.13Zm-.92,2.35h-3.28v-.8h3.28Z"/><polygon class="cls-4" points="196.15 182.9 195.65 182.9 195.5 182.9 195.5 183.39 195.5 183.65 196.15 183.65 198.59 183.65 198.59 184.97 199.52 184.97 199.52 183.65 202.45 183.65 202.45 182.9 196.15 182.9"/><polygon class="cls-4" points="194.5 182.1 194.08 182.1 194.08 178.96 193.13 178.96 193.13 186.57 194.08 186.57 194.08 182.88 194.5 182.88 195 182.88 195.15 182.88 195.15 182.4 195.15 182.1 194.5 182.1"/><path class="cls-3" d="M198.72,73a1.41,1.41,0,0,1-1.41-1.41V66.84l-.48,0a4.32,4.32,0,0,1-2.8-1c-1.74-1.4-2.57-4.28-2.92-5.87a1.43,1.43,0,0,1,1.39-1.73c1.64,0,4.63.23,6.36,1.63A4.28,4.28,0,0,1,200,61.38a4.16,4.16,0,0,1,1.15-1.45c1.73-1.4,4.72-1.62,6.35-1.63a1.43,1.43,0,0,1,1.11.53,1.41,1.41,0,0,1,.28,1.2c-.34,1.59-1.18,4.47-2.91,5.87a4.32,4.32,0,0,1-2.8,1h0l-.48,0v4.73A1.41,1.41,0,0,1,201.3,73Z"/><path class="cls-5" d="M266.11,284.87c-.23,2.37-.49,4.85-.8,7.46h-4.14s-.33-2.84-.87-7.45Z"/><path class="cls-6" d="M261.22,292.3l-5.7,2.62,0,.8h8.77a1.21,1.21,0,0,0,1.19-1.25l-.1-2.17Z"/><path class="cls-7" d="M266.19,288.45h-6.05l-6.45-58.9.51-29.1h14c1,1.28,2.94,5,2.21,13.86-1,11.67-2.46,35.29-2.46,35.29S268.44,275.46,266.19,288.45Z"/><path class="cls-5" d="M254.09,284.87c-.18,2.36-.39,4.83-.65,7.43l-4.07.06s-.34-2.86-.88-7.49Z"/><path class="cls-6" d="M249.41,292.3l-5.7,2.62,0,.8h8.76a1.21,1.21,0,0,0,1.19-1.25l-.1-2.17Z"/><path class="cls-7" d="M254.29,288.44h-5.73l-5.77-48.63s-4.6-28.93-.67-39.38h12.09l-.08,29.36,1.12,6.27-.79,12.72S256.73,279.89,254.29,288.44Z"/><rect class="cls-5" x="247.12" y="162.21" width="5.59" height="7.41" transform="translate(519.19 298.11) rotate(172.57)"/><path class="cls-8" d="M246.87,164.15l.3,2.33a5.66,5.66,0,0,0,4.34-2.72"/><path class="cls-5" d="M254.46,170.25a9.3,9.3,0,0,1-5.48,2.14,7.16,7.16,0,0,1-5.63-1.82,8.26,8.26,0,0,0,4.33-3.23l2.45-.9v-.11l.23,0,.23-.08,0,.11,2.14.11a8.78,8.78,0,0,0,3.86,1.43A13.32,13.32,0,0,1,254.46,170.25Z"/><path class="cls-6" d="M253.46,166.89s-3.09,4.92-6.88,1.57a25.59,25.59,0,0,1-5.75,2.74,7.9,7.9,0,0,0-1.74,5.45c.3,3.09,3.33,26.42,3.33,26.42L268,200.72a.7.7,0,0,0,.63-.82l-4.58-27.21s-2.22-4.14-4-4.62S256.64,168.5,253.46,166.89Z"/><path class="cls-8" d="M254.07,167.37c-1.33,2.73-4.88,4.37-7.26,1.88,2.7,1.86,5.41.41,7.26-1.88Z"/><path class="cls-9" d="M254.34,167.17l2.12,13.24-10.59,1.5.71-13.45-2.5,1.23-1.28,18.76s-3.89,44.14-.88,58.78c0,0,12.28,1.57,22.61,0l.26-47.18,4-.57-.74-3.49-4.36.13-7.36-28.44Z"/><path class="cls-8" d="M263.62,245.71c-7,1.17-14.57,2.23-21.46,0,7,1.68,14.36.61,21.46,0Z"/><path class="cls-5" d="M221.25,191.57q1-1.33,1.92-2.61a114.39,114.39,0,0,1,15-16.3,8.17,8.17,0,0,1,4.19-1.93.61.61,0,0,1,0,.14l-.49.11c-2.58.49-2.7,5.76-2.17,11.43a173.81,173.81,0,0,0-11.6,13c4.63,5.84,8.16,9.75,8.85,10.5l0,0,.09.09-2.19,2.39h0a63.2,63.2,0,0,1-10.72-8c-.78-.71-1.54-1.43-2.29-2.17A5.13,5.13,0,0,1,221.25,191.57Z"/><path class="cls-10" d="M234.5,208s1.37,2.45,2,2.5,6.28-1.84,7.37-3.86l-4,1.21-3-2-2,2.39Z"/><path class="cls-11" d="M231.86,199s-4.14,4.31-4.32,5l7,4.84s1.4,2.05,2.05,2.13,6.75-1.91,7.75-4.35l-4.4.91Z"/><path class="cls-6" d="M242.62,170.56a10.38,10.38,0,0,0-4.49,1.78c-1.91,1.47-13.07,13.59-13.07,13.59l7.38,5,9.09-10.13Z"/><path class="cls-12" d="M244.16,182.6c1.49,1.77,7.53,9.2,10.86,17.14a.61.61,0,0,1-.2.73c-2,1.5-11.83,8.37-22.66,9.07a.61.61,0,0,1-.63-.47c-.7-2.88-4.17-17.61-3.84-24.67a.61.61,0,0,1,.73-.57c2.28.44,9.8,1.56,15-1.37A.61.61,0,0,1,244.16,182.6Z"/><polygon class="cls-12" points="212.86 189.3 235.56 204.81 232.29 209.05 211.53 191.02 212.86 189.3"/><path class="cls-12" d="M245.55,184.81l.61-.43c.21-.13.41-.28.63-.41a10.45,10.45,0,0,1,1.28-.67,4.23,4.23,0,0,1,2.41-.42,2.44,2.44,0,0,1,.53.14l.19.09.21.14a5,5,0,0,1,.88.94,10.6,10.6,0,0,1,.78,1.22c.23.43.46.87.66,1.34a17.76,17.76,0,0,1,1,2.86,14.37,14.37,0,0,1,.42,3c0,.25,0,.49,0,.74a6.15,6.15,0,0,1-.06.73,5.81,5.81,0,0,1-.11.71,5.38,5.38,0,0,1-.18.69,5.63,5.63,0,0,1-.58,1.27,5.38,5.38,0,0,1-.9,1.07l.76,1,.37-.26c.06,0,.13-.09.18-.14l.17-.15.34-.32.3-.35a6.35,6.35,0,0,0,.94-1.56,9.71,9.71,0,0,0,.74-3.45,15.18,15.18,0,0,0-.27-3.44,17.21,17.21,0,0,0-1-3.29,14,14,0,0,0-1.66-3.09,6.9,6.9,0,0,0-1.32-1.4c-.14-.11-.3-.21-.46-.32a4.49,4.49,0,0,0-.54-.26,5.11,5.11,0,0,0-1-.27,5.2,5.2,0,0,0-2.05.15,6.5,6.5,0,0,0-1.73.79,8.47,8.47,0,0,0-1.39,1.13c-.2.21-.4.42-.58.65a5.92,5.92,0,0,0-.52.73Z"/><path class="cls-8" d="M244.24,184.14c-4.57,2.37-10.62,3.88-15.31,1,4.9,2.27,10.5.78,15.31-1Z"/><path class="cls-8" d="M254,199.46c-6.37,4.6-13.81,8.47-21.78,9,7.89-1.06,15.09-4.83,21.78-9Z"/><path class="cls-6" d="M256.94,169.07l-.06-.53c.25-.14.52-.28.82-.42,2.62-1.14,8.2,2.55,10.69,4.94l7.31,7,0,0c-.4.45-3.85,4.14-6.72,4.69l-.26,0s-5.6-4.53-9.59-8.11A54.87,54.87,0,0,0,256.94,169.07Z"/><path class="cls-5" d="M255.77,187.27a72.6,72.6,0,0,0,21.64,6.22h.1a4.33,4.33,0,0,0,3.89-7.08l-.07-.09c-1.92-2.26-3.83-4.33-5.67-6.21-.4.45-3.85,4.14-6.72,4.69l.82.79c-8.35-.72-13.94-1.63-13.94-1.63Z"/><path class="cls-13" d="M255.82,184s-3.92-1.43-4.66-.85a.48.48,0,0,0,.4.69s-.58.41.08.78c0,0-.63.37,0,1.06a1.47,1.47,0,0,0,.53,1.2l2.16.4,1.85.2Z"/><path class="cls-11" d="M265.36,185l.91,6.58s-8.36-2.7-10.19-3.92c0,0-4.69.22-4.6-1.74a1.1,1.1,0,0,1-.28-1.09.87.87,0,0,1,0-.94s-.63-.52-.34-.87,3.26-.56,5,.83Z"/><path class="cls-8" d="M274.52,186.82c-1.64-.25-3.24-.64-4.84-1l.15-.38c1.49.82,3,1.62,4.42,2.58-6.09-2.6-6.58-3.54.27-1.18Z"/><polygon class="cls-8" points="265.7 182.37 262.09 178.21 266.12 184.84 265.7 182.37"/><path class="cls-5" d="M244.28,152.33a5,5,0,0,1,9,2.43l.15,1.15h.09A1.59,1.59,0,0,1,255,157.6a3,3,0,0,1-1.14,2,5.06,5.06,0,0,1-9.5,2.28,5.26,5.26,0,0,1-.56-1.76l-.54-4.08A5,5,0,0,1,244.28,152.33Z"/><path class="cls-8" d="M254.06,156.92a1.33,1.33,0,0,0-.52.06,1.37,1.37,0,0,0-.47.26,1.15,1.15,0,0,0-.3.45,1,1,0,0,0,0,.53,2.1,2.1,0,0,1,.18-.46,1.39,1.39,0,0,1,.29-.35A3.71,3.71,0,0,1,254.06,156.92Z"/><path class="cls-8" d="M253.64,158.69a.92.92,0,0,0,.11-.39.86.86,0,0,0-.05-.42.68.68,0,0,0-.26-.34.66.66,0,0,0-.4-.13,1.68,1.68,0,0,1,.27.26,1.22,1.22,0,0,1,.17.29A4.65,4.65,0,0,1,253.64,158.69Z"/><path class="cls-8" d="M248.89,160.05a4.65,4.65,0,0,1-.56.34,2.13,2.13,0,0,1-.58.21,1.47,1.47,0,0,1-.59,0,3,3,0,0,1-.61-.23,1.15,1.15,0,0,0,.53.44,1.12,1.12,0,0,0,.72.09A1.57,1.57,0,0,0,248.89,160.05Z"/><path class="cls-8" d="M247,157a4.82,4.82,0,0,0,0,.76,1.2,1.2,0,0,1-.12.68c0,.1-.12.21-.17.33a.6.6,0,0,0-.07.44.69.69,0,0,0,.68.39c-.23-.08-.47-.24-.5-.43s.16-.39.27-.63a1.09,1.09,0,0,0,.12-.4,1.33,1.33,0,0,0,0-.4A6.17,6.17,0,0,0,247,157Z"/><path class="cls-8" d="M250.6,156a1.76,1.76,0,0,0-.58-.38,2,2,0,0,0-.68-.16,2,2,0,0,0-1.33.36.24.24,0,0,0-.06.34.25.25,0,0,0,.28.1h0c.18-.05.36-.12.54-.16a2.35,2.35,0,0,1,.54-.1,2.09,2.09,0,0,1,.55.05,2.37,2.37,0,0,1,.53.18h0a.15.15,0,0,0,.2-.06A.15.15,0,0,0,250.6,156Z"/><path class="cls-8" d="M248.61,157.79a.57.57,0,1,0,.49-.64A.57.57,0,0,0,248.61,157.79Z"/><path class="cls-8" d="M244.09,157a2.29,2.29,0,0,1,.47-.32,1.89,1.89,0,0,1,.52-.18,2.47,2.47,0,0,1,.54,0l.57,0h0a.24.24,0,0,0,.26-.24.24.24,0,0,0-.16-.24,2.07,2.07,0,0,0-1.37,0,2.18,2.18,0,0,0-.62.33,1.78,1.78,0,0,0-.46.52.15.15,0,0,0,.05.2.17.17,0,0,0,.18,0Z"/><path class="cls-8" d="M246.24,158.1a.56.56,0,0,1-.49.63.57.57,0,0,1-.64-.49.57.57,0,0,1,1.13-.14Z"/><path class="cls-14" d="M243.76,159.77l.05.37a5.26,5.26,0,0,0,.56,1.76,1.27,1.27,0,0,0,.55,0,1.32,1.32,0,0,0-.34-2.61A1.26,1.26,0,0,0,243.76,159.77Z"/><path class="cls-14" d="M249,160.08a1.32,1.32,0,1,0,2.61-.34,1.32,1.32,0,0,0-2.61.34Z"/><path class="cls-8" d="M254.23,156.16a.76.76,0,0,0-1.06.28c-.24.42-.57.93-.75.89s-.52-.81-1.27-2-3.18-.09-5,0-1.93-.87-1.93-.87a5.09,5.09,0,0,0-.75,3.1,6.34,6.34,0,0,1-1.07-2.73,4.83,4.83,0,0,1,4.29-5.09c3.68-.53,5.71,1.3,5.8,1.94,0,0,2.89,1,2.22,4.9A2.69,2.69,0,0,0,254.23,156.16Z"/><path class="cls-15" d="M208.45,232.13A11.49,11.49,0,0,0,203.8,229c-2.75-1.17-5.7-2.16-7.81-4.27-1.53-1.52-2.72-3.67-4.83-4.12a6.66,6.66,0,0,0-3.32.39,5.92,5.92,0,0,0-3.35,2c-.94,1.36-.63,3.24,0,4.76a24.11,24.11,0,0,1,2,4.57c.44,2.17-.29,4.62.82,6.54,1,1.67,3.08,2.37,5,2.36a53.41,53.41,0,0,0,5.74-.77,31.89,31.89,0,0,1,8.86.71c2.86.5,3.36.16,3.33-2.82A10,10,0,0,0,208.45,232.13Z"/><path class="cls-15" d="M212,233.93c.52-3.08,0-6.32.93-9.29a3.31,3.31,0,0,1,1.89-2.3,8.15,8.15,0,0,1,1.85-.11c1.89-.13,3.39-1.64,4.5-3.17s2.13-3.26,3.78-4.2,4.19-.65,4.89,1.11a3.86,3.86,0,0,1,.12,2c-.33,2.25-1.49,4.46-1,6.68s2.82,4.34,2.22,6.65a4.3,4.3,0,0,1-2.59,2.6c-1.17.5-2.44.7-3.63,1.13-2.89,1-5.17,3.24-7.76,4.88-1.52,1-5.85,3.24-7.26,1C209,239.39,211.69,235.71,212,233.93Z"/><path class="cls-16" d="M201,214.78a21.86,21.86,0,0,1-4.88-4.26,7.78,7.78,0,0,1-1.74-6.06c.32-1.68,1.36-3.15,1.79-4.81a24.09,24.09,0,0,0,.34-4.66,5.86,5.86,0,0,1,1.68-4.23,5.18,5.18,0,0,1,2.87-1.07,3,3,0,0,1,2.64.74c.61.73.56,1.79.82,2.7.87,3.1,5,4,6.69,6.75a7.31,7.31,0,0,1,.58,5.21c-.36,1.75-1.07,3.41-1.55,5.13a14.3,14.3,0,0,0-.54,4.91c.08,1.08.58,2.18-.73,2.53-1,.26-2.41-.35-3.35-.61A14.85,14.85,0,0,1,201,214.78Z"/><path class="cls-16" d="M220.68,233.39c4.19-.88,8.5.35,12.6,1.56a4.64,4.64,0,0,1,1.53.66,2.44,2.44,0,0,1,.58,3.13c-.9,1.42-2.94,1.47-4.6,1.23s-3.57-.57-4.87.51a12.12,12.12,0,0,0-1.66,2.25,5.22,5.22,0,0,1-6.37,1.41,7.06,7.06,0,0,0-1.5-.76c-1.44-.37-2.89.8-4.36.59-4.42-.64-.45-4.94,1-6.31A16.08,16.08,0,0,1,220.68,233.39Z"/><path class="cls-16" d="M206.93,249.52a13.9,13.9,0,0,0-2-2.79,4.54,4.54,0,0,0-3.05-1.43c-1.38,0-2.67.8-4,.7a9.33,9.33,0,0,1-3.29-1.37,9,9,0,0,0-6.46-.53,11.82,11.82,0,0,0-4.82,3.06,8.54,8.54,0,0,0-2.46,4,4.32,4.32,0,0,0,1.31,4.32c1.31,1,3.14.95,4.81.91s3.54.11,4.62,1.38c.68.8,1,2,2,2.37a2.61,2.61,0,0,0,2-.29c1.84-.89,3.34-2.36,5.09-3.42a13.19,13.19,0,0,1,7.25-1.89C211.05,254.66,207.68,250.8,206.93,249.52Z"/><path class="cls-15" d="M212.59,251.83c3.55-.87,7.33-.48,10.83-1.5,3-.88,6-2.81,9.06-2.26a2,2,0,0,1,1.42.77c.57.91-.25,2-.41,3.11a6.41,6.41,0,0,0,.67,3,6.47,6.47,0,0,1,.35,3.78,3.43,3.43,0,0,1-2.58,2.58c-2.11.34-3.92-1.83-6.06-1.83-1.19,0-2.27.68-3.42,1-2.48.66-5.1-.46-7.21-1.93a27.38,27.38,0,0,1-4.91-3.73C208.89,253.12,211.17,252.17,212.59,251.83Z"/><polygon class="cls-15" points="211.2 274.33 210.14 214.19 209.72 214.19 208.66 274.33 211.2 274.33"/><path class="cls-6" d="M204.18,295.72h11.51a1.4,1.4,0,0,0,1.38-1.16l3.72-20.14a1.4,1.4,0,0,0-1.38-1.66H200.46a1.41,1.41,0,0,0-1.39,1.66l3.72,20.14A1.41,1.41,0,0,0,204.18,295.72Z"/><path class="cls-15" d="M212.08,216.52a28.06,28.06,0,0,1,4.19-3.3,50.09,50.09,0,0,0,4.54-3.69c2.44-2.23,4.77-4.95,5.15-8.24a4.47,4.47,0,0,0-.29-2.43,2.36,2.36,0,0,0-1.91-1.4c-1.1-.07-2,.82-2.79,1.61s-1.78,1.62-2.86,1.39a4.15,4.15,0,0,1-1.47-.8,5.37,5.37,0,0,0-2.91-1.07,3.1,3.1,0,0,0-2.7,1.32c-.59,1-.48,2.19-.92,3.22-.89,2.09-3.66,2.71-4.9,4.63a5.13,5.13,0,0,0-.53,3.81,15.42,15.42,0,0,0,1.45,3.67q1.19,2.35,2.36,4.71c.39.77.93,2.72,1.82,2.92a10.91,10.91,0,0,0-.06-2.61A5.91,5.91,0,0,1,212.08,216.52Z"/><path class="cls-8" d="M220.08,274.7c-6.53.28-13.72.28-20.25,0,6.53-.28,13.72-.27,20.25,0Z"/><path class="cls-8" d="M218.61,276.44c-5.68.28-11.94.28-17.62,0,5.68-.28,11.94-.27,17.62,0Z"/><path class="cls-8" d="M207.47,294.17a7.31,7.31,0,0,1-3.48,0,7.07,7.07,0,0,1,3.48,0Z"/><path class="cls-8" d="M206.53,292.8a3.62,3.62,0,0,1-2.43,0,3.5,3.5,0,0,1,2.43,0Z"/><path class="cls-8" d="M208.3,253.15a17.2,17.2,0,0,0-5.56-3c-2-.67-4.15-.11-6.23.34-3.14.6-6.35,1.31-9.57,1a6.13,6.13,0,0,1-3-1.15,5.86,5.86,0,0,0,3,.94,39.48,39.48,0,0,0,9.47-1.22c2.08-.42,4.33-1,6.41-.24a15.56,15.56,0,0,1,5.46,3.34Z"/><path class="cls-8" d="M231.78,256.41c-2.91-2.35-7-1.5-10.42-1.32s-7.46.47-10.67-1.38c3.34,1.53,7.07,1.27,10.63,1,3.46-.16,7.72-.91,10.46,1.74Z"/><path class="cls-8" d="M233.55,236.89c-3.36-1.84-7.31-1.31-10.91-.56s-7.37,1.69-10.24,4.16c2.66-2.74,6.53-3.82,10.16-4.57s7.77-1.19,11,1Z"/><path class="cls-8" d="M227.16,216.74a4.89,4.89,0,0,0-1.26,2.85,11.74,11.74,0,0,1-4.38,8.35,53.26,53.26,0,0,0-9.53,8.45c2.47-3.5,5.88-6.22,9.26-8.77a11.94,11.94,0,0,0,4.45-8.07,4.92,4.92,0,0,1,1.46-2.81Z"/><path class="cls-8" d="M208.35,237.14a53.31,53.31,0,0,0-11-4.9,19.45,19.45,0,0,1-7.73-4.78,7.54,7.54,0,0,1-2-2.29,7.5,7.5,0,0,0,2.1,2.14,26.2,26.2,0,0,0,4.93,3.43c4.67,1.86,9.59,3.35,13.69,6.4Z"/><path class="cls-8" d="M224.13,199.44a27.3,27.3,0,0,1-3.26,5.13c-3.21,3.85-9.09,5.16-10.88,10.16a5.73,5.73,0,0,0-.29,3c-1.29-7,7.19-9.19,10.93-13.33a34.46,34.46,0,0,0,3.5-4.92Z"/><path class="cls-8" d="M204.18,211.62a43.16,43.16,0,0,1-3.32-18.06,74.42,74.42,0,0,0,3.32,18.06Z"/><path class="cls-8" d="M219.13,201.5a38.19,38.19,0,0,1-3.7,7.12,38.19,38.19,0,0,1,3.7-7.12Z"/><path class="cls-8" d="M219.64,209.34a49,49,0,0,1-8.6,3.16,49.21,49.21,0,0,1,8.6-3.16Z"/><path class="cls-8" d="M203.54,195.94a44,44,0,0,1-1.42,8.6,44.76,44.76,0,0,1,1.42-8.6Z"/><path class="cls-8" d="M198.88,204.88a33.89,33.89,0,0,1,4.85,5.51,29.58,29.58,0,0,1-4.85-5.51Z"/><path class="cls-8" d="M223.62,217.28a47.55,47.55,0,0,1-.59,8.92,46.73,46.73,0,0,1,.59-8.92Z"/><path class="cls-8" d="M228.34,229.38a63,63,0,0,1-10.26.93,63,63,0,0,1,10.26-.93Z"/><path class="cls-8" d="M192.23,223.85a41.22,41.22,0,0,1,3.43,7.64,40.58,40.58,0,0,1-3.43-7.64Z"/><path class="cls-8" d="M189.91,235.56a70.8,70.8,0,0,1,10.86-2.27,73,73,0,0,1-10.86,2.27Z"/><path class="cls-8" d="M231.06,238.14a29.25,29.25,0,0,1-6.7-2.21,28.93,28.93,0,0,1,6.7,2.21Z"/><path class="cls-8" d="M220.72,241.2a18.07,18.07,0,0,1-4.7-2.95,18.24,18.24,0,0,1,4.7,2.95Z"/><path class="cls-8" d="M230.53,250.49a30.17,30.17,0,0,1-5.8,4.11,29.56,29.56,0,0,1,5.8-4.11Z"/><path class="cls-8" d="M229.16,258.29a31.16,31.16,0,0,1-6.39-3.48,31.38,31.38,0,0,1,6.39,3.48Z"/><path class="cls-8" d="M220,251.7a16.27,16.27,0,0,1-4,3.38,16.06,16.06,0,0,1,4-3.38Z"/><path class="cls-8" d="M187.48,246.64a22.15,22.15,0,0,1,4.22,4.48,22.69,22.69,0,0,1-4.22-4.48Z"/><path class="cls-8" d="M192.7,255.81a32.23,32.23,0,0,1,4.62-5.73,31.87,31.87,0,0,1-4.62,5.73Z"/><path class="cls-8" d="M201.72,246a12.62,12.62,0,0,1,1.8,4.22,12.45,12.45,0,0,1-1.8-4.22Z"/><rect class="cls-17" x="146.11" y="254.05" width="3.18" height="41.66" transform="translate(295.39 549.77) rotate(-180)"/><rect class="cls-18" x="161.67" y="254.05" width="3.18" height="41.66" transform="translate(326.51 549.77) rotate(-180)"/><rect class="cls-17" x="108.12" y="254.05" width="3.18" height="41.66" transform="translate(219.43 549.77) rotate(-180)"/><rect class="cls-18" x="123.69" y="254.05" width="3.18" height="41.66" transform="translate(250.55 549.77) rotate(-180)"/><rect class="cls-17" x="134.02" y="221.13" width="3.18" height="64.84" transform="translate(389.16 117.94) rotate(90)"/><rect class="cls-18" x="157.07" y="244.18" width="3.18" height="18.74" transform="translate(412.21 94.9) rotate(90)"/><rect class="cls-17" x="154.81" y="268.02" width="3.18" height="14.22" transform="translate(431.53 118.74) rotate(90)"/><rect class="cls-17" x="116.49" y="268.02" width="3.18" height="14.22" transform="translate(393.22 157.06) rotate(90)"/><rect class="cls-8" x="161.68" y="255.15" width="3.16" height="3.27" transform="translate(326.51 513.57) rotate(-180)"/><rect class="cls-8" x="146.1" y="255.15" width="3.16" height="3.27" transform="translate(295.37 513.57) rotate(-180)"/><rect class="cls-8" x="123.7" y="255.15" width="3.16" height="3.27" transform="translate(250.57 513.57) rotate(-180)"/><rect class="cls-8" x="108.14" y="255.15" width="3.16" height="3.27" transform="translate(219.45 513.57) rotate(-180)"/><path class="cls-15" d="M150.52,240.35s-2-17.17,5.59-25.15Z"/><path class="cls-15" d="M150.62,241.55s1-14.78,8.88-22.26Z"/><path class="cls-15" d="M151.51,241.25s1.1-12.68,10-16.17C161.5,225.08,152.31,237.86,151.51,241.25Z"/><path class="cls-15" d="M151.61,240.65s2.6-9.28,11.08-8.68C162.69,232,151.91,240.55,151.61,240.65Z"/><path class="cls-15" d="M150.72,239c0-.4,2.69-17.87-1.5-23.46Z"/><path class="cls-15" d="M150.72,238.15c0-.39.39-13.87-6.89-17.66Z"/><path class="cls-15" d="M151.21,239.55c.1-.3-2.29-11.78-11.18-14.67Z"/><path class="cls-6" d="M145.83,237.46h12.32s6.4,2-2.16,14a1.25,1.25,0,0,1-1,.53H149a1.25,1.25,0,0,1-1-.53C139.42,239.49,145.83,237.46,145.83,237.46Z"/><path class="cls-8" d="M158.66,240.15q-6.78.27-13.56,0,6.78-.28,13.56,0Z"/><path class="cls-8" d="M158.32,244.8q-6.44.28-12.88,0,6.44-.28,12.88,0Z"/><path class="cls-8" d="M158.12,244.72a1.57,1.57,0,1,0-3.13,0,1.69,1.69,0,0,1,.36-1.25,1.58,1.58,0,0,1,2.77,1.25Z"/><path class="cls-8" d="M155,244.72a1.57,1.57,0,0,0-3.14,0,1.69,1.69,0,0,1,.36-1.25,1.59,1.59,0,0,1,2.78,1.25Z"/><path class="cls-8" d="M151.89,244.72a1.57,1.57,0,1,0-3.13,0,1.73,1.73,0,0,1,.35-1.25,1.59,1.59,0,0,1,2.78,1.25Z"/><path class="cls-8" d="M148.77,244.72a1.57,1.57,0,1,0-3.13,0,1.69,1.69,0,0,1,.36-1.25,1.58,1.58,0,0,1,2.77,1.25Z"/><path class="cls-8" d="M161,232.25c-2.18,1.05-4.41,2.34-5.62,4.52.89-2.36,3.31-3.81,5.62-4.52Z"/><path class="cls-8" d="M160,226.36c-2.81,2.93-5.54,6.19-6.67,10.18.78-4.09,3.61-7.51,6.67-10.18Z"/><path class="cls-8" d="M156.89,223.43c-1.81,4.2-3.83,8.42-4.3,13,.11-4.64,2.18-9,4.3-13Z"/><path class="cls-8" d="M154.88,217.77c-1.31,4.58-2.72,9.17-3.15,13.93.08-4.79,1.5-9.47,3.15-13.93Z"/><path class="cls-8" d="M150.45,218.87c.56,3.89,1.19,7.9.59,11.82.26-3.42-.4-8.36-.59-11.82Z"/><path class="cls-8" d="M145.1,222c2.82,4.55,5.68,9.56,5.94,15-.59-5.42-3.4-10.29-5.94-15Z"/><path class="cls-8" d="M142.32,226.58c3.05,2.46,6.24,5.47,7.17,9.41-1.27-3.82-4.35-6.67-7.17-9.41Z"/><path class="cls-16" d="M135.62,238.12a16.35,16.35,0,0,0-.29-6c-.22-.75-.68-1.53-1.28-1.38s-.83,1-1,1.71c-.64,3.5-.14,7.12.36,10.61.09.6.19,2.09.62,2.43.59.49.72-1.11.79-1.56C135.19,242,135.44,240.08,135.62,238.12Z"/><path class="cls-16" d="M137.24,243a10.39,10.39,0,0,0,1-4.7,10.84,10.84,0,0,1,.31-2.85c.25-.82.72-1.54,1-2.36a1.5,1.5,0,0,0,.08-.63.89.89,0,0,0-.63-.72,1.4,1.4,0,0,0-.94.11,3.24,3.24,0,0,0-1.78,2.14,9.11,9.11,0,0,0-.06,2.76,9.73,9.73,0,0,1-.69,4.32c-.28.64-2.52,3.86-1.76,4.39.41.29,1.56-.47,1.9-.71A5.2,5.2,0,0,0,137.24,243Z"/><path class="cls-16" d="M136.67,243.12c1.58-1.85,2.54-4.24,4.44-5.76a1.27,1.27,0,0,1,.76-.35,1,1,0,0,1,.88.91,2.58,2.58,0,0,1-.32,1.34c-1.06,2.31-2.68,4.51-5,5.47-.64.26-2.68,1.14-3.28.61a13.21,13.21,0,0,1,1.31-1C135.88,244,136.26,243.54,136.67,243.12Z"/><path class="cls-16" d="M131.26,237.09c-.1-1.28.18-2.65-.27-3.84a.79.79,0,0,0-.21-.34.67.67,0,0,0-.38-.13,1.92,1.92,0,0,0-1.56.7,2.51,2.51,0,0,0-.54,1.8,5,5,0,0,0,.26,1l1.32,4a11.14,11.14,0,0,0,.51,1.36,9.25,9.25,0,0,0,1,1.56c.59.83,1.72,2.45,2.81,2.28,0-1.42-.95-3-1.52-4.2A12.27,12.27,0,0,1,131.26,237.09Z"/><path class="cls-16" d="M128.55,241.5c-.7-.1-1.57,0-1.89.62a1.31,1.31,0,0,0,.41,1.5,3.76,3.76,0,0,0,1.52.69c1.19.33,2.4.64,3.61.92.22.05,1.52.49,1.67.28s-.52-1-.64-1.17A7.29,7.29,0,0,0,128.55,241.5Z"/><path class="cls-9" d="M136.31,252h-4.67a3.42,3.42,0,0,1-1.66-2.93v-4.2h8v4.2A3.41,3.41,0,0,1,136.31,252Z"/><path class="cls-8" d="M142.09,237.68c-1,2.66-2.61,5.62-5.44,6.62,2.64-1.34,4.1-4.11,5.44-6.62Z"/><path class="cls-8" d="M138.93,232.41c-2.82,2.35-.78,6.29-1.69,9.33a7,7,0,0,1-1.58,2.88,7.9,7.9,0,0,0,1.38-2.93c.76-3-1.18-7.15,1.89-9.28Z"/><path class="cls-8" d="M134.37,243.21a86.23,86.23,0,0,1-.05-9.78,84,84,0,0,1,.05,9.78Z"/><path class="cls-8" d="M132.7,243.6c-2.1-3-2.45-6.64-3.25-10.08a33.5,33.5,0,0,1,1.35,5.14,28.27,28.27,0,0,0,1.9,4.94Z"/><path class="cls-8" d="M131.31,244a2.27,2.27,0,0,1-1-.22,16.42,16.42,0,0,1-2.76-1.19,19.92,19.92,0,0,1,3.75,1.41Z"/><path class="cls-8" d="M140.67,238.3a5.76,5.76,0,0,1-.2,2.51,5.76,5.76,0,0,1,.2-2.51Z"/><path class="cls-8" d="M140.58,242a1.53,1.53,0,0,1-1.23.37,1.57,1.57,0,0,1,1.23-.37Z"/><path class="cls-8" d="M137.11,233.57a3.25,3.25,0,0,1,.18,1.9,3.42,3.42,0,0,1-.18-1.9Z"/><path class="cls-8" d="M138.07,237.75a1.73,1.73,0,0,1-.68,1.16,1.71,1.71,0,0,1,.68-1.16Z"/><path class="cls-8" d="M135.35,233.78a9.76,9.76,0,0,1-1.07,3.1,9.76,9.76,0,0,1,1.07-3.1Z"/><path class="cls-8" d="M133.07,237a12.28,12.28,0,0,1,1.23,3.47,12.48,12.48,0,0,1-1.23-3.47Z"/><path class="cls-8" d="M131,235.44a4,4,0,0,1-.59,2,3.91,3.91,0,0,1,.59-2Z"/><path class="cls-8" d="M128.91,241.86a2.12,2.12,0,0,1,.55,1.42,2.21,2.21,0,0,1-.55-1.42Z"/><path class="cls-8" d="M137.55,245.51a44.42,44.42,0,0,1-7.11,0,46.88,46.88,0,0,1,7.11,0Z"/><path class="cls-16" d="M119.75,245.81a4.07,4.07,0,0,0-.23-2.7,6.05,6.05,0,0,0-1.51-2.06,15.15,15.15,0,0,1-1.75-1.59,4.77,4.77,0,0,1-1-2.07.12.12,0,0,0-.13-.09.1.1,0,0,0-.09.12,5.34,5.34,0,0,0,.81,2.32,17,17,0,0,0,1.62,1.81,5.35,5.35,0,0,1,1.13,1.89,3.1,3.1,0,0,1,0,2,.6.6,0,0,0,1.12.44s0,0,0-.06Z"/><path class="cls-16" d="M118.6,241.75a4.59,4.59,0,0,1,.71-3,14.58,14.58,0,0,1,2.1-2.57.18.18,0,0,0-.25-.25,14.63,14.63,0,0,0-2.28,2.55,6.1,6.1,0,0,0-.75,1.59,4.36,4.36,0,0,0-.17,1.8h0a.32.32,0,0,0,.64-.08Z"/><path class="cls-16" d="M121.31,236.12s1.59-2.29.66-2.93S121.31,236.12,121.31,236.12Z"/><path class="cls-16" d="M121.29,235.91s2.71.12,2.47,1.48S121.29,235.91,121.29,235.91Z"/><path class="cls-16" d="M120.29,237.13s0-3.25-1-3.25S118.72,236,120.29,237.13Z"/><path class="cls-16" d="M120.34,237.17s2.32.78,1.9,1.69S120.34,238,120.34,237.17Z"/><path class="cls-16" d="M118.77,239.1s-.21-3.32-1.47-3.68S116.72,238.07,118.77,239.1Z"/><path class="cls-16" d="M118.41,239.79s2.56-.15,3,1S118.83,240.79,118.41,239.79Z"/><path class="cls-16" d="M115.28,237.42a1.72,1.72,0,0,0-1.45-.88C112.86,236.57,113.77,237.51,115.28,237.42Z"/><path class="cls-16" d="M115.58,239s-2.75-.91-3-.18S114.49,240.46,115.58,239Z"/><path class="cls-16" d="M116.81,240.34s-3.52.18-3.77,1.35S116.48,242.42,116.81,240.34Z"/><path class="cls-19" d="M116.59,249.73,119,251.1l2.32-1.37a.74.74,0,0,0,.37-.64v-4.53h-5.52v4.52A.75.75,0,0,0,116.59,249.73Z"/><rect class="cls-19" x="118.06" y="250.15" width="1.83" height="1.54" transform="translate(237.95 501.84) rotate(-180)"/><rect class="cls-19" x="117.3" y="251.64" width="3.35" height="0.34" transform="translate(237.95 503.62) rotate(-180)"/><rect class="cls-19" x="115.32" y="244.11" width="7.3" height="0.57" transform="translate(237.95 488.79) rotate(-180)"/><path class="cls-8" d="M121.63,244.69a25.76,25.76,0,0,1-5.34,0,26.47,26.47,0,0,1,5.34,0Z"/><path class="cls-8" d="M121.68,247c-1.38.17-1.9,1.6-1.85,2.82-.63,0-1.27,0-1.91,0v-.14c.1-1.13-.16-2.77-1.57-2.82a1.6,1.6,0,0,1,.92.21,2.92,2.92,0,0,1,.91,2.63l-.13-.14h1.65l-.13.13c0-1.24.71-2.71,2.1-2.69Z"/><path class="cls-15" d="M108.15,247.83a15.62,15.62,0,0,1-.79-4.48,2.86,2.86,0,0,1,4.86-1.09c1.68,1.73.27,4.82-.11,5.57Z"/><path class="cls-20" d="M108.63,248.64h2.84a1.72,1.72,0,0,1,1.72,1.72v1.15a0,0,0,0,1,0,0h-6.29a0,0,0,0,1,0,0v-1.15A1.72,1.72,0,0,1,108.63,248.64Z" transform="translate(220.11 500.14) rotate(-180)"/><rect class="cls-20" x="106.47" y="247.83" width="7.18" height="1.06" rx="0.32" transform="translate(220.11 496.73) rotate(-180)"/><path class="cls-20" d="M111.2,251.54a.44.44,0,1,0,.43-.44A.44.44,0,0,0,111.2,251.54Z"/><path class="cls-20" d="M108,251.54a.44.44,0,1,0,.44-.44A.44.44,0,0,0,108,251.54Z"/><path class="cls-19" d="M110,242s.7-1.28.08-1.35-.47,1.24-.47,1.24Z"/><path class="cls-19" d="M109.91,242.11s1.46,0,1.23-.55-1.32.15-1.32.15Z"/><path class="cls-19" d="M109.67,242s.28,1.43.81,1.09-.44-1.26-.44-1.26Z"/><path class="cls-19" d="M109.73,241.74s-1.34.59-.89,1,1.13-.7,1.13-.7Z"/><path class="cls-19" d="M110,241.75s-.86-1.19-1.19-.65.92,1,.92,1Z"/><path class="cls-8" d="M113.11,248.86a33.14,33.14,0,0,1-6.14,0,35,35,0,0,1,6.14,0Z"/><path class="cls-8" d="M111.83,247.82c.39-1.91,1.19-4.48-.55-5.94,2,1.17,1.33,4.17.55,5.94Z"/><path class="cls-8" d="M108.47,247.82c-.71-1.82-1.54-4.88.5-6.11-1.72,1.51-.82,4.16-.5,6.11Z"/><path class="cls-8" d="M110.85,247.82c.17-1.86.93-4.13-.34-5.72,1.59,1.32.9,4,.34,5.72Z"/><path class="cls-8" d="M109.38,247.8a7.58,7.58,0,0,1,.14-5.27,17.9,17.9,0,0,0-.14,5.27Z"/><path class="cls-8" d="M110.06,247.89a21,21,0,0,1,0-4.76,20,20,0,0,1,0,4.76Z"/><path class="cls-15" d="M177.63,274.41a6.74,6.74,0,0,0,.34-4.26,10.23,10.23,0,0,0-1.73-3.7c-1.59-2.18-3.67-3.75-5.37-5.58a21.75,21.75,0,0,1-5.74-13.68h-.22a22.38,22.38,0,0,0,5.26,14.29c1.69,2,3.67,3.65,5,5.69a8.85,8.85,0,0,1,1.34,3.27,5.08,5.08,0,0,1-.38,3.24Z"/><path class="cls-15" d="M165,248s3.21-13.07-1.7-13.34S165,248,165,248Z"/><path class="cls-15" d="M165.26,250.42s1.54-9.53,6-8.58S165.26,250.42,165.26,250.42Z"/><path class="cls-15" d="M168.27,258.05s-6.82-12.84-11.88-10S168.27,258.05,168.27,258.05Z"/><path class="cls-15" d="M168.27,258s-6.83-4.42-10.63-2.75S164.17,259.64,168.27,258Z"/><path class="cls-16" d="M173.83,264.54s-3.37-8.22-.07-11.15S175.45,261.82,173.83,264.54Z"/><path class="cls-15" d="M166.44,254.24s1.39-4.11,4.69-5S168.71,253.73,166.44,254.24Z"/><path class="cls-16" d="M173.85,264.51s-10-6.09-13.65-2.71S169.37,267.67,173.85,264.51Z"/><path class="cls-15" d="M181.38,228.21c.37,1.9.78,3.8,1.1,5.69a24.42,24.42,0,0,1,.37,5.71,13,13,0,0,1-.5,2.77,13.94,13.94,0,0,1-1.11,2.58c-.91,1.66-2.07,3.22-3,4.94a14.78,14.78,0,0,0-1.23,2.75,12.76,12.76,0,0,0-.57,3,22.82,22.82,0,0,0,0,3c.06,1,.15,2,.29,2.95a54.86,54.86,0,0,0,3.16,11.33l1.54-.61A52.66,52.66,0,0,1,178,261.35a26.81,26.81,0,0,1-.35-2.82,20.5,20.5,0,0,1-.06-2.82A12.46,12.46,0,0,1,178,253a14,14,0,0,1,1.08-2.57c.88-1.68,2-3.27,2.91-5a13.11,13.11,0,0,0,1.56-5.73,24.85,24.85,0,0,0-.53-5.85c-.37-1.91-.83-3.79-1.25-5.68Z"/><path class="cls-20" d="M187.07,269.61h-21a.5.5,0,0,0-.5.53c.27,3.21,1.83,19.93,5.22,25.14a.53.53,0,0,0,.37.22,68.42,68.42,0,0,0,11.23,0,.48.48,0,0,0,.42-.3c.82-2,5.6-14.34,4.77-25.12A.5.5,0,0,0,187.07,269.61Z"/><path class="cls-15" d="M180.65,247S177,224.68,167.89,224.9,178,246.25,180.65,247Z"/><path class="cls-15" d="M179.42,248.24s12.09-19.14,18.51-16.8S184.86,248,179.42,248.24Z"/><path class="cls-16" d="M182.28,231.39s1.76-15.51-3.64-16.61S182.28,231.39,182.28,231.39Z"/><path class="cls-16" d="M182.28,231.42s3.3-13.2,6.93-11.88S186.35,228.67,182.28,231.42Z"/><path class="cls-16" d="M177.05,258.38s11.33-7.92,17.5-6S186,260,177.05,258.38Z"/><path class="cls-15" d="M177.05,258.38s9.68-15.07,17.06-11.11S177.05,258.38,177.05,258.38Z"/><path class="cls-16" d="M178.42,265.26s5.84-7.48,13.76-5.17S182.72,266.25,178.42,265.26Z"/><path class="cls-8" d="M173.32,264.48c-4.46,0-9.24.11-13.41-1.67,4.32,1.33,8.94,1.19,13.41,1.67Z"/><path class="cls-8" d="M174.73,253.62c.21,3.43.38,7.12-1,10.33.89-3.36.7-6.88,1-10.33Z"/><path class="cls-8" d="M193.89,261.32c-4.76,1.43-10.07,2.75-14.94,3.73,4.76-1.43,10.07-2.75,14.94-3.73Z"/><path class="cls-8" d="M195,248.44c-6.36,1.87-12.65,4.68-17.41,9.4,4.42-5.07,10.93-8,17.41-9.4Z"/><path class="cls-8" d="M167,225.4c4.77,6.64,9.78,13.3,13.14,20.79-3.22-6.35-9.28-14.7-13.14-20.79Z"/><path class="cls-8" d="M198.38,232.13c-5.51,5.12-11.73,10.56-17.54,15.34,5.5-5.12,11.73-10.57,17.54-15.34Z"/><path class="cls-8" d="M178.55,215.2a60.28,60.28,0,0,1,3.52,14.73c-.75-4.32-2.45-10.42-3.52-14.73Z"/><path class="cls-8" d="M189.54,220.43a100.08,100.08,0,0,1-6.72,10,101.25,101.25,0,0,1,6.72-10Z"/><path class="cls-8" d="M163.52,235.47a96.38,96.38,0,0,1,1.4,11.6,96.38,96.38,0,0,1-1.4-11.6Z"/><path class="cls-8" d="M156.44,248.74a101.59,101.59,0,0,1,9.93,6.77,101,101,0,0,1-9.93-6.77Z"/><path class="cls-8" d="M167.21,257.58a65.82,65.82,0,0,1-9.58-1.49,66,66,0,0,1,9.58,1.49Z"/><path class="cls-8" d="M171.47,242.54a52.49,52.49,0,0,1-5.67,6.6,54,54,0,0,1,5.67-6.6Z"/><path class="cls-8" d="M171.56,249.62a25.16,25.16,0,0,1-4.39,4,25.56,25.56,0,0,1,4.39-4Z"/><path class="cls-8" d="M187.3,271.78c-6.92.23-14.53.23-21.45,0,6.92-.23,14.53-.23,21.45,0Z"/><path class="cls-8" d="M187.26,274.15c-6.71.23-14.09.24-20.8,0,6.71-.23,14.09-.23,20.8,0Z"/><path class="cls-15" d="M296.54,276.84a3.82,3.82,0,0,0,5.06-1.31c2.43.29,4-.49,3.9-3a2.41,2.41,0,0,0,.94-3.05c-.6-1.17-2.05-1-3-.21-2.1-1-3.47,0-4.74,1.68-1.89,0-3.7.22-3.87,2.67A3.4,3.4,0,0,0,296.54,276.84Z"/><rect class="cls-6" x="283.29" y="283.91" width="14.48" height="11.06" transform="translate(581.06 578.88) rotate(-180)"/><rect class="cls-6" x="281.72" y="280.67" width="17.61" height="3.61" rx="0.82" transform="translate(581.06 564.96) rotate(-180)"/><path class="cls-6" d="M281.72,293.71h17.61a0,0,0,0,1,0,0v1.09a.92.92,0,0,1-.92.92H282.65a.92.92,0,0,1-.92-.92v-1.09a0,0,0,0,1,0,0Z" transform="translate(581.06 589.42) rotate(-180)"/><path class="cls-15" d="M291,271.87a3.14,3.14,0,0,0,1.23-4.61c1.62-1.85,1.17-3.38-.14-5.24.42-1.32.29-3-1.15-3.54s-2.45.81-3.09,1.92c-2.79,1.06-2.16,3.49-1.2,5.7-.7,1.9-1.35,3.59.57,5.2A3.64,3.64,0,0,0,291,271.87Z"/><path class="cls-16" d="M294.11,277.16c1.8.26,4.05-.26,4.41-4.28,0,0,4.69-1.59,2.49-5.84,0,0,2.12-2.72,0-4.43s-3.63,1.54-3.63,1.54-4.31,0-4.25,4.94c0,0-4.44,1.84-2.83,5.31A5,5,0,0,0,294.11,277.16Z"/><path class="cls-16" d="M287.29,275.53a3.81,3.81,0,0,0-1.12-5.09c.38-2.42-.35-4.05-2.89-4a2.44,2.44,0,0,0-3-1.05c-1.19.57-1.06,2-.32,3-1.11,2.07-.12,3.47,1.51,4.81,0,1.89.08,3.7,2.52,4A3.39,3.39,0,0,0,287.29,275.53Z"/><path class="cls-8" d="M300.16,263.76q-4.29,8.69-9.4,16.91,4.29-8.69,9.4-16.91Z"/><path class="cls-8" d="M297.36,265.1a26,26,0,0,1-1.77,6.71,26.07,26.07,0,0,1,1.77-6.71Z"/><path class="cls-8" d="M297.13,274.31a8.25,8.25,0,0,1-3.57,1.53,8.08,8.08,0,0,1,3.57-1.53Z"/><path class="cls-8" d="M290.22,259.5q-.25,10.62-1.45,21.17Q289,270,290.22,259.5Z"/><path class="cls-8" d="M287.54,261.23a27.86,27.86,0,0,1,2.07,6.86,27.44,27.44,0,0,1-2.07-6.86Z"/><path class="cls-8" d="M292.41,264.26a7.3,7.3,0,0,1-2.61,2.57,7.3,7.3,0,0,1,2.61-2.57Z"/><path class="cls-8" d="M287.35,267.67a10.07,10.07,0,0,1,2,3.8,10.07,10.07,0,0,1-2-3.8Z"/><path class="cls-8" d="M280.71,265.87a144.65,144.65,0,0,1,7.06,14.76,144.65,144.65,0,0,1-7.06-14.76Z"/><path class="cls-8" d="M284.51,267.52a7.85,7.85,0,0,1-1.19,3.6,7.85,7.85,0,0,1,1.19-3.6Z"/><path class="cls-8" d="M282.44,274.11a5.82,5.82,0,0,1,2.91,1.42,5.74,5.74,0,0,1-2.91-1.42Z"/><path class="cls-8" d="M305.57,270a60.45,60.45,0,0,1-8.29,6.68,60.45,60.45,0,0,1,8.29-6.68Z"/><path class="cls-8" d="M304.84,273.54a7.12,7.12,0,0,1-3.61,0,7,7,0,0,1,3.61,0Z"/><path class="cls-8" d="M297.66,284.24a107.16,107.16,0,0,1-14.11,0,107.16,107.16,0,0,1,14.11,0Z"/><path class="cls-8" d="M297.66,293.75a109.44,109.44,0,0,1-14.26,0,109.44,109.44,0,0,1,14.26,0Z"/><path class="cls-3" d="M168.1,137.77a13.5,13.5,0,0,0-2.45-2.27,11.73,11.73,0,0,0-2.82-1.2,14.27,14.27,0,0,0-3.1-.37,12,12,0,0,0-4.67.93,9.56,9.56,0,0,0-3.89,3.14,17,17,0,0,0-2.63,5.92,35.52,35.52,0,0,0-1,9.35,34.63,34.63,0,0,0,1,9.29,16.9,16.9,0,0,0,2.63,6,9.56,9.56,0,0,0,3.89,3.14,12,12,0,0,0,4.67.93,16,16,0,0,0,2.91-.32,12.68,12.68,0,0,0,2.73-1.07,12.85,12.85,0,0,0,2.36-2,14.55,14.55,0,0,0,1.9-3l4.9-1.62v8h9V133.47h-9v6.2l-4.48,1.48A14.71,14.71,0,0,0,168.1,137.77Zm-5.41,21.28a19.63,19.63,0,0,1-.79,3.47,3.78,3.78,0,0,1-1,1.66,1.84,1.84,0,0,1-1.16.46,1.63,1.63,0,0,1-1.11-.46,3.08,3.08,0,0,1-1.06-1.66,13.15,13.15,0,0,1-.79-3.47,39.33,39.33,0,0,1-.32-5.78,39.84,39.84,0,0,1,.32-5.79,13.15,13.15,0,0,1,.79-3.47,3.47,3.47,0,0,1,1.06-1.71,1.88,1.88,0,0,1,1.11-.41,2.15,2.15,0,0,1,1.16.41,4.49,4.49,0,0,1,1,1.67,21.53,21.53,0,0,1,.79,3.47,60.31,60.31,0,0,1,0,11.61Zm9.11-9.72,2.73-.92v7.45l-2.73.87c.1-1,.14-2.17.14-3.46S171.9,150.54,171.8,149.33Z"/><rect class="cls-3" x="185.49" y="133.47" width="9.02" height="39.13"/></g></g></g></svg>