<svg xmlns="http://www.w3.org/2000/svg" xmlns:xlink="http://www.w3.org/1999/xlink" viewBox="0 0 400.05 300.05"><defs><style>.cls-1{fill:#fdac9e;}.cls-2{isolation:isolate;}.cls-3{fill:none;}.cls-4{fill:#fdae7a;}.cls-5{mix-blend-mode:screen;}.cls-11,.cls-5{opacity:0.4;}.cls-6{fill:#db8952;}.cls-12,.cls-7{fill:#fff;}.cls-7{stroke:#d9c0bc;stroke-miterlimit:10;stroke-width:1px;}.cls-8{fill:#7e6b7f;}.cls-9{fill:#3f3634;}.cls-10{fill:#d9c0bc;}.cls-13{fill:#4c3c35;}.cls-14{fill:#b1aba6;}.cls-15,.cls-18{fill:#3a7c4d;}.cls-15,.cls-16,.cls-17,.cls-30,.cls-31,.cls-32{fill-rule:evenodd;}.cls-16,.cls-22{fill:#336d42;}.cls-17{fill:#539666;}.cls-19{fill:#4c705b;}.cls-20{fill:#df562e;}.cls-21{fill:#d34a2a;}.cls-23{fill:#6d4491;}.cls-24{fill:#679573;}.cls-25{fill:#59377c;}.cls-26{fill:#ff4040;}.cls-27{fill:#f90;}.cls-28{fill:#a3cb40;}.cls-29{fill:#309b48;}.cls-30{fill:#d1492a;}.cls-31{fill:#fcc244;}.cls-32{fill:#edb443;}.cls-33{fill:#ffdc48;}.cls-34{fill:#5b6899;}.cls-35{fill:#ddc2a4;}.cls-36{fill:#290920;}.cls-37{fill:#f6afa5;}.cls-38{fill:#8a8a88;}.cls-39{clip-path:url(#clip-path);}.cls-40{fill:#e27b6d;}.cls-41{fill:#f2e2d4;}.cls-42{fill:#68ae45;}.cls-43{fill:#ba5778;}.cls-44{fill:#a5b79f;}.cls-45{fill:#4e3e37;}.cls-46{fill:#ffd200;}.cls-47{fill:#ffe642;}.cls-48{fill:#ffffdc;}.cls-49{fill:#83bf2f;}.cls-50{opacity:0.17;}.cls-51{fill:#559945;}.cls-52{fill:#4d883b;}</style><clipPath id="clip-path"><path class="cls-1" d="M180.77,207.15a10.67,10.67,0,0,1,7.68-2.34h0s3.93.2,4.87.38,5.15,2.4,5,3.08a.74.74,0,0,1-.34.61c.84.53,1.48,1,1.43,1.31-.11.68-.42,1.15-3.2.14a7.37,7.37,0,0,0-.75-.22c1.37.8,4.16,3,4,3.52s-.59,1.08-3.18-.34a17.14,17.14,0,0,0-4.35-1.46c1.73.69,3.83,1.59,4.09,2.05.57,1-1.11,1.52-2.42.74a18,18,0,0,0-3.92-1.34v0c-2.66.76-5.05,1.75-6.92,1.13C179.33,213.33,177.79,209.4,180.77,207.15Z"/></clipPath></defs><g class="cls-2"><g id="Layer_2" data-name="Layer 2"><g id="Layer_3" data-name="Layer 3"><g id="evt_cook"><rect class="cls-3" x="0.05" width="400" height="300"/><rect class="cls-4" x="197.8" y="217.63" width="94.88" height="77.45"/><g class="cls-5"><path class="cls-4" d="M273,223.37H197.8V222.2H273A.59.59,0,0,1,273,223.37Z"/><path class="cls-4" d="M260.45,226.29h-45.3a.59.59,0,0,0,0,1.17h45.3A.59.59,0,0,0,260.45,226.29Z"/><path class="cls-4" d="M292.68,222.49v1.17H282.63a.59.59,0,0,1,0-1.17Z"/><path class="cls-4" d="M285.59,226.58H269.8a.59.59,0,0,0,0,1.17h15.79A.59.59,0,0,0,285.59,226.58Z"/><path class="cls-4" d="M200.83,228h-3v-1.17h3A.59.59,0,0,1,200.83,228Z"/><path class="cls-4" d="M230.06,233.45H197.8v-1.17h32.26A.59.59,0,0,1,230.06,233.45Z"/><path class="cls-4" d="M292.68,232v1.17H251.53a.59.59,0,0,1,0-1.17Z"/><path class="cls-4" d="M246.13,232h-3.94a.59.59,0,0,0,0,1.17h3.94A.59.59,0,0,0,246.13,232Z"/><path class="cls-4" d="M221.14,239H197.8v-1.17h23.34A.59.59,0,0,1,221.14,239Z"/><path class="cls-4" d="M257.68,238h-26.6a.59.59,0,0,0,0,1.17h26.6A.59.59,0,0,0,257.68,238Z"/><path class="cls-4" d="M270.53,237.69h-5.4a.58.58,0,0,0,0,1.16h5.4A.58.58,0,0,0,270.53,237.69Z"/><path class="cls-4" d="M292.68,237.69v1.16h-11a.58.58,0,0,1,0-1.16Z"/><path class="cls-4" d="M292.68,246.16v1.17h-43a.59.59,0,0,1,0-1.17Z"/><path class="cls-4" d="M216.32,248.35H197.8v-1.17h18.52A.59.59,0,0,1,216.32,248.35Z"/><path class="cls-4" d="M223.63,242.8H207.55a.59.59,0,0,0,0,1.17h16.08A.59.59,0,0,0,223.63,242.8Z"/><path class="cls-4" d="M240.29,246h-8.63a.59.59,0,0,0,0,1.17h8.63A.59.59,0,0,0,240.29,246Z"/><path class="cls-4" d="M214.86,252.44H203.17a.59.59,0,0,0,0,1.17h11.69A.59.59,0,0,0,214.86,252.44Z"/><path class="cls-4" d="M270.39,252.44H229.18a.59.59,0,0,0,0,1.17h41.21A.59.59,0,0,0,270.39,252.44Z"/><path class="cls-4" d="M286.17,251.86H277a.59.59,0,0,0,0,1.17h9.21A.59.59,0,0,0,286.17,251.86Z"/><path class="cls-4" d="M223.2,258.59H197.8v-1.17h25.4A.59.59,0,0,1,223.2,258.59Z"/><path class="cls-4" d="M250.52,256.83H230.2a.59.59,0,0,0,0,1.17h20.32A.59.59,0,0,0,250.52,256.83Z"/><path class="cls-4" d="M288.65,256.68H259.28a.59.59,0,0,0,0,1.17h29.37A.59.59,0,0,0,288.65,256.68Z"/><path class="cls-4" d="M207.41,263.7H197.8v-1.17h9.61A.59.59,0,0,1,207.41,263.7Z"/><path class="cls-4" d="M235.61,262.38H213.54a.59.59,0,0,0,0,1.17h22.07A.59.59,0,0,0,235.61,262.38Z"/><path class="cls-4" d="M252.56,261.36h-9.5a.59.59,0,0,0,0,1.17h9.5A.59.59,0,0,0,252.56,261.36Z"/><path class="cls-4" d="M292.68,263v1.17H260.16a.59.59,0,0,1,0-1.17Z"/><path class="cls-4" d="M226.55,268.66H197.8V267.5h28.75A.58.58,0,0,1,226.55,268.66Z"/><path class="cls-4" d="M245.25,267.79h-8.47a.59.59,0,0,0,0,1.17h8.47A.59.59,0,0,0,245.25,267.79Z"/><path class="cls-4" d="M292.68,270.13v1.17H255.93a.59.59,0,0,1,0-1.17Z"/><path class="cls-4" d="M222.75,275.23H197.8v-1.16h24.95A.58.58,0,0,1,222.75,275.23Z"/><path class="cls-4" d="M234.88,274.51h-7.75a.59.59,0,0,0,0,1.17h7.75A.59.59,0,0,0,234.88,274.51Z"/><path class="cls-4" d="M292.68,276.85V278H252.42a.59.59,0,0,1,0-1.17Z"/><path class="cls-4" d="M234.44,281.38H197.8v-1.17h36.64A.59.59,0,0,1,234.44,281.38Z"/><path class="cls-4" d="M209.45,288.54H197.8v-1.17h11.65A.59.59,0,0,1,209.45,288.54Z"/><path class="cls-4" d="M227.57,287.08H215.44a.59.59,0,0,0,0,1.17h12.13A.59.59,0,0,0,227.57,287.08Z"/><path class="cls-4" d="M281.79,284.3H239.26a.59.59,0,0,0,0,1.17h42.53A.59.59,0,0,0,281.79,284.3Z"/><path class="cls-4" d="M292.68,281.66v1.17h-2.13a.59.59,0,0,1,0-1.17Z"/><path class="cls-4" d="M268.64,290.44H246.57a.59.59,0,0,0,0,1.17h22.07A.59.59,0,0,0,268.64,290.44Z"/><path class="cls-4" d="M292.68,289.41v1.17H283.1a.59.59,0,0,1,0-1.17Z"/></g><rect class="cls-6" x="236.68" y="217.62" width="2.05" height="77.45"/><rect class="cls-6" x="224.21" y="225.69" width="7.31" height="2.24"/><rect class="cls-6" x="243.89" y="225.69" width="7.31" height="2.24"/><rect class="cls-7" x="292.68" y="213.57" width="75.22" height="81.51"/><rect class="cls-8" x="193.81" y="212.77" width="176.41" height="4.85"/><path class="cls-9" d="M351,228.41a2.41,2.41,0,1,1,2.41-2.41A2.42,2.42,0,0,1,351,228.41Zm0-3.65a1.24,1.24,0,1,0,1.24,1.24A1.24,1.24,0,0,0,351,224.76Z"/><path class="cls-9" d="M342.57,228.41A2.41,2.41,0,1,1,345,226,2.41,2.41,0,0,1,342.57,228.41Zm0-3.65a1.24,1.24,0,1,0,0,2.48,1.24,1.24,0,0,0,0-2.48Z"/><path class="cls-9" d="M334.16,228.41a2.41,2.41,0,1,1,2.41-2.41A2.41,2.41,0,0,1,334.16,228.41Zm0-3.65A1.24,1.24,0,1,0,335.4,226,1.24,1.24,0,0,0,334.16,224.76Z"/><path class="cls-9" d="M359.38,228.41a2.41,2.41,0,1,1,2.41-2.41A2.41,2.41,0,0,1,359.38,228.41Zm0-3.65a1.24,1.24,0,1,0,1.24,1.24A1.24,1.24,0,0,0,359.38,224.76Z"/><rect class="cls-10" x="292.68" y="287.81" width="75.22" height="1.9"/><path class="cls-10" d="M361.21,238.14v38.58a4,4,0,0,1-4,4H303.37a3.49,3.49,0,0,1-1-.13,4,4,0,0,1-3-3.87V238.14a4,4,0,0,1,4-4h53.85a4,4,0,0,1,3.73,2.57A3.84,3.84,0,0,1,361.21,238.14Z"/><g class="cls-11"><path class="cls-12" d="M348.83,234.16,302.4,280.59a4,4,0,0,1-3-3.87v-14.6l28-28Z"/></g><g class="cls-11"><path class="cls-12" d="M361.21,238.14v9.8l-32.78,32.78H317l44-44A3.84,3.84,0,0,1,361.21,238.14Z"/></g><g class="cls-11"><polygon class="cls-12" points="361.21 254.63 361.21 260.37 340.86 280.72 335.12 280.72 361.21 254.63"/></g><rect class="cls-6" x="297.08" y="208.75" width="28.16" height="4.02"/><rect class="cls-13" x="335.35" y="208.75" width="28.16" height="4.02"/><path class="cls-9" d="M379.37,199.42l-19.89,6.4a1,1,0,0,1-1.29-.66h0a1,1,0,0,1,.66-1.28l19.89-6.41a1,1,0,0,1,1.29.66h0A1,1,0,0,1,379.37,199.42Z"/><path class="cls-14" d="M359.27,208.75H339.4a4,4,0,0,1-4-4V203h27.87v1.75A4,4,0,0,1,359.27,208.75Z"/><rect class="cls-3" x="332.28" y="185.99" width="59.61" height="67.58"/><path class="cls-15" d="M320.93,163.47c-3.6,4.63-7.51,7.76-13.65,8.24h-.06a1.47,1.47,0,0,1-.06-2.93,16,16,0,0,0,11.77-5.86l.15-.34.15-.31c-.11-.43-.49-1.34-.69-1.89-1.13-3.13-2.86-6.57-2-7.88,1.48-2.18,4.36-3.17,8.15-9.11,6.58-10.3,17.18-4.15,10.79,6.64-3.59,6.07-3.17,9.08-4.45,11.38C330.06,163.23,323.24,162.88,320.93,163.47Z"/><path class="cls-16" d="M336.23,139.89a8,8,0,0,0-6.9,1.22c-2.09,1.59-3.51,4-5,6.15-.18.25-.35.5-.53.74a16,16,0,0,0-3.52,4.89c-.86,2-.6,3.71-.45,5.77a15.61,15.61,0,0,1-.23,4.39,10.73,10.73,0,0,1-2.9,3.3,23.49,23.49,0,0,1-6,3.25,10.36,10.36,0,0,1-4.89.91,2,2,0,0,1,0-.25,1.47,1.47,0,0,1,1.42-1.48,16,16,0,0,0,11.77-5.86l.15-.34.15-.31c-.11-.43-.49-1.34-.69-1.89-1.13-3.13-2.86-6.57-2-7.88,1.48-2.18,4.36-3.17,8.15-9.11S333.85,137,336.23,139.89Z"/><path class="cls-17" d="M307.2,169.67a16.78,16.78,0,0,0,13.43-8.36c1.53-3.33.59-8.22,1.06-12.28.25,3.47,1,7.17.28,10.62,1.24-1.8,2.39-3.72,3.55-5.63a.09.09,0,0,0,0-.05,95,95,0,0,1,1.44-9.89v0a.58.58,0,0,1,.07-.21c.1.2-.23,5.4-.42,8.34,1.85-3.12,3.48-6.23,5.28-9.39a78.65,78.65,0,0,1-5,10.21c2.35-1.4,7.57-4.46,7.8-4.47-.09.12,0,.06-.15.15h0c-.87.72-8,5.91-8.53,5.82-.88,1.53-1.75,3-2.66,4.49,2.6-1.66,5.71-2.59,8.51-3.77-3.41,2.25-8,3.83-10.28,6.7a.57.57,0,0,1-.38.27c-3.38,4.6-7.53,8.08-14,8.58a.58.58,0,1,1,0-1.15Z"/><path class="cls-18" d="M172,89.4a2.64,2.64,0,0,0-.09-.68s.75.69.77.18-.61-.85-.61-.85.39.07.23-.36-2.92-.86-2.56-1.52,3.73,2,4,1.33-.35-.85-.45-.9c.18.08,1.83.78,1.65-.12s-2.48-.93-2.14-1.28,3.45.07,3.25-.54-1.21-.56-1.21-.56,1.29-1,1.06-1.27-.87-.11-.87-.11.4-.2.16-.47-1.81,1.77-1.77,1,.94-1.44.75-1.7-1.12.37-1.12.37l-.08-.59s-1.76,2.44-2,2,1.71-1.49.89-2.19-1.58,1.65-2,1.13,0-1.75-.47-1.39-.41,1.29-.41,1.29-.21-.84-.53-.66.66,1-1,2.1a12.94,12.94,0,0,1-2.18,1.25,26.17,26.17,0,0,0,1.56-2.32,28.56,28.56,0,0,1,2.24-2.12c.75-.56,4.21-.58,4.35-1.11s-1.48-.61-1.37-.91,2-.28,2.06-.59-.81-.49-.81-.49,1-.5.72-1.15-1.12.29-1.12.29a.79.79,0,0,0-.15-.77c-.3-.37-.88.83-.88.83s.12-.62-.23-.59-1.81,1.53-2.12,1.16,3.49-2,3.4-2.26-.33-.09-.33-.09a1.57,1.57,0,0,0,.18-1.24c-.22-.6-1.57,1.18-1.79.79s1.43-1.43,1.21-1.83-.46.64-.72.33.26-1.4-.13-1.5-.8,1.12-.8,1.12-.13-.78-.57-.88-.12,2-.55,2-.27-1.86-.76-1.82,0,.48-.13.73-.29-.23-.51,0,.7,3.8.13,4.11.08-2.51-.4-2.84-.23.8-.46.78-1-2.22-1.46-1.92.22.65.09,1.07-.69-.53-1.06-.23,1.3,1,1.15,1.61-1.25-1-1.5-.75.41,1.33.41,1.33-.48-.34-.7.15,1.09.89,2,3.1a3.27,3.27,0,0,1-.27,3.49l0,0a23.8,23.8,0,0,1-2.17,3c-.07-.7-.29-1.67-.39-3.06-.17-2.28,1.4-2.93,1-3.27s-1.23,1.25-.39-.26-.39-1.21-.71-.63c-.21.39.28-1.4-.09-1.63s-.43,1.46-1.14,1.58,1.27-2.42,1.17-2.7-.36.06-.36.06.08-1-.24-1.41-.48,1.45-.84,1.51.11-1.63,0-1.86-.42.8-.42.8.09-1.11-.46-1.25-.28,1.8-.69,1.85-.2-.95-.94-.86,1.13,3,.88,3.65-1.22-2.35-1.54-2.37-.29.61-.29.61-.43-.78-.92-.57.44,1,.44,1-.43-.38-.77-.24,1.2,1.23.95,1.51-.91-.84-1.06-.43.87.91.87.91-.83.16-.46.54,2.88,1.14,2.79,1.7-2.47-.79-2.66-.5,1,.79.72.77-1.46-.83-1.7-.35a.69.69,0,0,0,.16.83s-.82-.09-.84.36,1.33.38,1.14.47-.31.12-.28.5,2.72.11,2.7.62-1.53-.18-1.48.23,1.25.49,1.29.81-1.16-.35-1.35-.21.13.8,1,.75,3-.43,3.79,1a2,2,0,0,1,.24.54,13.84,13.84,0,0,1-1.29,1.14,25.74,25.74,0,0,1-4.45,3.09l.26.76c.17,0,1-.35,4.68-3.21a14.7,14.7,0,0,0,1.66-1.5,2,2,0,0,1,2.51.77c1.17,1.74,2.25,3,2.49,2.18s-.75-2.6.48-1.6,1.21,2.21,1.66,1.93-.18-.92.21-1S172,89.92,172,89.4Z"/><polygon class="cls-19" points="66.28 147.09 57.69 139.54 58.78 138.77 64.32 143.63 61.25 137.07 63.15 136.69 67.39 146.33 66.28 147.09"/><path class="cls-18" d="M60.77,133.41l6,13.22-11.53-8.41c-.27.63-.53,1.26-.8,1.88l11.32,7.69,2.91-1.47L62.71,133Z"/><path class="cls-20" d="M104.16,171.16c-9.89-.49-17.59-8.81-21.7-17.19-2-3.9-3.15-8.08-6.94-10.9-4.35-3.25-8.09-.7-10.92,2.72-3.64,4.36-4,8.89.78,12.89a56.44,56.44,0,0,0,5.67,3.8c.24.14,1.49-1.39,1.73-1.25s-.53,2-.29,2.1c2.23,1.29,4.46,2.51,6.4,3.64,4.23,2.26,8.24,2.93,12.94,3.73,3.62.68,8.37,2.62,12.07,1.46a9.49,9.49,0,0,0,2.24-1.24,5.66,5.66,0,0,1-2.52.18"/><path class="cls-21" d="M77.31,155.48a12.92,12.92,0,0,1,4-3.68c-.14-.14-.27-.29-.41-.44A6.33,6.33,0,0,0,77.31,155.48Z"/><path class="cls-21" d="M83.43,161.45c-1.76.19-2.81,1.68-3.6,3.29C80.87,163.48,82.36,162.68,83.43,161.45Z"/><path class="cls-21" d="M75.7,162.25a9.92,9.92,0,0,1,3.48-3.17c-2.09-.05-4.19,2.16-4.71,4.3a8.81,8.81,0,0,1,1.18-1.09Z"/><path class="cls-21" d="M82.46,154c-.77-1.51-1.42-3.07-2.15-4.57.11.65.21,1.29.32,1.94a18.6,18.6,0,0,0,1.06,4.23,23.82,23.82,0,0,0,2.67,4.29c1,1.5,2.36,2.79,3.38,4.31.72,1.06,1.67,2.61.67,3.78-1.15,1.35-4.13.83-5.6.54-.41-.07-.81-.17-1.21-.27a49.52,49.52,0,0,0,10.23,2.48c3.62.68,8.37,2.62,12.07,1.46a9.49,9.49,0,0,0,2.24-1.24,5.66,5.66,0,0,1-2.52.18l.54.06C94.27,170.67,86.57,162.35,82.46,154Z"/><path class="cls-18" d="M277.05,71.14c-.1-2.08,2.12-3.2,1.67-4.79s-1.79-1.09-2-3,2.07-3,2.59-4.51c.57-1.69-.56-3.36,2-4.5s5.34,1.41,6.37,4.09,3.3,1,5.32,4.56-.89,4.62-2.18,7.81c-.81,2-1.53,2.56-2.5,6.79-.47,2-.37,1.27-.37,1.27s-1.62-4.38-6.06-4C278.86,75.13,277.16,73.21,277.05,71.14Z"/><path class="cls-22" d="M286.29,76.4c1.27-2.56-1.11-5.44-1.52-8.12s1.35-3.62,3.06-5a4.32,4.32,0,0,0,1.53-3.17A5.61,5.61,0,0,1,293,62.94c2,3.54-.89,4.62-2.18,7.81-.81,2-1.53,2.56-2.5,6.79-.47,2-.37,1.27-.37,1.27A7.17,7.17,0,0,0,286.29,76.4Z"/><path class="cls-23" d="M288.19,83.08l-1.2.06s-.56-11.37-.62-13.1c-.17-4.49-2.44-10.63-2.44-10.63s3.16,6,3.43,10.2Z"/><path class="cls-24" d="M298.25,75.05c3.58-.44,4.74,3.32,6.51,2.15,2.2-1.45,4.81.84,5.08,2.38,2.08.43,1.35,4.21,1.35,4.21l-.14-.07.06.1a7.67,7.67,0,0,1-4.62.26,5.57,5.57,0,0,1-2.87-2.24s-.05,2.7-3.66,2.37-7-3.39-7-3.39S293.86,75.59,298.25,75.05Z"/><path class="cls-24" d="M286.72,65.87c1-1.36,3.09-1.07,3.91-2.5s-.78-1.94.41-3.81,3.57-.61,5-1.31,2.65-3.23,5.26-2.18,2.74,4.8,1.54,7.42,3.46,3.49,2.31,7.43-5.72,1.67-8.9,3a15,15,0,0,0-6.18,5.55c-1.15,1.77-1.3.47-1.3.47s2.9-4.54-.5-7.42C286,70.55,285,68.24,286.72,65.87Z"/><path class="cls-18" d="M293.53,79.08a6.42,6.42,0,0,0,7.38,3.1c1-.34,2-.71,3-1-.3.09.88.63,1.06.73.49.28,1,.58,1.48.84A15.24,15.24,0,0,0,310,84.27a6.56,6.56,0,0,1-3.48-.07A5.57,5.57,0,0,1,303.63,82s-.06,2.71-3.67,2.37-7-3.38-7-3.38A9.18,9.18,0,0,1,293.53,79.08Z"/><path class="cls-18" d="M289.94,75.77a8.69,8.69,0,0,0,1.69-1.92c.91-1.38,1.73-3.49,3.32-4.21,1-.45,2-.12,3.08-.08a10.34,10.34,0,0,0,2.72-.2A4.93,4.93,0,0,0,304.17,67a4,4,0,0,1,1,4c-1.14,3.91-5.73,1.67-8.91,3a15,15,0,0,0-6.18,5.55c-1.14,1.77-1.3.46-1.3.46A7.84,7.84,0,0,0,289.94,75.77Z"/><path class="cls-23" d="M287.6,83.2l1.09.5s3.33-10.63,4.17-12.53a43.77,43.77,0,0,1,4.94-8.47,26.41,26.41,0,0,0-5.24,7.49C291.15,73.2,287.6,83.2,287.6,83.2Z"/><path class="cls-23" d="M288,82.41l.62,1s6.81-3.86,8.82-4.39c5.85-1.53,9.64.73,9.64.73s-3.43-2.76-9.33-1.7C294.48,78.67,288,82.41,288,82.41Z"/><path class="cls-23" d="M276.72,103.12c.46.42.79.55,1.16.39a1.11,1.11,0,0,0,.24-.16,12.61,12.61,0,0,1-4.95-16.06C276.07,81,283,80,289.31,82.93s9.69,8.55,6.78,14.88a12.61,12.61,0,0,1-15.58,6.66,2.7,2.7,0,0,1-1.94,1.2,2.84,2.84,0,0,1-2.43-1.82,1.86,1.86,0,0,0-1.12-1.21A1.94,1.94,0,0,1,276.72,103.12Z"/><path class="cls-25" d="M276.72,103.12c.46.42.79.55,1.16.39a1.11,1.11,0,0,0,.24-.16,12.59,12.59,0,0,1-5.81-8.1l.17.25c2.46,3.35,7.15,3.69,10.95,3.46s8-.59,11-3.23a10.55,10.55,0,0,0,2.65-3.8,10.31,10.31,0,0,1-1,5.88,12.61,12.61,0,0,1-15.58,6.66,2.7,2.7,0,0,1-1.94,1.2,2.84,2.84,0,0,1-2.43-1.82,1.86,1.86,0,0,0-1.12-1.21A1.94,1.94,0,0,1,276.72,103.12Z"/><path class="cls-26" d="M87,57.15,98.55,83.64,92.24,86.4,86.77,73.88l-4,1.76,1.53,3.5c2.39,5.46,0,10-5,12.23s-10.07.87-12.45-4.59L61.68,75.11c-2.37-5.42,0-10,5.06-12.24s10-.85,12.42,4.6l1.21,2.78,4-1.77L80.66,59.9A3.44,3.44,0,0,1,87,57.15ZM73,69.81A2.93,2.93,0,0,0,69,68a3,3,0,0,0-1.39,4.14L73,84.42c.88,2,2.57,2.44,4,1.82a2.93,2.93,0,0,0,1.37-4.16Z"/><path class="cls-27" d="M102.26,60.34a4.47,4.47,0,0,1-4.18-5.28l.07-.51c.35-2.68,2.26-4.17,5.09-3.8l4.9.64.15-1.17c.06-.43-.09-.56-.59-.63l-6.8-.89a1.91,1.91,0,0,1-1.58-2.27,1.94,1.94,0,0,1,2.12-1.82l9.12,1.19c2.73.36,3.65,1.84,3.38,3.93l-.81,6.15-8.48-1.11a.82.82,0,0,0-1,.71v.11c-.08.56.32.83.81.9l8.91,1.16a1.91,1.91,0,0,1,1.57,2.3,1.85,1.85,0,0,1-2.11,1.77Zm-.67,9c-3-.39-3.66-1.54-3.28-4.4l.24-1.87A2.49,2.49,0,0,1,101.63,61,2.44,2.44,0,0,1,104,63.83l-.16,1.2c0,.38.08.5.45.55l14.82,1.94a2.07,2.07,0,1,1-.53,4.1ZM115.46,65l2.13-16.32a2.7,2.7,0,0,1,5.35.7l-2.13,16.32Z"/><path class="cls-28" d="M129.45,58.83c1.26-4.49,5.07-6.08,9.33-4.89s6.72,4.52,5.46,9l-2.68,9.53c-1.27,4.55-5.1,6.11-9.33,4.92s-6.72-4.51-5.45-9.06ZM131.8,70a2.39,2.39,0,0,0,1.59,3.2,2.44,2.44,0,0,0,3.08-1.89l2.78-9.9a2.44,2.44,0,1,0-4.68-1.31Zm10.6,10.85L148.52,59a2.7,2.7,0,0,1,5.19,1.46L147.6,82.28Z"/><path class="cls-27" d="M157.07,138.46c4.34-.72,6.57,1.85,7.07,4.86s-.87,6.11-5.13,6.81l-56.55,9.37c-4.26.71-6.54-1.7-7-4.79s.79-6.16,5.12-6.88l7.19-1.2-1.15-7c-.77-4.63,2.22-6.63,6.11-7.28s7.38.36,8.14,4.92l1.15,7L135.63,142l-1.16-7c-.76-4.63,2.23-6.64,6.12-7.28s7.38.36,8.13,4.91l1.16,7Zm-43.9-8.57c-12,2-20.51-5.43-22.14-15.27l-.28-1.69c-1.63-9.84,4.07-19.61,16-21.6L132.86,87c12-2,20.59,5.42,22.22,15.26l.28,1.69c1.63,9.84-4.15,19.62-16.12,21.61Zm-6.93-17.72c.63,3.82,4.19,6.17,8.82,5.41l18.43-3.06c4.63-.76,7.31-4.15,6.68-8l-.31-1.84c-.63-3.81-4.26-6.16-8.89-5.39l-18.43,3.06c-4.63.76-7.24,4.14-6.61,8Z"/><path class="cls-26" d="M172.63,136.29c-6.39-.37-8.74-2.84-8.36-9.23l.59-10.14c.38-6.39,3-8.47,9.38-8.09l9.77.57.45-7.71c0-.68-.12-1.44-1.23-1.5l-12.36-.73a4.17,4.17,0,0,1-4.23-4.64,4.22,4.22,0,0,1,4.75-4.18l15.26.9c7.07.41,8.86,2.53,8.52,8.34l-1.1,18.75-16.27-.95c-1.79-.11-2.4.28-2.5,2.07l-.34,5.76c-.11,1.8.45,2.25,2.24,2.36l15.69.92a4.34,4.34,0,1,1-.51,8.66Zm27,3.81,2.6-44.36a5.29,5.29,0,0,1,10.57.62l-2.61,44.36Z"/><path class="cls-28" d="M262.05,145.91a4,4,0,0,1,4.73,3.86c.18,2.21-1,4.27-4,4.52l-40.6,3.37c-3.06.25-4.54-1.59-4.72-3.81a4,4,0,0,1,4-4.58L225,149l-1.25-15.08c-.27-3.27,1.7-4.5,4.49-4.73s4.95.71,5.21,3.92l1.25,15.08,4.27-.35-1.25-15.08c-.27-3.27,1.7-4.49,4.5-4.72s4.94.7,5.2,3.92L248.71,147Zm-40.5-26.26a4.55,4.55,0,1,1-.75-9.07L253,107.91c6.22-.52,8.32,1.7,8.75,6.87l.48,5.79c.68,8.23.08,14.54-1,18a6.07,6.07,0,0,1-7.71,3.66A4.17,4.17,0,0,1,251,137c1.1-4,1.39-8.76.85-15.35l-.27-3.17a1.24,1.24,0,0,0-1.42-1.21Z"/><path class="cls-29" d="M274.51,118.57c-3.54-.2-5.77-2.17-5.57-5.78.15-2.46,1.77-4.21,4.47-4.75,5.68-1.64,9-4.94,9.78-12.25l.24-2c.44-3.21,3.21-5,6.75-4.75s6,2.64,5.81,5.93l-.1,1.83a26.09,26.09,0,0,1-.38,3.15c9.2,1.17,14.59,7.89,13.46,19.69L296.63,119c.7-5.36-1.2-8.77-4.95-9.74C287.12,115.69,279.82,118.88,274.51,118.57ZM323,142.64c2.53.15,3.49,2.24,3.38,4.13a3.42,3.42,0,0,1-3.82,3.46l-42.81-2.48c-5.76-.33-8.64-4.25-8.39-8.67l.09-1.52c.25-4.3,3.52-7,9.27-6.7l31.94,1.85.09-1.51c.05-.76-.12-1.09-.95-1.14L276.19,128c-2.47-.14-3.38-2-3.27-3.87a3.48,3.48,0,0,1,3.69-3.53L318.55,123c5.56.32,7.43,2.08,7.15,6.95l-.6,10.25L286.2,138a1.16,1.16,0,0,0-1.39,1.06l0,.32c0,.57.38,1.1,1.27,1.15Zm3.13-21.07-12.65-.74,1.41-24.35a6.34,6.34,0,0,1,12.65.74Z"/><circle class="cls-27" cx="158.39" cy="53.64" r="1.86"/><circle class="cls-27" cx="61.71" cy="101.9" r="1.86"/><circle class="cls-26" cx="71.59" cy="102.96" r="2.95"/><circle class="cls-26" cx="153.58" cy="51.61" r="1.23"/><circle class="cls-29" cx="57.19" cy="70.47" r="1.23"/><path class="cls-30" d="M345.34,106.5a4.07,4.07,0,0,0-4.44-2.38,1.34,1.34,0,0,1-1.37-.47,4.07,4.07,0,0,0-6.77,4.35,4,4,0,0,0,.75,1.16c.59.63.43.63.22,1.43a4.07,4.07,0,0,0,.2,2.7,4.37,4.37,0,0,0,5.38,2.1,3.6,3.6,0,0,0,2.26-2.31c.18-.6.28-.81,1-1a5.07,5.07,0,0,0,.72-.24,4.08,4.08,0,0,0,2.09-5.38Zm-1.79.37c1,2.29-.89,3.41-1.75,3.79s-.68.22-1,.22c-.13.91-.54,2.39-1.67,2.89s-3.67-.88-4.15-2,.35-1.9.75-2.61a3.17,3.17,0,0,1-1-1.18c-.38-.87-.86-2-.38-2.69a6.45,6.45,0,0,1,2-1.37c1.3-.57,2.7.49,3.38,1.7C341,105.08,342.56,104.57,343.55,106.87Z"/><path class="cls-31" d="M344.34,106.77a3.45,3.45,0,0,0-4.47-1.8,3.44,3.44,0,0,0-6.15,3.07,3.33,3.33,0,0,0,1.13,1.4,3.44,3.44,0,1,0,6.42,2.15,3.4,3.4,0,0,0,1.3-.29,3.44,3.44,0,0,0,1.77-4.53Zm-1,.45c.85,2-.88,3.42-2.72,3.46a3.06,3.06,0,0,1-1.38,2.37,2.54,2.54,0,0,1-2.14.27,2.94,2.94,0,0,1-1.52-1.56c-.7-1.39,0-2,.35-2.65-.35-.25-.46-.18-.83-1s-1.41-2.45.49-3.54a2.84,2.84,0,0,1,4,1.3C340.87,105.32,342.5,105.19,343.35,107.22Z"/><path class="cls-32" d="M337.76,106.38c-.2,0-.35-.46-.35-.72s.73-.29.72.06S338,106.4,337.76,106.38Z"/><path class="cls-32" d="M337,106.63c-.18.05-.61-.34-.78-.59s.42-.49.65-.14S337.13,106.59,337,106.63Z"/><path class="cls-32" d="M336.75,107.27c-.06.12-.75,0-1.12-.1s-.29-.58.23-.42S336.81,107.15,336.75,107.27Z"/><path class="cls-32" d="M337.25,110.26c.07.19-.29.51-.53.6s-.55-.55-.22-.69S337.19,110.07,337.25,110.26Z"/><path class="cls-32" d="M337.8,110.91c.11.15-.08.7-.24,1s-.62-.2-.39-.55S337.69,110.76,337.8,110.91Z"/><path class="cls-32" d="M338.46,110.85c.13,0,.31.68.35,1.07s-.43.49-.48,0S338.33,110.84,338.46,110.85Z"/><path class="cls-32" d="M341.18,108.76c.07-.19.55-.19.79-.11s0,.78-.29.67S341.1,108.94,341.18,108.76Z"/><path class="cls-32" d="M341.19,107.91c0-.18.52-.47.81-.56s.33.56-.06.67S341.18,108.09,341.19,107.91Z"/><path class="cls-32" d="M340.66,107.52c-.09-.1.21-.72.44-1s.64-.09.33.36S340.75,107.62,340.66,107.52Z"/><rect class="cls-33" y="273.5" width="400" height="26.55"/><polygon class="cls-34" points="159.81 257.5 154.18 277.57 212.49 277.57 213.45 258.31 159.81 257.5"/><path class="cls-26" d="M166,217.5s-7.25,40.84-7.17,41,55.38,1.17,55.38,1.17-6.49-37-8.48-43.59S166,217.5,166,217.5Z"/><path class="cls-26" d="M226.36,223.93a6.29,6.29,0,0,1-.62.88c-2.71-1.89-7.3-4.92-9.08-4.61-1.94.34-8.6-1.86-10.52-1.45a22.82,22.82,0,0,1-2-2.73,66,66,0,0,1-5.53-11.27c-.15-.34-.29-.69-.42-1-1.8-4.47-3.32-8.57-4.74-10.76-3.53-5.43-12.23-12.25-7.34-11.85a99.45,99.45,0,0,1,11.42,1.82c14.59,4.56,19.77,18.38,24.18,30A83.27,83.27,0,0,0,226.36,223.93Z"/><path class="cls-26" d="M167.34,185.08c-3.79,4.14-13,13.95-19,23.47a31.32,31.32,0,0,0,2.91,1.81,28,28,0,0,0,4.43,1.71c3,1,6.07,1.7,9.12,2.49,2,.53,4.09,1.08,6.13,1.63,9.4-9.93,25.32-23.93,26.07-27.13C198.87,181.21,175.65,176,167.34,185.08Z"/><path class="cls-26" d="M167.33,237.54c1.25,1.06,9.52,8.55,19.2,8.55s17.94-7.49,19.19-8.55-1.39-26.19-1.46-30.94c-.09-6.15-8.22-20.83-12.17-22.69a11.07,11.07,0,0,0-11.13,0c-3.94,1.86-12.08,16.54-12.17,22.69C168.73,211.35,166.22,236.58,167.33,237.54Z"/><path class="cls-35" d="M204.6,216.12a7.22,7.22,0,0,1,.8.08,18.87,18.87,0,0,0-.12-3.1,39.83,39.83,0,0,0-2.44-9.24c-.36-1.82-.82-3.62-1.27-5.41,0-.15-.27-.09-.24.07.17.95.34,1.92.53,2.88-.7-1.67-1.45-3.3-2.19-4.85a.11.11,0,0,0-.21.09C201.56,202.54,204.89,209.59,204.6,216.12Z"/><path class="cls-36" d="M170,197.05c0-.13-.18-.18-.22-.06-.53,1.64-1.05,3.35-1.52,5.1.06-1,.1-2,.14-2.93a.12.12,0,0,0-.24,0c-.21,1.83-.42,3.68-.54,5.53a40.34,40.34,0,0,0-1.18,9.48c.06,4.26,1.46,8.66,4.87,11.39.35.29.73-.25.42-.54C164,217.66,168.12,206,170,197.05Z"/><path class="cls-1" d="M179.16,165.34s.56,8.14,1,13.91c.1,1.27.2,2.44.28,3.37a6.34,6.34,0,0,0,1.38.57c1.21.33,4,3.52,4.28,4.76.2-1.53,4.15-4.77,5.48-5.17.05-.7.11-1.51.17-2.4.4-5.81,1-14.75,1-14.75Z"/><path class="cls-37" d="M179.16,165.34s.56,8.14,1,13.91a12.76,12.76,0,0,0,11.58,1.13c.4-5.81,1-14.75,1-14.75Z"/><path class="cls-1" d="M172.55,160.15s-3.54-6.78-6.56-5.59-.92,10.61,2.23,12.27a3.39,3.39,0,0,0,4.74-1.22Z"/><path class="cls-36" d="M166.66,157.24s-.07.07,0,.09c2.2,1.24,3.14,3.55,3.71,5.89a1.89,1.89,0,0,0-2.72-.87.08.08,0,0,0,0,.14,2.08,2.08,0,0,1,2.18,1,9.47,9.47,0,0,1,.85,2c.09.22.48.16.43-.09v-.06C171.56,162.39,169.8,158,166.66,157.24Z"/><path class="cls-1" d="M201.48,160.89s3.88-6.58,6.83-5.25.39,10.65-2.84,12.14a3.4,3.4,0,0,1-4.68-1.46Z"/><path class="cls-36" d="M207.51,158.29c.05,0,.07.07,0,.09-2.25,1.13-3.31,3.39-4,5.7a1.88,1.88,0,0,1,2.76-.73c.06,0,0,.13-.06.13a2.09,2.09,0,0,0-2.23.9,10.57,10.57,0,0,0-.95,1.94c-.09.22-.48.13-.42-.11l0-.06C202.36,163.18,204.34,158.84,207.51,158.29Z"/><path class="cls-1" d="M204.82,158.93c-2,20-13.27,20-16.72,20.19-3.92.27-18.91-1.81-19-21.87s9.81-25.46,18.8-25S206.8,139,204.82,158.93Z"/><path class="cls-36" d="M181.57,156.78c-2.66-.16-2.75,5.72-.28,5.86S183.8,156.91,181.57,156.78Z"/><path class="cls-36" d="M193.87,156.94c2.66.12,2.25,6-.21,5.87S191.64,156.84,193.87,156.94Z"/><path class="cls-36" d="M195.16,154.15a12,12,0,0,1-1.33-.41,2.28,2.28,0,0,1-1.27-.67.72.72,0,0,1,.09-.87,1.75,1.75,0,0,1,1.77-.25A2.56,2.56,0,0,1,196,153,.76.76,0,0,1,195.16,154.15Z"/><path class="cls-36" d="M179.84,153.86a12.44,12.44,0,0,0,1.35-.28,2.21,2.21,0,0,0,1.33-.55.71.71,0,0,0,0-.87,1.75,1.75,0,0,0-1.74-.42,2.55,2.55,0,0,0-1.63.92A.75.75,0,0,0,179.84,153.86Z"/><path class="cls-38" d="M174.62,237.4l30.81-71a2.54,2.54,0,0,1,2.84-.52c1.54.78,1.07,2,1.07,2l-29.77,68.86Z"/><path class="cls-1" d="M164.1,218.56A144.51,144.51,0,0,0,182.44,214c2.84-.87,2.55-7.41-1.5-8-10-1.43-21.53-2.77-26.82.05-4.19,2.24-5.52,3.38-5.23,6.35C149.38,217.49,154.59,220.08,164.1,218.56Z"/><path class="cls-36" d="M191.34,168.79a9.24,9.24,0,0,1-5.16.94,7.61,7.61,0,0,1-4.39-2.1A15.6,15.6,0,0,0,191.34,168.79Z"/><path class="cls-36" d="M173.51,150.73a17.47,17.47,0,0,0-1.84,5.48,13.38,13.38,0,0,0-.28,3c.05,1,.41,2.07.38,3-.71-.6-1-2.05-1.41-2.87a26.22,26.22,0,0,1-1.4-4c-.58-2.15-1.19-4.16-.26-6.32Z"/><path class="cls-1" d="M225.28,225.94a3,3,0,0,1-.25.25,6.75,6.75,0,0,1-.82.7c-3.51,2.55-8.77,1.06-14.82-5.25a144.65,144.65,0,0,1-11.69-14.83,1.91,1.91,0,0,1-.34-.85c-.36-2.27,2.74-5.67,5.66-5.37a3.27,3.27,0,0,1,1.32.41l.13.07c7.46,4.12,15,7.72,18.8,13.34a14.52,14.52,0,0,1,1.66,3.29C226.51,222.2,227.3,223.75,225.28,225.94Z"/><path class="cls-36" d="M168.6,153.14c-1-2.9-.5-7.11.12-10.08.69-3.32,2.26-5.16,4.6-7.36,1.52-1.42,1.89-3.85,3.87-5.41,3.38-2.68,8.06-3.53,12.29-3.25,6.45.43,14.68,4,17.21,10.41,2,5,.94,9.68,1.07,14.72a10.94,10.94,0,0,1-2.8-1.08c-2.25-.94-4.58-1.4-6.9-2.11-5.11-1.55-11.29-3.07-14.4-7.8a13.17,13.17,0,0,1-5.62,8.49c-2.29,1.47-6.86,3.61-9,.79Z"/><path class="cls-36" d="M200.79,148.36c.94,1.61,2,6,2.32,7.85a13.38,13.38,0,0,1,.28,3c0,1-.41,2.07-.38,3,.71-.6,1-2.05,1.41-2.87a26.17,26.17,0,0,0,1.39-4c.59-2.15,1.2-4.16.27-6.32Z"/><path class="cls-36" d="M188.08,162.13c1,1.28,1.78,3.15.79,4.72L188,166c.87-1,.47-2.64-.1-3.75l.23-.16Z"/><path class="cls-1" d="M205.4,203.84a10.69,10.69,0,0,0-4.14-6.89h0s-3.05-2.48-3.87-3-5.43-1.67-5.81-1.09a.8.8,0,0,0-.16.69c-1-.17-1.79-.22-1.93,0-.38.58-.46,1.14,2.28,2.25a7.48,7.48,0,0,1,.7.34c-1.55-.32-5.06-.58-5.31,0s-.28,1.19,2.6,1.87a17.67,17.67,0,0,1,4.2,1.83c-1.74-.64-3.9-1.38-4.4-1.22-1.1.36-.2,1.88,1.3,2.18a17.57,17.57,0,0,1,3.81,1.63l0,0c1.46,2.35,2.57,4.68,4.37,5.48C202.33,209.39,206.1,207.51,205.4,203.84Z"/><path class="cls-1" d="M180.77,207.15a10.67,10.67,0,0,1,7.68-2.34h0s3.93.2,4.87.38,5.15,2.4,5,3.08a.74.74,0,0,1-.34.61c.84.53,1.48,1,1.43,1.31-.11.68-.42,1.15-3.2.14a7.37,7.37,0,0,0-.75-.22c1.37.8,4.16,3,4,3.52s-.59,1.08-3.18-.34a17.14,17.14,0,0,0-4.35-1.46c1.73.69,3.83,1.59,4.09,2.05.57,1-1.11,1.52-2.42.74a18,18,0,0,0-3.92-1.34v0c-2.66.76-5.05,1.75-6.92,1.13C179.33,213.33,177.79,209.4,180.77,207.15Z"/><g class="cls-39"><path class="cls-40" d="M203.63,205.52a13.1,13.1,0,0,0-3.3-2.57,3.07,3.07,0,0,0-3.09,5.3l.36.26-.18-.14.58.51,3.72-4.81c-1.88-1.26-3.61-2.74-5.53-3.93a48.37,48.37,0,0,0-6-3.08,3.29,3.29,0,0,0-2.36-.31,3.07,3.07,0,0,0-1.84,1.41c-.7,1.33-.46,3.5,1.1,4.2a47.67,47.67,0,0,1,6,3.08c1.92,1.19,3.65,2.67,5.53,3.92a3.07,3.07,0,0,0,3.72-4.82,16.33,16.33,0,0,0-2-1.59l-3.09,5.3.73.43c.08.06.74.58.38.26l.34.31c.21.2.41.4.6.61a3.09,3.09,0,0,0,4.34,0,3.14,3.14,0,0,0,0-4.34Z"/><path class="cls-1" d="M199.71,210.28a1.92,1.92,0,0,0-.82-.75l-1.2-.75-.62,1.06a15.58,15.58,0,0,1,2,1l.62-1.06a62.53,62.53,0,0,1-5.39-3.69,15.46,15.46,0,0,0-5.94-2.33c-.77-.17-1.1,1-.33,1.19a23.89,23.89,0,0,1,3.12.83,10.26,10.26,0,0,1,2.69,1.49,54.8,54.8,0,0,0,5.23,3.57.61.61,0,0,0,.62-1.06,15.58,15.58,0,0,0-1.95-1,.61.61,0,0,0-.62,1.06l.83.52c.21.14.64.3.75.54.33.72,1.39.1,1.06-.62Z"/></g><path class="cls-29" d="M244.63,258.23l10.79,6.62s.35,7.72,9.18,5.79c0,0,3.92,9,13.37,4.9,0,0,10.16,6.46,13-.24s-8.26-9.3-8.26-9.3a12.4,12.4,0,0,0-14.49-3.93s-5.59-6.7-11.75-1.55Z"/><path class="cls-41" d="M285.68,272.87q-5-2.08-10.13-4c-3.39-1.31-6.8-2.57-10.21-3.82s-6.84-2.44-10.29-3.59-6.91-2.26-10.42-3.2l2.58.87,2.57.9,5.13,1.83,10.24,3.71,10.25,3.7Q280.53,271.09,285.68,272.87Z"/><path class="cls-29" d="M244.57,257.5l9.61-8.23s-.87-7.68,8.15-7.17c0,0,2.46-9.46,12.43-6.94,0,0,9-8,12.88-1.82S281,243.83,281,243.83A12.4,12.4,0,0,1,267.26,250s-4.46,7.5-11.36,3.38Z"/><path class="cls-41" d="M282.79,236.58q-4.8,2.58-9.57,5.2l-9.53,5.28-9.53,5.27L249.38,255l-2.4,1.29-2.41,1.26c3.32-1.47,6.57-3.11,9.79-4.79s6.41-3.42,9.59-5.18,6.34-3.55,9.48-5.37S279.7,238.48,282.79,236.58Z"/><path class="cls-42" d="M242.62,258.2l17,1.08s4.5,9.13,14.14,2.16c0,0,9.45,8.75,18.73-1.13,0,0,15.67,2.45,15.58-7.13s-14.89-6.88-14.89-6.88a16.31,16.31,0,0,0-19.56,2.88s-10.28-5.14-15,4.33Z"/><path class="cls-41" d="M298.17,251.61c-4.67.07-9.33.31-14,.66l-3.49.27-3.48.32c-1.17.1-2.33.24-3.49.35l-3.48.39c-2.31.27-4.63.59-6.94.9l-3.46.51-1.74.26-1.72.3c-4.61.73-9.19,1.68-13.74,2.7l1.73-.27,1.72-.29,1.73-.29,1.73-.26,3.45-.53,3.46-.5c4.62-.66,9.24-1.27,13.87-1.8,2.31-.29,4.63-.53,6.95-.79l3.47-.36,3.48-.35c2.32-.22,4.64-.44,7-.64S295.84,251.8,298.17,251.61Z"/><path class="cls-43" d="M230.59,243.48c-.35,0-.68.06-1,.11C219,245,218.27,255.42,216,257.74s-5.72,1.73-5.58,3.55,3.35.65,6.07,2.63c2.12,1.55,4,8.41,10.3,10.91a12.34,12.34,0,0,0,1.59.52,14.07,14.07,0,0,0,3.79.39c.33,0,.66,0,1-.05l.55-.05a17.21,17.21,0,0,0,10.16-4.16,13.78,13.78,0,0,0,1.44-1.52,16.38,16.38,0,0,0,3.27-11.7c-.55-6.91-4.57-13.11-12.46-14.55-.51-.09-1-.16-1.57-.21a22.39,22.39,0,0,0-3.4-.06Z"/><path class="cls-41" d="M227.55,265.24l-1.54.12.75,9.47a12.34,12.34,0,0,0,1.59.52Z"/><path class="cls-41" d="M233.17,269.1l-1.55.12.52,6.52c.33,0,.66,0,1-.05l.55-.05Z"/><path class="cls-41" d="M244.88,264.78l-1.55.12.52,6.58a13.78,13.78,0,0,0,1.44-1.52Z"/><path class="cls-44" d="M192.09,234.5H218.3a1.51,1.51,0,0,0,0-3H192.09a1.51,1.51,0,0,0,0,3Z"/><rect class="cls-45" x="199.44" y="229.49" width="23.32" height="7" rx="1.75" transform="translate(422.19 465.98) rotate(180)"/><path class="cls-14" d="M119.77,224.36s2.51,36.83,14.26,36.83h62.23c11.76,0,14.27-36.83,14.27-36.83Z"/><path class="cls-38" d="M113.63,234.5h26.21a1.51,1.51,0,0,0,0-3H113.63a1.51,1.51,0,1,0,0,3Z"/><rect class="cls-45" x="109.17" y="229.49" width="23.32" height="7" rx="1.75"/><polygon class="cls-38" points="119.56 272.13 124.31 263.76 205.99 263.76 210.73 272.13 213.35 270.64 207.75 260.75 122.55 260.75 116.94 270.64 119.56 272.13"/><polygon class="cls-38" points="134.52 271.93 137.68 263.76 192.62 263.76 195.78 271.93 198.59 270.84 194.68 260.75 135.62 260.75 131.71 270.84 134.52 271.93"/><path class="cls-12" d="M233.53,262.36c-22,.48-44.54,1.42-44.54,1.42-2.35,3.65.3,7.55.3,7.55s22.78-.46,44.55-.92l2.29,0,1.55,0,4.58-.1,1.55,0L253,270l1.56,0,17.72-.37c9.93-.24,44.56,12.94,44.56,12.94s3.33.7,3.92-5.29c0,0-13.82-4.72-27-8.83l33.39,7a5.68,5.68,0,0,0,1.54-5.27l-19.38-3.67,20.48.09s1.36-1.91-.24-6l-36.58,1.08,29.65-4.52s.44-3.2-.87-5.31c0,0-19.68,4.31-45.48,8.39l31.27-8.6a6.22,6.22,0,0,0-1.79-4.72S275,260.05,254.2,261.88l-1.55.12c-.72.05-1.43.07-2.12.09h0l-7,.08-1.56,0-4.57.08-1.56,0Z"/><path class="cls-28" d="M305.71,247S275,260.05,254.2,261.88l.32,8.1,17.72-.37c9.93-.24,44.56,12.94,44.56,12.94s3.33.7,3.92-5.29c0,0-13.82-4.72-27-8.83l33.39,7a5.68,5.68,0,0,0,1.54-5.27l-19.38-3.67,20.48.09s1.36-1.91-.24-6l-36.58,1.08,29.65-4.52s.44-3.2-.87-5.31c0,0-19.68,4.31-45.48,8.39l31.27-8.6A6.22,6.22,0,0,0,305.71,247Z"/><path class="cls-28" d="M243.5,262.17l.31,8L253,270l-.31-8c-.72.05-1.43.07-2.12.09h0Z"/><path class="cls-28" d="M237.37,262.28l.31,8.06,4.58-.1-.32-8Z"/><path class="cls-28" d="M233.53,262.36l.31,8.05,2.29,0-.32-8.06Z"/><rect class="cls-13" x="69.71" y="269.83" width="231.44" height="9.72" rx="4.19" transform="translate(370.86 549.38) rotate(180)"/><path class="cls-46" d="M95.25,276.21a10.29,10.29,0,1,0,5.36-13.53A10.29,10.29,0,0,0,95.25,276.21Z"/><circle class="cls-47" cx="104.69" cy="272.13" r="8.64" transform="translate(-107.43 72.08) rotate(-25.63)"/><path class="cls-48" d="M103.56,272.62a1.23,1.23,0,1,0,.64-1.63A1.23,1.23,0,0,0,103.56,272.62Z"/><path class="cls-48" d="M96.73,275.57a8.67,8.67,0,1,0,4.52-11.41A8.67,8.67,0,0,0,96.73,275.57Zm.74-.32a7.87,7.87,0,1,1,10.34,4.1A7.87,7.87,0,0,1,97.47,275.25Z"/><polygon class="cls-48" points="102.09 264.47 104.46 271.3 104.2 271.42 101.1 264.74 102.09 264.47"/><polygon class="cls-48" points="108.53 279.36 105.16 272.9 104.89 273.02 107.65 279.89 108.53 279.36"/><polygon class="cls-48" points="97.19 274.87 104.03 272.49 104.14 272.76 97.47 275.86 97.19 274.87"/><polygon class="cls-48" points="112.08 268.43 105.63 271.8 105.74 272.07 112.31 269.39 112.08 268.43"/><polygon class="cls-48" points="101.1 279.38 104.35 272.92 104.62 273.03 101.98 279.9 101.1 279.38"/><polygon class="cls-48" points="107.3 264.39 105.02 271.31 105.28 271.42 108.3 264.65 107.3 264.39"/><polygon class="cls-48" points="97.37 268.51 103.83 271.76 103.72 272.03 96.85 269.39 97.37 268.51"/><polygon class="cls-48" points="112.36 274.71 105.44 272.43 105.33 272.7 112.1 275.71 112.36 274.71"/><path class="cls-49" d="M77.21,277.25,75.44,273a27.53,27.53,0,0,1,9.63.73h0l.09,0,.76.25c.46.12.94.17,1-.14a1.39,1.39,0,0,0-.43-.91,12.23,12.23,0,0,0-10-2.41l1.41-4.62s6.8.54,11.55,4.17l.11.06c1.15.63,1.51-.05,1.62-.56,0-2.37.27-7.28,3.08-10.48,4.42-5,3.12,4,3.12,4s-6.45,6.29,4.55,18.53a11.25,11.25,0,0,1-7.53,5.62S88.66,272.86,77.21,277.25Z"/><path d="M89.18,259.83V260A.49.49,0,0,1,89.18,259.83Z"/><g class="cls-50"><path d="M81.33,276.42l-.29-1a15,15,0,0,1,11,4.84c4.38,4.69,6.71,4.52,7.18,4.59a11.37,11.37,0,0,1-4.89,2.41S90,276.31,81.33,276.42Z"/></g><path class="cls-51" d="M69.46,277.93a8.14,8.14,0,0,1-.39-6.18c-.91-.77-4.08-3.8-3-7.64a6.75,6.75,0,0,1,3.36-4.36,4.37,4.37,0,0,1,3.18-.69,5.43,5.43,0,0,1,1.7-4.55,7.19,7.19,0,0,1,2.82-1.83l.22-.07.17,0a5.26,5.26,0,0,1,1.08-.17h.14a7.08,7.08,0,0,1,3.46.93s1.77-4.55,6.58-3.86c4.47.64,5.16,3.79,5.16,3.79a6.46,6.46,0,0,1,5.32,1.65c2.11,2.19,2.73,7.46-2.82,9.77-3.17,1.32-5.6-1.3-5.6-1.3s0,3-2.18,3.07a3.84,3.84,0,0,1-3.23-1.72s1.65,2.79-.69,4.59a3,3,0,0,1-3.88.29c.33.31,1,1.27-.69,2.86,0,0,2.41,2,.58,6.15S71.52,282.17,69.46,277.93Z"/><path class="cls-52" d="M69.28,277.31c2.2,2.57,5.79,3.3,7.94.34,2.74-3.78-1-6.4-1-6.4a3.72,3.72,0,0,0,2.63-1.39c1.4-1.45-.27-3.35-.27-3.35a2.85,2.85,0,0,0,3.19-.32C83.4,265,83,262.63,83,262.63c5.59,2.29,6.16-1.69,6.22-2.61.07.38,1,2.71,5,2.85,4.84.17,6.37-5,6.37-5l.14.12c.37,2.37.09,5.49-3.59,7a6.59,6.59,0,0,1-5.86-.49,2.68,2.68,0,0,1-2.59,2,3.84,3.84,0,0,1-3.23-1.72s1.65,2.79-.69,4.59a3,3,0,0,1-3.88.29c.33.31,1,1.27-.69,2.86a5.3,5.3,0,0,1,.64,6.68c-2.76,4.42-9.25,3-11.31-1.22-.09-.18-.16-.37-.23-.55Z"/></g></g></g></g></svg>