<svg width="96" height="85" viewBox="0 0 96 85" fill="none" xmlns="http://www.w3.org/2000/svg">
<path d="M90.2113 38.4406V77.8602L66.8594 73.6562V45.8984C64.8438 43.9691 62.9147 41.9823 61.1006 39.9667V73.6562L34.8694 78.3785V15.5778L52.7792 12.3528C53.7294 9.96291 55.0251 7.74574 56.6664 5.81651L32.5083 10.1645C32.3355 10.1933 32.1628 10.2221 31.99 10.2221C31.8173 10.2221 31.6445 10.2221 31.4717 10.1645L3.45527 5.09665C3.2825 5.06786 3.10974 5.03906 2.93698 5.03906C1.35331 5.03906 0 6.33481 0 7.97609V76.5356C0 77.9466 1.00779 79.1559 2.41869 79.4151L31.4717 84.6557C31.6445 84.6845 31.8173 84.7133 31.99 84.7133C32.1628 84.7133 32.3355 84.7133 32.5083 84.6557L63.4617 79.0695C63.6345 79.0408 63.8073 79.012 63.98 79.012C64.1528 79.012 64.3256 79.012 64.4983 79.0695L92.5148 84.1086C92.6875 84.1374 92.8603 84.1662 93.0331 84.1662C94.6167 84.1662 95.9701 82.8704 95.9701 81.2291V30.4645C94.4728 33.1136 92.486 35.8203 90.2113 38.4694V38.4406ZM29.1106 78.3785L5.75878 74.1745V11.3738L29.1106 15.5778V78.4073V78.3785Z" fill="#3F5BC0"/>
<path d="M95.7399 18.2845C95.7111 18.0541 95.6823 17.8525 95.6536 17.6222C95.5096 16.7584 95.3368 15.8657 95.0777 15.0307C95.0777 15.0307 95.0777 15.0019 95.0777 14.9731C94.7897 14.0517 94.4442 13.1878 94.0699 12.324C94.0123 12.2088 93.9547 12.1225 93.9259 12.0073C93.5228 11.1722 93.0909 10.366 92.5726 9.58854C91.6512 8.20641 90.5858 6.93946 89.4053 5.78768C89.3189 5.7013 89.2037 5.61491 89.1173 5.52853C88.6278 5.06782 88.0808 4.6359 87.5625 4.23278C87.4473 4.1464 87.3033 4.03122 87.1881 3.94484C86.5547 3.48413 85.8924 3.081 85.2302 2.70668C85.2302 2.70668 85.2014 2.70668 85.1726 2.67788C84.4527 2.27476 83.7329 1.92923 82.9554 1.61249C82.8115 1.5549 82.6387 1.49731 82.4659 1.43972C81.8901 1.20937 81.2854 1.0078 80.6807 0.835038C80.4504 0.77745 80.1912 0.691066 79.9321 0.633477C79.3562 0.489505 78.7803 0.374328 78.2044 0.287944C77.9741 0.25915 77.715 0.201561 77.4846 0.172767C76.6784 0.0863833 75.8433 0 75.0083 0C74.3173 0 73.655 0.0287944 72.9928 0.115178C72.7624 0.115178 72.5608 0.172767 72.3305 0.201561C71.8986 0.25915 71.4379 0.316739 71.006 0.403122C70.7468 0.460711 70.4877 0.5183 70.2285 0.575889C69.8542 0.662272 69.4511 0.748655 69.0768 0.863833C68.8176 0.950216 68.5585 1.0366 68.2993 1.12298C67.9538 1.23816 67.5795 1.38213 67.234 1.49731C66.9748 1.61249 66.7157 1.69887 66.4853 1.81405C66.1398 1.95802 65.8231 2.13079 65.4775 2.30355C65.2472 2.41873 64.988 2.53391 64.7577 2.67788C64.4122 2.87944 64.0954 3.081 63.7787 3.28256C63.5484 3.42654 63.3468 3.54171 63.1452 3.68569C62.7709 3.94484 62.3966 4.23278 62.0223 4.52073C61.8783 4.6359 61.7343 4.72229 61.6192 4.83746C61.0721 5.29817 60.5538 5.78768 60.0643 6.27719C60.0067 6.33477 59.9491 6.42116 59.8627 6.47875C59.4308 6.93946 58.9989 7.42896 58.5958 7.91847C58.567 7.94726 58.5382 8.00485 58.5094 8.03365C57.6456 9.15663 56.8682 10.366 56.2347 11.633C54.8238 14.4548 54.0176 17.6222 54.0176 20.9911C54.0176 25.5119 57.2425 30.7525 61.1297 35.5035C62.0511 36.6265 63.0301 37.7207 63.9803 38.7861C64.9593 39.8515 65.9095 40.8593 66.8597 41.7807C67.4931 42.4142 68.0978 42.9901 68.6737 43.566C68.7888 43.6811 68.8752 43.7675 68.9904 43.8539C69.4799 44.3146 69.9406 44.7753 70.4013 45.1785C70.5165 45.2936 70.6317 45.38 70.7468 45.4952C71.2075 45.9271 71.6394 46.3302 72.0426 46.7046C72.1001 46.7622 72.1577 46.8197 72.2153 46.8773C72.6472 47.2805 73.0503 47.626 73.3959 47.9427C73.8566 48.3746 74.4324 48.5762 75.0083 48.5762C75.5842 48.5762 76.1601 48.3746 76.6208 47.9427C77.3406 47.2805 78.262 46.4454 79.2986 45.4664C82.4659 42.5294 86.7562 38.2966 90.2115 33.7759C91.3921 32.221 92.4862 30.6085 93.4076 29.0248C93.4076 28.996 93.4652 28.9384 93.494 28.9096C93.6956 28.5641 93.8683 28.2185 94.0411 27.873C94.1851 27.5851 94.329 27.3259 94.4442 27.038C94.5882 26.75 94.7033 26.4621 94.8185 26.1741C94.9625 25.8574 95.0777 25.5119 95.1928 25.1951C95.2792 24.936 95.3656 24.6768 95.452 24.4465C95.5672 24.0721 95.6535 23.6978 95.7399 23.3235C95.7687 23.1219 95.8263 22.9204 95.8551 22.7188C95.9415 22.1429 95.9991 21.567 95.9991 21.0199C95.9991 20.0697 95.9127 19.1483 95.7975 18.2269L95.7399 18.2845ZM74.9795 28.1322C70.9196 28.1322 67.6371 24.8496 67.6371 20.7896C67.6371 16.7296 70.9196 13.447 74.9795 13.447C79.0395 13.447 82.322 16.7296 82.322 20.7896C82.322 24.8496 79.0395 28.1322 74.9795 28.1322Z" fill="#3F5BC0"/>
</svg>
