<svg width="34" height="30" viewBox="0 0 34 30" fill="none" xmlns="http://www.w3.org/2000/svg">
<path d="M31.33 13.35V27.04L23.22 25.58V15.94C22.52 15.27 21.85 14.58 21.22 13.88V25.58L12.11 27.22V5.41L18.33 4.29C18.66 3.46 19.11 2.69 19.68 2.02L11.29 3.53C11.23 3.54 11.17 3.55 11.11 3.55C11.05 3.55 10.99 3.55 10.93 3.53L1.2 1.77C1.14 1.76 1.08 1.75 1.02 1.75C0.47 1.75 0 2.2 0 2.77V26.58C0 27.07 0.35 27.49 0.84 27.58L10.93 29.4C10.99 29.41 11.05 29.42 11.11 29.42C11.17 29.42 11.23 29.42 11.29 29.4L22.04 27.46C22.1 27.45 22.16 27.44 22.22 27.44C22.28 27.44 22.34 27.44 22.4 27.46L32.13 29.21C32.19 29.22 32.25 29.23 32.31 29.23C32.86 29.23 33.33 28.78 33.33 28.21V10.58C32.81 11.5 32.12 12.44 31.33 13.36V13.35ZM10.11 27.22L2 25.76V3.95L10.11 5.41V27.23V27.22Z" fill="#444444"/>
<path d="M33.2498 6.35C33.2398 6.27 33.2298 6.2 33.2198 6.12C33.1698 5.82 33.1098 5.51 33.0198 5.22C33.0198 5.22 33.0198 5.21 33.0198 5.2C32.9198 4.88 32.7998 4.58 32.6698 4.28C32.6498 4.24 32.6298 4.21 32.6198 4.17C32.4798 3.88 32.3298 3.6 32.1498 3.33C31.8298 2.85 31.4598 2.41 31.0498 2.01C31.0198 1.98 30.9798 1.95 30.9498 1.92C30.7798 1.76 30.5898 1.61 30.4098 1.47C30.3698 1.44 30.3198 1.4 30.2798 1.37C30.0598 1.21 29.8298 1.07 29.5998 0.94C29.5998 0.94 29.5898 0.94 29.5798 0.93C29.3298 0.79 29.0798 0.67 28.8098 0.56C28.7598 0.54 28.6998 0.52 28.6398 0.5C28.4398 0.42 28.2298 0.35 28.0198 0.29C27.9398 0.27 27.8498 0.24 27.7598 0.22C27.5598 0.17 27.3598 0.13 27.1598 0.1C27.0798 0.09 26.9898 0.07 26.9098 0.06C26.6298 0.03 26.3398 0 26.0498 0C25.8098 0 25.5798 0.01 25.3498 0.04C25.2698 0.04 25.1998 0.06 25.1198 0.07C24.9698 0.09 24.8098 0.11 24.6598 0.14C24.5698 0.16 24.4798 0.18 24.3898 0.2C24.2598 0.23 24.1198 0.26 23.9898 0.3C23.8998 0.33 23.8098 0.36 23.7198 0.39C23.5998 0.43 23.4698 0.48 23.3498 0.52C23.2598 0.56 23.1698 0.59 23.0898 0.63C22.9698 0.68 22.8598 0.74 22.7398 0.8C22.6598 0.84 22.5698 0.88 22.4898 0.93C22.3698 1 22.2598 1.07 22.1498 1.14C22.0698 1.19 21.9998 1.23 21.9298 1.28C21.7998 1.37 21.6698 1.47 21.5398 1.57C21.4898 1.61 21.4398 1.64 21.3998 1.68C21.2098 1.84 21.0298 2.01 20.8598 2.18C20.8398 2.2 20.8198 2.23 20.7898 2.25C20.6398 2.41 20.4898 2.58 20.3498 2.75C20.3398 2.76 20.3298 2.78 20.3198 2.79C20.0198 3.18 19.7498 3.6 19.5298 4.04C19.0398 5.02 18.7598 6.12 18.7598 7.29C18.7598 8.86 19.8798 10.68 21.2298 12.33C21.5498 12.72 21.8898 13.1 22.2198 13.47C22.5598 13.84 22.8898 14.19 23.2198 14.51C23.4398 14.73 23.6498 14.93 23.8498 15.13C23.8898 15.17 23.9198 15.2 23.9598 15.23C24.1298 15.39 24.2898 15.55 24.4498 15.69C24.4898 15.73 24.5298 15.76 24.5698 15.8C24.7298 15.95 24.8798 16.09 25.0198 16.22C25.0398 16.24 25.0598 16.26 25.0798 16.28C25.2298 16.42 25.3698 16.54 25.4898 16.65C25.6498 16.8 25.8498 16.87 26.0498 16.87C26.2498 16.87 26.4498 16.8 26.6098 16.65C26.8598 16.42 27.1798 16.13 27.5398 15.79C28.6398 14.77 30.1298 13.3 31.3298 11.73C31.7398 11.19 32.1198 10.63 32.4398 10.08C32.4398 10.07 32.4598 10.05 32.4698 10.04C32.5398 9.92 32.5998 9.8 32.6598 9.68C32.7098 9.58 32.7598 9.49 32.7998 9.39C32.8498 9.29 32.8898 9.19 32.9298 9.09C32.9798 8.98 33.0198 8.86 33.0598 8.75C33.0898 8.66 33.1198 8.57 33.1498 8.49C33.1898 8.36 33.2198 8.23 33.2498 8.1C33.2598 8.03 33.2798 7.96 33.2898 7.89C33.3198 7.69 33.3398 7.49 33.3398 7.3C33.3398 6.97 33.3098 6.65 33.2698 6.33L33.2498 6.35ZM26.0398 9.77C24.6298 9.77 23.4898 8.63 23.4898 7.22C23.4898 5.81 24.6298 4.67 26.0398 4.67C27.4498 4.67 28.5898 5.81 28.5898 7.22C28.5898 8.63 27.4498 9.77 26.0398 9.77Z" fill="#444444"/>
</svg>
