<svg width="96" height="96" viewBox="0 0 96 96" fill="none" xmlns="http://www.w3.org/2000/svg">
<path d="M94.7125 44.9325L51.0538 1.26197C49.3716 -0.420655 46.6284 -0.420655 44.9462 1.26197L1.26163 44.9325C-0.420542 46.6151 -0.420542 49.359 1.26163 51.0417L44.9462 94.738C46.6284 96.4207 49.3716 96.4207 51.0538 94.738L94.7384 51.0417C96.4205 49.359 96.4205 46.6151 94.7384 44.9325H94.7125ZM48 72.3721C45.7226 72.3721 43.8852 70.5342 43.8852 68.2562C43.8852 65.9782 45.7226 64.1402 48 64.1402C50.2774 64.1402 52.1148 65.9782 52.1148 68.2562C52.1148 70.5342 50.2774 72.3721 48 72.3721ZM52.1666 57.5909C52.1666 58.264 51.649 58.8076 51.0279 58.8076H44.9721C44.351 58.8076 43.8334 58.264 43.8334 57.5909L42.9535 21.7899C42.9535 21.1169 43.4711 20.5733 44.0922 20.5733H51.9337C52.5548 20.5733 53.0724 21.1169 53.0724 21.7899L52.1925 57.5909H52.1666Z" fill="#3F5BC0"/>
</svg>
