<?xml version="1.0" encoding="UTF-8"?><svg id="_레이어_2" xmlns="http://www.w3.org/2000/svg" viewBox="0 0 37.09 37.09"><defs><style>.cls-1{fill:#444;}</style></defs><g id="_레이어_1-2"><path id="notice" class="cls-1" d="M36.6,17.36L19.73.49c-.65-.65-1.71-.65-2.36,0L.49,17.36c-.65.65-.65,1.71,0,2.36l16.88,16.88c.65.65,1.71.65,2.36,0l16.88-16.88c.65-.65.65-1.71,0-2.36ZM18.55,27.96c-.88,0-1.59-.71-1.59-1.59s.71-1.59,1.59-1.59,1.59.71,1.59,1.59-.71,1.59-1.59,1.59ZM20.16,22.25c0,.26-.2.47-.44.47h-2.34c-.24,0-.44-.21-.44-.47l-.34-13.83c0-.26.2-.47.44-.47h3.03c.24,0,.44.21.44.47l-.34,13.83Z"/></g></svg>