<svg width="96" height="87" viewBox="0 0 96 87" fill="none" xmlns="http://www.w3.org/2000/svg">
<path d="M87.0148 7.2554C76.602 -2.91775 59.6911 -2.17207 49.3848 8.1076L48.0799 9.41253C48.0799 9.41253 48 9.43916 47.9467 9.41253L46.6418 8.1076C36.3355 -2.17207 19.4247 -2.91775 9.01183 7.2554C-2.91898 18.8933 -2.99887 37.9879 8.74552 49.7323L43.3662 84.3529C45.9228 86.9095 50.0772 86.9095 52.6338 84.3529L87.2545 49.7323C98.9989 37.9879 98.919 18.8933 86.9882 7.2554H87.0148ZM55.2703 15.8573C60.6498 14.9785 63.8989 20.7308 64.3516 25.1782C64.8576 30.0251 62.5939 33.5405 58.2797 33.5405C53.9654 33.5405 50.743 29.5724 50.4767 24.7255C50.3169 21.876 50.4767 16.6296 55.297 15.8573H55.2703ZM31.675 25.2049C32.1278 20.7574 35.3502 15.0051 40.7563 15.8839C45.5766 16.6562 45.7097 21.9026 45.5766 24.7521C45.3102 29.6257 42.0879 33.5671 37.7736 33.5671C33.4593 33.5671 31.1957 30.0518 31.7017 25.2049H31.675ZM18.5991 39.5591C19.0518 35.1117 22.2742 29.3593 27.6803 30.2382C32.5006 31.0105 32.6338 36.2568 32.5006 39.1064C32.2343 43.9799 29.0119 47.9213 24.6976 47.9213C20.3834 47.9213 18.1197 44.406 18.6257 39.5591H18.5991ZM60.0107 65.2849C58.1465 65.9773 56.0693 65.7643 54.2051 65.0985L51.1691 64.0333C49.1185 63.3142 46.8815 63.3142 44.8309 64.0333L41.7949 65.0985C39.9307 65.7643 37.8535 65.9773 35.9893 65.2849C30.3701 63.1811 27.4673 56.177 30.7429 50.398C34.5778 43.6071 41.2889 36.4433 48 36.4433C54.7111 36.4433 61.4222 43.6071 65.2571 50.398C68.5327 56.177 65.6299 63.1811 60.0107 65.2849ZM71.329 47.9213C67.0147 47.9213 63.7923 43.9533 63.526 39.1064C63.3662 36.2568 63.526 31.0105 68.3463 30.2382C73.7258 29.3593 76.9748 35.1117 77.4275 39.5591C77.9335 44.406 75.6699 47.9213 71.3556 47.9213H71.329Z" fill="#3F5BC0"/>
</svg>
