<?xml version="1.0" encoding="UTF-8"?><svg id="_레이어_2" xmlns="http://www.w3.org/2000/svg" viewBox="0 0 36.05 32.4"><defs><style>.cls-1{fill:#444;}</style></defs><g id="_레이어_1-2"><path id="pets" class="cls-1" d="M32.67,2.72c-3.91-3.82-10.26-3.54-14.13.32l-.49.49s-.03.01-.05,0l-.49-.49C13.64-.82,7.29-1.1,3.38,2.72c-4.48,4.37-4.51,11.54-.1,15.95l13,13c.96.96,2.52.96,3.48,0l13-13c4.41-4.41,4.38-11.58-.1-15.95ZM20.75,5.95c2.02-.33,3.24,1.83,3.41,3.5.19,1.82-.66,3.14-2.28,3.14s-2.83-1.49-2.93-3.31c-.06-1.07,0-3.04,1.81-3.33ZM11.89,9.46c.17-1.67,1.38-3.83,3.41-3.5,1.81.29,1.86,2.26,1.81,3.33-.1,1.83-1.31,3.31-2.93,3.31s-2.47-1.32-2.28-3.14ZM6.98,14.85c.17-1.67,1.38-3.83,3.41-3.5,1.81.29,1.86,2.26,1.81,3.33-.1,1.83-1.31,3.31-2.93,3.31s-2.47-1.32-2.28-3.14ZM22.53,24.51c-.7.26-1.48.18-2.18-.07l-1.14-.4c-.77-.27-1.61-.27-2.38,0l-1.14.4c-.7.25-1.48.33-2.18.07-2.11-.79-3.2-3.42-1.97-5.59h0c1.44-2.55,3.96-5.24,6.48-5.24s5.04,2.69,6.48,5.24c1.23,2.17.14,4.8-1.97,5.59ZM26.78,17.99c-1.62,0-2.83-1.49-2.93-3.31-.06-1.07,0-3.04,1.81-3.33,2.02-.33,3.24,1.83,3.41,3.5.19,1.82-.66,3.14-2.28,3.14Z"/></g></svg>