<svg width="96" height="68" viewBox="0 0 96 68" fill="none" xmlns="http://www.w3.org/2000/svg">
<path d="M94.8107 51.1673V28.6733C94.8107 27.2513 93.673 26.1137 92.251 26.1137H68.7487C67.3267 26.1137 66.1891 24.976 66.1891 23.554V10.5489C66.1891 9.12685 67.3267 7.98923 68.7487 7.98923H85.7097C88.2435 7.98923 89.2777 4.62806 87.1317 3.2836C83.7964 1.21519 77.2809 0 73.0665 0H4.16267C2.74064 0 1.60302 1.13762 1.60302 2.55966V51.1414H0V56.2348H8.27363C8.27363 62.2074 13.1085 67.0423 19.0811 67.0423C25.0536 67.0423 29.8885 62.2074 29.8885 56.2348H64.0172C64.0172 62.2074 68.8521 67.0423 74.8247 67.0423C80.7972 67.0423 85.6321 62.2074 85.6321 56.2348H96V51.1414H94.7848L94.8107 51.1673ZM19.0811 61.3283C16.2887 61.3283 14.0135 59.0531 14.0135 56.2607C14.0135 53.4684 16.2887 51.1931 19.0811 51.1931C21.8734 51.1931 24.1487 53.4684 24.1487 56.2607C24.1487 59.0531 21.8734 61.3283 19.0811 61.3283ZM74.8247 61.3283C72.0323 61.3283 69.7571 59.0531 69.7571 56.2607C69.7571 53.4684 72.0323 51.1931 74.8247 51.1931C77.617 51.1931 79.8923 53.4684 79.8923 56.2607C79.8923 59.0531 77.617 61.3283 74.8247 61.3283Z" fill="#3F5BC0"/>
</svg>
