<?xml version="1.0" encoding="UTF-8"?><svg id="_레이어_2" xmlns="http://www.w3.org/2000/svg" viewBox="0 0 37.14 25.93"><defs><style>.cls-1{fill:#444;}</style></defs><g id="_레이어_1-2"><path id="van" class="cls-1" d="M36.67,19.78v-8.7c0-.55-.44-.99-.99-.99h-9.09c-.55,0-.99-.44-.99-.99v-5.03c0-.55.44-.99.99-.99h6.56c.98,0,1.38-1.3.55-1.82-1.29-.8-3.81-1.27-5.44-1.27H1.61c-.55,0-.99.44-.99.99v18.79h-.62v1.97h3.2c0,2.31,1.87,4.18,4.18,4.18s4.18-1.87,4.18-4.18h13.2c0,2.31,1.87,4.18,4.18,4.18s4.18-1.87,4.18-4.18h4.01v-1.97h-.47ZM7.38,23.71c-1.08,0-1.96-.88-1.96-1.96h0c0-1.08.88-1.96,1.96-1.96s1.96.88,1.96,1.96h0c0,1.08-.88,1.96-1.96,1.96ZM28.94,23.71c-1.08,0-1.96-.88-1.96-1.96h0c0-1.08.88-1.96,1.96-1.96s1.96.88,1.96,1.96h0c0,1.08-.88,1.96-1.96,1.96Z"/></g></svg>