<svg xmlns="http://www.w3.org/2000/svg" viewBox="0 0 255.02 219.03"><defs><style>.cls-1{fill:none;stroke:#be1f2d;stroke-miterlimit:10;stroke-width:7.8px;}.cls-2{fill:#762627;}.cls-3{fill:#bf6e4f;}.cls-4{fill:#bf9f6a;}.cls-5{fill:#f3b67f;}.cls-6{fill:#514d2c;}.cls-7{fill:#998154;}.cls-8{fill:#8e7347;}.cls-9{fill:#bcb575;}.cls-10{fill:#d3cc89;}.cls-11{fill:#c9c380;}.cls-12{fill:#50535e;}.cls-13{fill:#e46f28;}.cls-14{fill:#f18530;}.cls-15{fill:#f6f6f6;}</style></defs><g id="Layer_2" data-name="Layer 2"><g id="Layer_2-2" data-name="Layer 2"><path class="cls-1" d="M127.39,7.44h0A107.49,107.49,0,0,1,234.88,114.93v95.74a0,0,0,0,1,0,0H19.9a0,0,0,0,1,0,0V114.93A107.49,107.49,0,0,1,127.39,7.44Z"/><polygon class="cls-2" points="166.43 28.4 156.57 84.1 152.36 113.85 154.91 112.92 158.68 86.21 162.51 66.12 167.48 54.65 166.65 52.65 162.97 61.53 169.3 28.4 166.43 28.4"/><path class="cls-3" d="M125.72,3.29c-3.24-4.9-14.13-4.16-16.13,1.11s2,11.53,6.15,11.23c2.49-.18,5.33-.54,7.22-.8a4,4,0,0,0,3.19-2.57C127,10,127.74,6.35,125.72,3.29Z"/><path class="cls-2" d="M116.73,14.72a.31.31,0,0,1-.22-.09c-.16-.17-3.84-4.19-3.62-6.61.2-2.14.78-3.57,1.77-4.36a3.74,3.74,0,0,1,3-.67c3.12.41,6.39,1.12,7,3.28a7.13,7.13,0,0,1-.31,5.05,2.82,2.82,0,0,1-1.82,1.34c-3.53.84-4.86-.2-5.35-1.22-.69-1.42-1-3.91.39-5a3.36,3.36,0,0,1,3-.37,2.38,2.38,0,0,1,1.65,1.36,2.78,2.78,0,0,1-.19,2.31,1.47,1.47,0,0,1-1.06.7.31.31,0,0,1-.33-.27.3.3,0,0,1,.27-.33.84.84,0,0,0,.61-.43,2.16,2.16,0,0,0,.13-1.78,1.84,1.84,0,0,0-1.26-1,2.8,2.8,0,0,0-2.42.28c-1.13.85-.79,3-.21,4.24.71,1.49,2.94,1.31,4.67.89A2.19,2.19,0,0,0,123.75,11,6.6,6.6,0,0,0,124,6.42c-.49-1.82-3.72-2.47-6.47-2.84a3.2,3.2,0,0,0-2.49.55c-.86.69-1.37,2-1.55,4-.2,2.15,3.43,6.1,3.46,6.14a.29.29,0,0,1,0,.42A.29.29,0,0,1,116.73,14.72Z"/><path class="cls-4" d="M126.81,15.89s-.68-1.81-5.49-2.71-8.24.82-8.84,1.67-7.44,10.52-7.11,11,1.12.83,1.24.68S126.81,15.89,126.81,15.89Z"/><path class="cls-4" d="M102.58,33.44s-5.53.64-6.18.89S91.48,49.14,92,51.39s5.72,4,5.82,3.82S102.58,33.44,102.58,33.44Z"/><polygon class="cls-5" points="131.99 37.14 140.36 49.22 162.29 43.39 165.22 43.78 167.84 43.67 169.3 39.45 168.42 38.9 168.47 37.28 164.09 37.02 161.81 39.25 143.04 41.98 136.38 31.74 131.99 37.14"/><path class="cls-5" d="M103,90.42l-1.5,4.82a44.29,44.29,0,0,0-4.92,8.12c-1.41,3.51-6.32,20.77-6.32,20.77h4.61L111.4,90.42Z"/><path class="cls-6" d="M88.6,124.13h7.57V126l-.5,1s.6,3.16,1.31,3.66,8.92.65,10.18,2.21a4.91,4.91,0,0,1,1.25,2.76H86.59A85.21,85.21,0,0,0,88.6,124.13Z"/><rect class="cls-7" x="85.59" y="135.72" width="23.73" height="2.26"/><path class="cls-8" d="M107.13,67.14l-5.61,25.59s6.13,2.91,10.38,1.8l12.59-24.28S111.65,64,111.4,63.93,107.13,67.14,107.13,67.14Z"/><path class="cls-5" d="M139.88,61.53l13.46,1.84-6.07,38.89h-3.82s-.6-13.24-.9-16.86,2-13,2-13l-8.12-1Z"/><path class="cls-6" d="M142.25,102.26h7.57v1.91l-.5,1s.6,3.16,1.31,3.66,8.92.65,10.18,2.21a4.88,4.88,0,0,1,1.25,2.76H140.24A85.21,85.21,0,0,0,142.25,102.26Z"/><rect class="cls-7" x="139.24" y="113.85" width="23.73" height="2.26"/><path class="cls-7" d="M130.65,59.22l14.26,2.31-3.82,11.73s-19,1.11-22.78.61C112,73,107,68,107,68s4.84-6.63,5-6.53S130.65,59.22,130.65,59.22Z"/><path class="cls-5" d="M142.76,15.64a1.53,1.53,0,0,1-.78-1.1,28.1,28.1,0,0,0,.27-3.88c-.1-3.26-4.16-7-7.93-6.12s-4.76,3.41-5.11,6.22a24.8,24.8,0,0,0,.15,6l-3.18,3.84s4.4,4.78,7.86,4.68l-.53-2.64L135.12,21a12.73,12.73,0,0,0,5.77.35s.37-1.86.72-4.14C142.38,16.89,143.54,16,142.76,15.64Z"/><path class="cls-9" d="M123.91,24.65s1.41-3,4.11-3.25,5.56,2.69,7.66,6.41,2.64,4.07,2.64,4.07l-6.64,5.8S122.71,28,123.91,24.65Z"/><path class="cls-10" d="M132.85,40.36l-2.31-3.46s5.75-5.76,7.49-6l2.33,3.46S134.35,38.91,132.85,40.36Z"/><path class="cls-11" d="M134.7,25.71a2.16,2.16,0,0,0-.72-1.55,15.53,15.53,0,0,0-3.73-2.28c-2.76-2.32-7-1.33-7-1.33L112.76,35.94s-6,15.05-6.93,21a32,32,0,0,0,.5,11.37s15-.86,20.75-3.68,5.4-6.48,5.4-6.48l-4.28-2a139.73,139.73,0,0,1,4.52-16.66A41.71,41.71,0,0,0,134.7,25.71Z"/><path class="cls-9" d="M118.89,26.91l-6.13,9s-6,15.05-6.93,21a27.48,27.48,0,0,0-.3,4.34l1.65.28c.81.1,2-3.52,2.76-5.57s8.37-16.36,8.37-16.36,1.41.56,1.81.76.71-.55,4.17-4.1,6-9.35,6-9.35Z"/><path class="cls-7" d="M110.3,52.15s5-11,6.41-14.88S120.18,27,120.18,27l4-6.11s3.07-4.32,2.61-5c-2.6-3.91-12.9-1.07-12.9-1.07S106.43,25,103.12,32.18,96,55.41,97.35,57.26s9.48,2,9.48,2Z"/><path class="cls-4" d="M115.41,16.72s6.31,1.2,7.26,1.73.23,3.16-1.2,5.19-3.54,6.39-5.65,6.22-5.79-.79-6.2-1.46S113.49,17.81,115.41,16.72Z"/><path class="cls-4" d="M104.13,37a1.33,1.33,0,0,1,.88-.06c1.52.36,7.06,1.75,7.75,3s-3.88,12.57-5.35,16.2a1.45,1.45,0,0,1-1.63.87c-1.75-.36-5-1.07-6.85-1.63a1.44,1.44,0,0,1-1-1.56C98.38,50.1,100.12,38.62,104.13,37Z"/><polygon class="cls-7" points="101.04 40.77 101.42 44.04 107.89 46.44 107.32 46.9 101.04 44.63 101.04 40.77"/><path class="cls-7" d="M105.05,43.05a1,1,0,1,1-1-1A1,1,0,0,1,105.05,43.05Z"/><circle class="cls-7" cx="115.74" cy="18.76" r="0.99"/><path class="cls-7" d="M121.81,20a1,1,0,1,1-1-1A1,1,0,0,1,121.81,20Z"/><path class="cls-7" d="M123.8,19.43s1.57,0,3.73.3,4.69,3.42,4.59,6-2.61,11.29-7.88,17.61-16,11.28-16,11.28l1.55-2.81s8.63-4.61,12.75-9.23c5.66-6.35,8.46-18.09,7.31-19.34s-5.51-1.47-5.51-1.47Z"/><path class="cls-11" d="M126,20.56s3.3.66,4.12,3.24-1.32,6-4.45,9-3.34,3.51-3.34,3.51l-7.19-5.11S122.39,20.18,126,20.56Z"/><polygon class="cls-5" points="115.69 31.32 107.08 40.95 98.96 63.33 96.6 66.68 97.31 69.21 101.76 69.64 102.08 68.66 103.68 68.33 103.02 64.1 112.15 44.68 121.97 34.34 115.69 31.32"/><path class="cls-10" d="M112.76,32.91l2.82-3s6.94,4.26,7.63,5.87l-2.83,3.08S114.51,34,112.76,32.91Z"/><path class="cls-12" d="M139.24,116.1l-12.38,9.54h-7.69L113,138H84.41l-7.22-1.13L68,141.14s-17.5,5.72-24.65,7c-.53.1-22.57,5-22.57,5v11.17H224.61L199.78,150S189,131.51,188.4,129.93s-16-15-16-15l-5.72,1.12H139.24Z"/><path class="cls-7" d="M113.53,18.45l.71,2.37,6.59,1.5,2.59-1.5-.75,1.05s-2.11,1-2.22,1-6.51-1.46-6.51-1.46l-.75-2.68Z"/><polygon class="cls-10" points="110.24 63.08 126.4 57.61 117.07 62.83 119.22 60.67 110.24 63.08"/><path class="cls-13" d="M129.36,16.78a39.14,39.14,0,0,1-.67-7,6.29,6.29,0,0,1,1.56-3.91s.55-1.77,2.05-2,7.75.94,9.07,1a1.1,1.1,0,0,1,1,1.39l-1.16,1.56a5.77,5.77,0,0,1-3.35.7,4.62,4.62,0,0,1-2.35-.7s.24,2.8-.44,3.86-1.24,1.76-1.24,1.76l-.9,2.2-.45-.28.49-2.67s-.49-1.5-1.47-1.47-1.06,2.64-.49,3.32.95,1.1.95,1.1S130,17,129.36,16.78Z"/><line class="cls-1" x1="36.73" y1="188.72" x2="196.06" y2="29.39"/><rect class="cls-14" y="147.26" width="255.02" height="71.77" rx="8.51"/><path class="cls-15" d="M40.85,175.08H30v-1.36H40.85Zm-3.25,1a3.13,3.13,0,0,1,1.42.75,1.64,1.64,0,0,1,.51,1.18,1.67,1.67,0,0,1-.51,1.19,3.13,3.13,0,0,1-1.42.75,10,10,0,0,1-4.45,0,3.16,3.16,0,0,1-1.44-.75,1.61,1.61,0,0,1-.49-1.19,1.56,1.56,0,0,1,.5-1.18,3.17,3.17,0,0,1,1.43-.75,10,10,0,0,1,4.45,0Zm2-3.17H31.3V168.6h8.24V170H33v1.62H39.6Zm-6.07,4.42c-.42.15-.62.38-.61.68,0,.62.81.93,2.46.93s2.46-.31,2.47-.93c0-.3-.21-.53-.63-.68a5.45,5.45,0,0,0-1.84-.23A5.44,5.44,0,0,0,33.53,177.3Z"/><path class="cls-15" d="M46.22,171.82a3.5,3.5,0,0,0,.93,1.26,4.2,4.2,0,0,0,1.56.86l-.87,1.31a4.47,4.47,0,0,1-1.64-.93,4.7,4.7,0,0,1-1.08-1.45A4.73,4.73,0,0,1,44,174.46a4.88,4.88,0,0,1-1.73,1l-.93-1.32a4.34,4.34,0,0,0,1.63-.89,3.75,3.75,0,0,0,1-1.35,4.52,4.52,0,0,0,.32-1.6V169h1.67v1.3A3.65,3.65,0,0,0,46.22,171.82ZM51.41,180H43.25v-3.83H45v2.49h6.46ZM51,171.72h1.61v1.41H51V177H49.3v-8.71H51Z"/><path class="cls-15" d="M61,172a3.55,3.55,0,0,0,.92,1.22,4.15,4.15,0,0,0,1.52.85l-.82,1.32a4.74,4.74,0,0,1-1.65-.92,4.65,4.65,0,0,1-1.1-1.46,4.56,4.56,0,0,1-1.13,1.6,4.71,4.71,0,0,1-1.74,1l-.85-1.35a4.31,4.31,0,0,0,1.58-.87,3.76,3.76,0,0,0,1-1.31,3.93,3.93,0,0,0,.32-1.51v-.18H56.59V169.1H63v1.33H60.68v.19A3.62,3.62,0,0,0,61,172ZM66.49,180H58.31v-3.75H60v2.41h6.5Zm-.29-3H64.54v-4.26H62.6v-1.34h1.94V168.3H66.2Z"/><path class="cls-15" d="M75.93,169.13a2.86,2.86,0,0,1,1.16,1,2.55,2.55,0,0,1,.43,1.46,2.44,2.44,0,0,1-.43,1.43,2.83,2.83,0,0,1-1.16,1,4,4,0,0,1-3.33,0,2.83,2.83,0,0,1-1.16-1A2.44,2.44,0,0,1,71,171.6a2.55,2.55,0,0,1,.43-1.46,2.86,2.86,0,0,1,1.16-1,4.14,4.14,0,0,1,3.33,0Zm-2.51,1.21a1.35,1.35,0,0,0-.58.5,1.43,1.43,0,0,0-.2.76,1.28,1.28,0,0,0,.78,1.25,2,2,0,0,0,.84.17,2,2,0,0,0,.83-.17,1.28,1.28,0,0,0,.78-1.25,1.43,1.43,0,0,0-.2-.76,1.35,1.35,0,0,0-.58-.5,1.84,1.84,0,0,0-.83-.17A1.88,1.88,0,0,0,73.42,170.34Zm1,6h4.65V175.2h1.66V180h-8V175.2h1.64Zm4.65,2.39v-1.1H74.47v1.1Zm1.66-4H79.11v-6.38h1.67Z"/><path class="cls-15" d="M87.07,171.82a3.62,3.62,0,0,0,.93,1.26,4.2,4.2,0,0,0,1.56.86l-.87,1.31A4.43,4.43,0,0,1,86,172.87a4.69,4.69,0,0,1-2.86,2.6l-.92-1.32a4.3,4.3,0,0,0,1.62-.89,3.63,3.63,0,0,0,1-1.35,4.31,4.31,0,0,0,.32-1.6V169h1.67v1.3A3.82,3.82,0,0,0,87.07,171.82Zm5.2,8.15H84.1v-3.83h1.7v2.49h6.47Zm-.45-8.25h1.61v1.41H91.82V177H90.15v-8.71h1.67Z"/><path class="cls-15" d="M104.8,175.72H93.93v-1.31h4.6v-.73H95.29v-5.11h8.24v1.28H97v.67h6.3v1.2H97v.68h6.67v1.28H100.2v.73h4.6Zm-3.2.77a3.25,3.25,0,0,1,1.41.66,1.4,1.4,0,0,1,.49,1.06,1.58,1.58,0,0,1-1.08,1.46,7.37,7.37,0,0,1-3.06.5,7.46,7.46,0,0,1-3.09-.5,1.58,1.58,0,0,1-1.08-1.46,1.4,1.4,0,0,1,.49-1.06,3.3,3.3,0,0,1,1.42-.66,9.29,9.29,0,0,1,2.26-.22A9.17,9.17,0,0,1,101.6,176.49Zm-4.13,1.18c-.41.11-.61.3-.6.54s.19.44.59.56a7.31,7.31,0,0,0,1.9.18,7,7,0,0,0,1.86-.18c.4-.12.61-.3.61-.56s-.21-.43-.61-.54a7.11,7.11,0,0,0-1.86-.17A7.27,7.27,0,0,0,97.47,177.67Z"/><path class="cls-15" d="M109.84,174.42a4.15,4.15,0,0,0,1.79,2l-1,1.23a4.34,4.34,0,0,1-1.31-1.22,6.19,6.19,0,0,1-.85-1.75,6.83,6.83,0,0,1-.87,1.91,4.24,4.24,0,0,1-1.35,1.32l-1-1.23a4.38,4.38,0,0,0,1.37-1.34,6.23,6.23,0,0,0,.79-1.83,8.73,8.73,0,0,0,.24-2.06v-.64h-2V169.5h5.36v1.33h-1.8v.64A7.6,7.6,0,0,0,109.84,174.42Zm3.53,5.21H111.8v-5.92h-1.57v-1.35h1.57v-3.88h1.57Zm2.43.54h-1.58V168.29h1.58Z"/><path class="cls-15" d="M118.46,181.73h-1.38l.65-3.72h1.86Z"/><path class="cls-15" d="M134.45,175.08H123.58v-1.36h10.87Zm-3.25,1a3.13,3.13,0,0,1,1.42.75,1.64,1.64,0,0,1,.51,1.18,1.67,1.67,0,0,1-.51,1.19,3.13,3.13,0,0,1-1.42.75,8.46,8.46,0,0,1-2.21.25,8.6,8.6,0,0,1-2.24-.25,3.21,3.21,0,0,1-1.44-.75,1.61,1.61,0,0,1-.49-1.19,1.56,1.56,0,0,1,.5-1.18,3.17,3.17,0,0,1,1.43-.75,8.6,8.6,0,0,1,2.24-.25A8.46,8.46,0,0,1,131.2,176.05Zm2-3.17H124.9V168.6h8.24V170h-6.58v1.62h6.65Zm-6.08,4.42c-.42.15-.62.38-.61.68,0,.62.81.93,2.47.93s2.45-.31,2.46-.93c0-.3-.21-.53-.63-.68a7.51,7.51,0,0,0-3.69,0Z"/><path class="cls-15" d="M139.82,171.82a3.5,3.5,0,0,0,.93,1.26,4.2,4.2,0,0,0,1.56.86l-.87,1.31a4.56,4.56,0,0,1-1.64-.93,4.7,4.7,0,0,1-1.08-1.45,4.73,4.73,0,0,1-1.12,1.59,4.79,4.79,0,0,1-1.73,1l-.93-1.32a4.34,4.34,0,0,0,1.63-.89,3.75,3.75,0,0,0,1-1.35,4.52,4.52,0,0,0,.32-1.6V169h1.67v1.3A3.65,3.65,0,0,0,139.82,171.82ZM145,180h-8.17v-3.83h1.7v2.49H145Zm-.45-8.25h1.61v1.41h-1.61V177H142.9v-8.71h1.67Z"/><path class="cls-15" d="M157.58,178.86H146.7v-1.38h4.59v-1.79H148v-4h6.73v-1.31h-6.74v-1.33h8.39V173h-6.7v1.33h7v1.36H153v1.79h4.63Z"/><path class="cls-15" d="M166.89,171h-.76v5l.93-.09.11,1.24a34.78,34.78,0,0,1-5.77.37l-.18-1.37h1V171h-.77v-1.34h5.45Zm-2.26,5.13V171h-.95v5.16Zm4.71,3.53h-1.55v-4.32h-1.17v-1.36h1.17v-1h-1.17v-1.35h1.17v-3h1.55Zm2.41.56h-1.61V168.29h1.61Z"/><path class="cls-15" d="M177.3,172a3.31,3.31,0,0,0,1.68,1.21l-.83,1.25a3.92,3.92,0,0,1-1.33-.79,4,4,0,0,1-.87-1.21,4.19,4.19,0,0,1-.93,1.34,4.08,4.08,0,0,1-1.43.89l-.85-1.25a3.54,3.54,0,0,0,1.77-1.29,3.42,3.42,0,0,0,.58-2v-1h1.67v1A3.06,3.06,0,0,0,177.3,172Zm-.58,4.31c.79,0,1.47-.12,2.05-.21l.1,1.22a20.08,20.08,0,0,1-2.68.35c-1,.06-1.93.09-2.86.09H173l-.22-1.35c.84,0,1.63,0,2.37,0v-2.11h1.6Zm6.52,3.88h-1.57v-5.82h-.94v5.28h-1.55V168.48h1.55V173h.94v-4.69h1.57Z"/><path class="cls-15" d="M192.27,169.54a3.16,3.16,0,0,1,1.06,1.19h2.61v-2.44h1.65V180.2h-1.65v-4.45h-2.49a3.25,3.25,0,0,1-1.08,1.37,2.72,2.72,0,0,1-3.14,0,3.39,3.39,0,0,1-1.1-1.48,6.79,6.79,0,0,1,0-4.48,3.52,3.52,0,0,1,1.1-1.48,2.66,2.66,0,0,1,1.6-.52A2.58,2.58,0,0,1,192.27,169.54Zm-2.22,1.4a2.07,2.07,0,0,0-.53.93,6.22,6.22,0,0,0,0,3,2.07,2.07,0,0,0,.53.93,1.09,1.09,0,0,0,.78.31,1.11,1.11,0,0,0,.79-.31,2.07,2.07,0,0,0,.52-.93,6.22,6.22,0,0,0,0-3,2.07,2.07,0,0,0-.52-.93,1.12,1.12,0,0,0-.79-.32A1.13,1.13,0,0,0,190.05,170.94Zm3.87,2.41a8.17,8.17,0,0,1-.08,1.06h2.1v-2.34h-2.15A6.78,6.78,0,0,1,193.92,173.35Z"/><path class="cls-15" d="M210,176.45h-4.66v3.72h-1.64v-3.72H199.1v-1.31H210Zm-8-6.34h5v-1.37h1.67V174h-8.31v-5.25H202Zm5,2.55v-1.24h-5v1.24Z"/><path class="cls-15" d="M221.45,174.7H210.74v-.95h10.71Zm-1.32,3.4h-6.87v1h7.24v.88H212v-2.67h6.89v-.86H212v-.89h8.12Zm0-6.89h-6.77v.89h7V173h-8.19v-2.59h6.76v-.83h-6.78v-.88h8Z"/><path class="cls-15" d="M94.42,193v-.79c-1.33-.13-2.18-.76-2.17-1.71s1.1-1.74,2.79-1.72,2.78.65,2.78,1.72-.84,1.57-2.16,1.71v.75c1-.05,2.11-.14,3.09-.28l.1.89a43,43,0,0,1-7.35.46l-.13-1C92.27,193,93.33,193,94.42,193Zm4-4.61H91.67v-.93h2.75v-1.1h1.24v1.1h2.76Zm2.23,9.77H99.41v-2.3H92.83v-1h7.82Zm-7.22-7.66c0,.55.6.9,1.61.9s1.59-.35,1.59-.9-.6-.89-1.59-.87S93.43,189.92,93.43,190.48Zm7.22-.56h1.67v1h-1.67v3.38H99.41v-7.87h1.24Z"/><path class="cls-15" d="M109.47,190.13a3.12,3.12,0,1,1-3.11-2.9A2.91,2.91,0,0,1,109.47,190.13Zm-5,0a1.9,1.9,0,0,0,3.8,0,1.9,1.9,0,0,0-3.8,0Zm8.6,7.76h-8v-3.8h1.25v2.79h6.75Zm-.35-2.94h-1.24v-8.5h1.24Z"/><path class="cls-15" d="M120.35,189.37h-5.81v-1h2.3v-1.6h1.23v1.6h2.28Zm-.35,3.4a2.55,2.55,0,1,1-5.08,0,2.54,2.54,0,1,1,5.08,0Zm-4,0a1.45,1.45,0,1,0,2.88,0,1.45,1.45,0,1,0-2.88,0Zm8.57,5.37h-1.18v-5.82h-1.34v5.27h-1.18v-10.9h1.18v4.62h1.34v-4.88h1.18Z"/><path class="cls-15" d="M136.8,194h-4.75v4.09h-1.22V194h-4.7v-1H136.8Zm-1-5.91h-3.62c0,1.45,1.82,2.74,4,3l-.45,1a5.8,5.8,0,0,1-4.29-2.58,5.82,5.82,0,0,1-4.27,2.58l-.47-1c2.19-.3,4-1.59,4-3h-3.65v-1h8.68Z"/><path class="cls-15" d="M143.61,194.45l-.69,1a5.37,5.37,0,0,1-2.24-3.19,5.85,5.85,0,0,1-2.37,3.45l-.77-.93a5.86,5.86,0,0,0,2.52-5.05V187.5h1.2v2.13A5.62,5.62,0,0,0,143.61,194.45Zm1.72,3.11h-1.17v-6h-1.82v-1h1.82v-3.89h1.17Zm2.43.58h-1.19V186.43h1.19Z"/><path class="cls-15" d="M160,196.67H149.26v-1h2.56v-3.06a2.72,2.72,0,0,1-1.55-2.41c0-1.84,1.81-3.06,4.31-3.06s4.33,1.22,4.33,3.06a2.7,2.7,0,0,1-1.5,2.39v3.08H160Zm-8.49-6.5c0,1.25,1.26,2.08,3.1,2.08s3.13-.83,3.13-2.08-1.3-2.06-3.13-2.06S151.48,188.9,151.48,190.17Zm4.67,5.47V193a6.45,6.45,0,0,1-1.57.18A6.85,6.85,0,0,1,153,193v2.6Z"/><path class="cls-15" d="M161.22,196.19a.93.93,0,0,1,.93-.93.93.93,0,1,1,0,1.86A.93.93,0,0,1,161.22,196.19Z"/></g></g></svg>