<svg xmlns="http://www.w3.org/2000/svg" xmlns:xlink="http://www.w3.org/1999/xlink" viewBox="0 0 255.02 263.79"><defs><style>.cls-1{isolation:isolate;}.cls-2{fill:none;stroke:#be1f2d;stroke-miterlimit:10;stroke-width:7.8px;}.cls-23,.cls-3{fill:#cdcccc;}.cls-22,.cls-3{mix-blend-mode:multiply;}.cls-4{fill:#3c5f49;}.cls-5{fill:#fff;}.cls-6{fill:#f3b67f;}.cls-7{fill:#6b2611;}.cls-8{fill:#8f3720;}.cls-9{fill:#7ca98c;}.cls-10{fill:#ced9d3;}.cls-11{fill:#e9e8e8;}.cls-12{fill:#9abaa3;}.cls-13{fill:#b3c9ba;}.cls-14{fill:#ec633e;}.cls-15{fill:url(#linear-gradient);}.cls-16{fill:url(#Degradado_sin_nombre_9);}.cls-17{fill:#f18530;}.cls-18{fill:#f6f6f6;}.cls-19{fill:#f07f4e;}.cls-20{fill:#bdd99c;}.cls-21{fill:#f4ef9f;}</style><linearGradient id="linear-gradient" x1="125.33" y1="177.04" x2="190.91" y2="3.25" gradientUnits="userSpaceOnUse"><stop offset="0" stop-color="#adadad"/><stop offset="0.84" stop-color="#e9e8e8" stop-opacity="0"/></linearGradient><linearGradient id="Degradado_sin_nombre_9" x1="136.48" y1="184.5" x2="166.7" y2="104.44" gradientUnits="userSpaceOnUse"><stop offset="0" stop-color="#fff"/><stop offset="0.84" stop-color="#e9e8e8" stop-opacity="0"/></linearGradient></defs><g class="cls-1"><g id="Layer_2" data-name="Layer 2"><g id="Layer_2-2" data-name="Layer 2"><path class="cls-2" d="M127.51,53.56h0A107.49,107.49,0,0,1,235,161.05v95.74a0,0,0,0,1,0,0H20a0,0,0,0,1,0,0V161.05A107.49,107.49,0,0,1,127.51,53.56Z"/><path class="cls-3" d="M198.84,171.71s-29.63-2.22-32.54.33-2.49,4.67-2.49,4.67,33,2.78,35.49,2"/><path class="cls-4" d="M192.09,148.89c-.53.14-25,.05-26.19,1.43s1,19.92,1,19.92-7.47,3.33-7.07,4.13,3.2,2.28,4,2.34,4.54-2.34,5.47-2.6,3.87.4,4.4-.94.14-14,.14-14l17.34,1.08s6.46,18.2,8.14,18.56,22.47-10.12,22.47-10.12-.33-2.71-.86-2.36-3.07,1-3.74.62-3.33-3.34-3.73-3.07a32.4,32.4,0,0,0-2.25,4l-6.69,1.46s1.73-18,.4-19"/><path class="cls-5" d="M192,127.5c-3.52-.74-12.44.12-13.74.83s-8.17,12.32-8.17,12.32l8.88,4.38,1.79-4.74s3.42,4.85,3.42,5.33a27.91,27.91,0,0,1-1.23,3.44s6.8,5.68,9.05,6.27,12.9-1.07,12.9-1.07v-6.87l-1.77-2.25,4.62-6S202.62,129.75,192,127.5Z"/><path class="cls-6" d="M175.51,147.28l2-3-6-2.95a73.1,73.1,0,0,0-3.25,7.52c.11.16,11.72,8.21,11.72,8.21s-.36,4.15,0,4.62.37,4.38.72,4.56,1.09-3.26,1.09-3.26-.9,4.89,0,4.81c.18,0,.33-.19.45-.42.08.22.2.37.46.35,1.3-.12,2-5.09,2-5.09s-.47,6.54.6,5.16.71-10.73,0-11.56S175.51,147.28,175.51,147.28Z"/><path class="cls-6" d="M195.77,149.21l5.2,5.25-8.08,12.31s.14,4.37-.79,4.37-.26,3-.93,2.94-2.91-3.61-2.78-4.8,6.29-14.55,6.29-14.55l-2-1.51Z"/><path class="cls-6" d="M174.91,120.11a28.35,28.35,0,0,0,3.75,16.65c1,1.67,2.41,3.4,4.35,3.47a4.43,4.43,0,0,0,3.9-2.84,13.12,13.12,0,0,0,.75-5,3.1,3.1,0,1,0,2.77-5.34c-.37-.09-.81-.14-1-.47a1.3,1.3,0,0,1-.05-.83c.48-3.34-2.08-6.44-5-8a9.12,9.12,0,0,0-5.58-1.23,5.07,5.07,0,0,0-4.21,3.52"/><path class="cls-7" d="M175.16,118.62a3.51,3.51,0,0,0-2.86,2.22.68.68,0,0,0,.06.73c.19.18.59-.09.41-.28a3,3,0,0,0-1.8,2.29,1.77,1.77,0,0,0,.54,1.67,1,1,0,0,0,1.52-.37.86.86,0,0,0-.08,1.4,1.4,1.4,0,0,0,1.58,0,4.17,4.17,0,0,0,1.13-1.23,1.76,1.76,0,0,0,.41-1c0-.35-.31-.72-.65-.65a2.43,2.43,0,0,0,2.05-2.51c-.26-.07-.19.42.05.54,1,.52,2.2-.27,3.08-1a1.5,1.5,0,0,0,.58,2.16,2.14,2.14,0,0,0,2.36-.48,4.32,4.32,0,0,0-.12,1.92,1.75,1.75,0,0,0,1.22,1.37,1.14,1.14,0,0,0,1.39-1,3,3,0,0,0-.55,2c0,.39.19.84.57.95a1,1,0,0,0,.77-.19,2.83,2.83,0,0,0,1.2-1.71c-.51.35-.26,1.27.32,1.47a1.48,1.48,0,0,0,1.6-.67,4.34,4.34,0,0,0,.53-1.77A1.58,1.58,0,0,0,192,124a2.86,2.86,0,0,0,.16-3.36,6.24,6.24,0,0,0-2.79-2.22,2,2,0,0,0-.48-2.76,5.08,5.08,0,0,0-3-.85,3.89,3.89,0,0,0-5.49-1.23,1.18,1.18,0,0,0-.5.65.51.51,0,0,0,.38.64c.33,0,.55-.39.45-.7a1.18,1.18,0,0,0-.73-.63,3.5,3.5,0,0,0-4.15,1.4c-.36.59-.4,1.57.26,1.8a1.68,1.68,0,1,0-2.37,2.33.83.83,0,0,0-.19.81"/><polyline class="cls-8" points="145.06 173.61 149.13 180.55 147.95 188.06 141.69 191.79 132.99 192.31 125.24 189.28 120.9 184.25 121.59 178.82 126.75 173.73 130.91 172.01"/><path class="cls-9" d="M148.83,176.54a3.37,3.37,0,0,0,2.34-2.56,5.19,5.19,0,0,0-.8-3.45A5,5,0,0,0,149.1,169a5.43,5.43,0,0,0-3.34-.83,6.21,6.21,0,0,0-2.71.47,2.64,2.64,0,0,0-1.59,2.11,2.7,2.7,0,0,1-.1,1c-.23.51-.87.64-1.32,1a2.21,2.21,0,0,0-.6,2.54,4.67,4.67,0,0,0,1.82,2.07,10.83,10.83,0,0,0,2.79,1.38,4.93,4.93,0,0,0,2.43.27,2.39,2.39,0,0,0,1.85-1.46"/><path class="cls-10" d="M151.31,185.32c1.22.14,2.26-.83,3.1-1.73s1.78-2,1.75-3.26a4.88,4.88,0,0,0-.89-2.31l-1.09-1.83a1.37,1.37,0,0,0-1.38-.89l-2-.18a6.39,6.39,0,0,0-3.61.38,4.33,4.33,0,0,0-2,3.17,6.47,6.47,0,0,0,1.3,5.09,6.2,6.2,0,0,0,4.69,2.3"/><path class="cls-11" d="M135.22,167.79a5.71,5.71,0,0,1,4.87.43,2.77,2.77,0,0,1,1.14,1.16,9,9,0,0,1,.28,1.05c.13.47.35.9.44,1.38a3.34,3.34,0,0,1-2.1,3.38,9.55,9.55,0,0,1-4.22.56,5.24,5.24,0,0,1-3.38-.85,3.82,3.82,0,0,1-1.14-2,5.16,5.16,0,0,1,0-2.73,4,4,0,0,1,5.76-2.33"/><path class="cls-10" d="M119.44,174.79a5.31,5.31,0,0,1,.45-1.76,4.36,4.36,0,0,1,3.47-2.44l-.42,0a14.79,14.79,0,0,1,2.8-1.69,3.93,3.93,0,0,1,1.91-.48,2.9,2.9,0,0,1,1.53.62c1.62,1.22,2,3.5,1.87,5.52a4.77,4.77,0,0,1-.5,2,4.47,4.47,0,0,1-3.41,1.94c-1.35.18-2.72.05-4.07.23a5.28,5.28,0,0,1-1.48.11,2.57,2.57,0,0,1-1.87-1.55A4.85,4.85,0,0,1,119.44,174.79Z"/><path class="cls-11" d="M112.37,178.27a5.1,5.1,0,0,1,4.38-3.67l-2.41.3a3.92,3.92,0,0,1,3.32-1.76,4,4,0,0,1,3.23,1.92c.45.78.75,1.84,1.63,2.06.27.07.55,0,.82.11,1,.22,1.45,1.5,1.45,2.57,0,1.58-.56,3.34-2,4a5.3,5.3,0,0,1-1.9.41c-1.36.11-2.72.15-4.08.13a4.89,4.89,0,0,1-2.31-.43,4.24,4.24,0,0,1-1.68-2.15A6,6,0,0,1,112.37,178.27Z"/><path class="cls-12" d="M116.56,186.8a3.7,3.7,0,0,1,1-1.39l-.41.15a6,6,0,0,1,2.78-2.08,3.13,3.13,0,0,1,3.24.77c.6.7.91,1.78,1.8,2a7.91,7.91,0,0,1,.85.13,1.73,1.73,0,0,1,.76.71,5.9,5.9,0,0,1,1.35,2.8,4,4,0,0,1-2.67,3.73,10.75,10.75,0,0,1-4.86.4,5.13,5.13,0,0,1-1.56-.29,4.43,4.43,0,0,1-2.24-3A6.1,6.1,0,0,1,116.56,186.8Z"/><path class="cls-13" d="M126.9,191.06a2.74,2.74,0,0,1,2.11-1.72,3.68,3.68,0,0,1,1.28.08,2,2,0,0,1,2.11.41,2.48,2.48,0,0,1,.59,2.48,3.33,3.33,0,0,1-1.73,1.95,3.27,3.27,0,0,1-3.83-.53A2.7,2.7,0,0,1,126.9,191.06Z"/><path class="cls-9" d="M137.6,187.33a12.45,12.45,0,0,1,5.77.75,3.12,3.12,0,0,1,1.08.61,3.23,3.23,0,0,1,.55,3,5.8,5.8,0,0,1-2.67,4.1,6.94,6.94,0,0,1-3.59.49,9.76,9.76,0,0,1-3.47-.7A4,4,0,0,1,133,193a5.52,5.52,0,0,1,1.43-4.38,6.27,6.27,0,0,1,3.54-1.3,1.16,1.16,0,0,1,1,.16"/><path class="cls-11" d="M147.85,183.83a10.57,10.57,0,0,1,3.45-1.93,2.49,2.49,0,0,1,1.91-.05,2.73,2.73,0,0,1,1,1.18c1.05,1.84,2.05,3.91,1.61,6a6.15,6.15,0,0,1-3.35,4,15.86,15.86,0,0,1-5.18,1.35,5.07,5.07,0,0,1-2.39-.07,4.38,4.38,0,0,1-2.17-2.12,7,7,0,0,1-1.05-3.94,4.88,4.88,0,0,1,7.32-3.83"/><path class="cls-14" d="M140.18,183.93c-.34,0-3.55,1.9-4.07,1.46s-1.5-3.18-.58-4,3.61.66,3.44.7a8.74,8.74,0,0,0-.61,1.88Z"/><path class="cls-14" d="M133.91,176.26c.82-.24-.18,7.85-1,8.13s-4,.58-4.06,0,.5-3.49,1.12-3.47a12.57,12.57,0,0,0,2.25-.43S132.2,176.78,133.91,176.26Z"/><path class="cls-14" d="M141.07,179.05c-.12.58-5,1.11-5,.59s-.52-1.73,0-2.08S141.26,178.11,141.07,179.05Z"/><path class="cls-7" d="M135,155.46c-.25.38-.05.83.06,1.21l.47,1.63.94,3.24,1.86,6.42,1.06,3.66a.28.28,0,0,0,.54-.15l-3.56-12.3-.51-1.74-.26-.9c-.06-.21-.25-.59-.12-.79s-.29-.58-.48-.28Z"/><path class="cls-7" d="M162.55,166.62l-26.22-11.57a2.18,2.18,0,0,0-2.11.21l-25.59,17.93a2.17,2.17,0,0,0,.32,3.73l25.3,12a2.16,2.16,0,0,0,2.17-.18l26.49-18.36A2.16,2.16,0,0,0,162.55,166.62Zm-52.59,9a.56.56,0,0,1-.32-1l25.87-18.37a.57.57,0,0,1,.78.13.56.56,0,0,1-.13.78L110.29,175.5A.56.56,0,0,1,110,175.6Zm2.48,1.16a.56.56,0,0,1-.32-1L138,157.38a.57.57,0,0,1,.78.14.55.55,0,0,1-.13.77l-25.87,18.37A.56.56,0,0,1,112.44,176.76Zm2.48,1.17a.57.57,0,0,1-.45-.24.56.56,0,0,1,.13-.78l25.87-18.36a.56.56,0,1,1,.65.91l-25.87,18.36A.57.57,0,0,1,114.92,177.93Zm2.48,1.16a.56.56,0,0,1-.32-1L143,159.71a.56.56,0,1,1,.65.91L117.73,179A.64.64,0,0,1,117.4,179.09Zm2.48,1.16a.56.56,0,0,1-.32-1l25.87-18.37a.56.56,0,0,1,.78.14.55.55,0,0,1-.13.77l-25.87,18.37A.56.56,0,0,1,119.88,180.25Zm2.48,1.16a.56.56,0,0,1-.32-1L147.91,162a.56.56,0,1,1,.65.91l-25.87,18.36A.56.56,0,0,1,122.36,181.41Zm2.48,1.17a.57.57,0,0,1-.45-.24.56.56,0,0,1,.13-.78l25.87-18.36a.56.56,0,1,1,.65.91l-25.87,18.36A.57.57,0,0,1,124.84,182.58Zm2.48,1.16a.56.56,0,0,1-.32-1l25.87-18.37a.57.57,0,0,1,.78.13.56.56,0,0,1-.13.78l-25.87,18.37A.56.56,0,0,1,127.32,183.74Zm2.48,1.16a.56.56,0,0,1-.32-1l25.87-18.37a.56.56,0,0,1,.78.14.55.55,0,0,1-.13.77L130.13,184.8A.56.56,0,0,1,129.8,184.9Zm2.48,1.16a.56.56,0,0,1-.32-1l25.87-18.36a.56.56,0,1,1,.65.91L132.61,186A.56.56,0,0,1,132.28,186.06ZM161,168.76l-25.87,18.36a.55.55,0,0,1-.78-.13.56.56,0,0,1,.13-.78l25.87-18.36a.56.56,0,1,1,.65.91Z"/><path class="cls-7" d="M108.85,175.27q-1,6.94-2.1,13.88c-.22,1.33-.44,2.65-.67,4-.06.35.48.5.54.15q1.2-6.93,2.2-13.87c.2-1.33.39-2.66.57-4,0-.35-.49-.51-.54-.15Z"/><path class="cls-7" d="M135,188.07l-2.48,15.51-.36,2.22-.16,1-.09.56a2,2,0,0,1,0,.24v.07c0,.08,0,.09,0,0l.2.08-.07.23-.22,0h0c.35.08.5-.46.15-.54s-.6.6-.17.74c.62.19.65-.86.7-1.19l.73-4.56,1.47-9.18.83-5.16c0-.35-.48-.51-.54-.15Z"/><path class="cls-7" d="M162.22,170.31,167,181.92l1.36,3.33c.14.33.67.19.54-.14l-4.73-11.61-1.36-3.34c-.14-.32-.68-.18-.54.15Z"/><path class="cls-14" d="M124.17,167.84a10.23,10.23,0,0,1,1.35.33c.22.07.44.15.65.24l.1.05.32.15a9.61,9.61,0,0,1,1.14.69,7.12,7.12,0,0,1,.94.77,7.5,7.5,0,0,1,1.52,2c.53.93.74,2,1.86,2.36a1.13,1.13,0,0,0,1.38-.78,1.15,1.15,0,0,0-.78-1.37s.24.15.21.16-.15-.26-.16-.27c-.09-.2-.17-.41-.26-.6a9.34,9.34,0,0,0-.65-1.16,10.71,10.71,0,0,0-7-4.67,1.15,1.15,0,0,0-1.37.78,1.12,1.12,0,0,0,.77,1.37Z"/><path class="cls-14" d="M138.68,160.58a3.19,3.19,0,1,0-3.62,5.13c.55.26,1.18.36,1.72.66,1.63.9,1.84,3.16,3,4.63a4.31,4.31,0,0,0,4.79,1.36,5.63,5.63,0,0,0,2-1.41,3.88,3.88,0,0,0,1.09-1.76,3.48,3.48,0,0,0-1.21-3.2,14,14,0,0,0-3-1.89,24,24,0,0,1-4.72-3.34"/><path class="cls-15" d="M130.59,180.86c15-6.47,14.9-24.23,13.79-38-.7-8.71-1.2-18.47,2.51-26.63,3.43-7.55,9.92-12.74,15.14-18.94a52.22,52.22,0,0,0,11-21.77c1.94-8.29,1.83-16.93,3.9-25.21a39.79,39.79,0,0,1,11.13-18.9c5.73-5.67,11.45-11,16.88-17C211.78,6.88,203.32-3.06,194.59.9c-15.06,6.84-28.12,17.67-34.44,33.45-3.36,8.39-3.91,17.49-4.15,26.44-.22,8.14.32,17-2.58,24.71-2.71,7.22-7.8,13.24-11.5,19.93a38,38,0,0,0-4.85,22.48c1.58,16.59,11.83,41.26-7,52.13-.54.32-.06,1.05.48.82Z"/><path class="cls-16" d="M132.64,182.87c12-3.14,20.48-14.47,21.48-26.63.75-9.16-2.46-18.37-.51-27.48,1.91-8.87,8.08-16.22,13.54-23.18,1.37-1.75-1-4.27-2.52-2.51-4.82,5.56-9.48,11.25-12.42,18.07-3,7-3,14-2.22,21.45.93,8.51,1.76,16.62-2.12,24.57-3.28,6.72-8.93,11.68-15.47,15.14a.31.31,0,0,0,.24.57Z"/><path class="cls-2" d="M127.51,53.56h0A107.49,107.49,0,0,1,235,161.05v95.74a0,0,0,0,1,0,0H20a0,0,0,0,1,0,0V161.05A107.49,107.49,0,0,1,127.51,53.56Z"/><rect class="cls-17" y="192.02" width="255.02" height="71.77" rx="8.51"/><path class="cls-18" d="M28.8,206.51h-7v-1.34h2.65v-1.59h1.66v1.59H28.8Zm-2,1a2.77,2.77,0,0,1,1,1,2.83,2.83,0,0,1,.38,1.45,2.88,2.88,0,0,1-.38,1.45,2.67,2.67,0,0,1-1,1,2.88,2.88,0,0,1-1.46.37,2.92,2.92,0,0,1-1.47-.37,2.7,2.7,0,0,1-1-1,2.87,2.87,0,0,1-.37-1.45,2.76,2.76,0,0,1,1.4-2.47,3,3,0,0,1,1.47-.37A3,3,0,0,1,26.76,207.54Zm-2.14,1.21a1.26,1.26,0,0,0-.47.5A1.64,1.64,0,0,0,24,210a1.67,1.67,0,0,0,.17.76,1.17,1.17,0,0,0,.47.49,1.53,1.53,0,0,0,1.36,0,1.17,1.17,0,0,0,.47-.49,1.67,1.67,0,0,0,.17-.76,1.64,1.64,0,0,0-.17-.76,1.26,1.26,0,0,0-.47-.5,1.37,1.37,0,0,0-1.36,0Zm7.2,6.54H30.17v-5.84H28.55V208.1h1.62v-4.7h1.65Z"/><path class="cls-18" d="M44.19,210.36H33.35V209h2.44V207.6a2.64,2.64,0,0,1-1-.73,1.56,1.56,0,0,1-.35-1,1.7,1.7,0,0,1,.53-1.24,3.53,3.53,0,0,1,1.51-.79,8.69,8.69,0,0,1,2.3-.27,8.59,8.59,0,0,1,2.28.27,3.53,3.53,0,0,1,1.51.79,1.7,1.7,0,0,1,.53,1.24,1.56,1.56,0,0,1-.36,1,2.56,2.56,0,0,1-1,.74V209h2.49Zm-3.22.88a3.15,3.15,0,0,1,1.43.72,1.59,1.59,0,0,1,.5,1.16,1.61,1.61,0,0,1-.5,1.17A3.07,3.07,0,0,1,41,215a8.46,8.46,0,0,1-2.21.25,8.6,8.6,0,0,1-2.24-.25,3,3,0,0,1-1.43-.73,1.57,1.57,0,0,1-.5-1.17,1.55,1.55,0,0,1,.5-1.16,3.1,3.1,0,0,1,1.43-.72,8.6,8.6,0,0,1,2.24-.25A8.46,8.46,0,0,1,41,211.24Zm-4.14-6.13c-.44.17-.66.43-.66.76s.22.56.66.73a6,6,0,0,0,1.94.25,6,6,0,0,0,1.93-.25c.45-.17.67-.41.67-.73s-.22-.59-.67-.76a5.42,5.42,0,0,0-1.93-.26A5.49,5.49,0,0,0,36.83,205.11Zm-.54,8c0,.61.81.91,2.47.91s2.45-.3,2.47-.91-.84-.88-2.47-.88S36.28,212.53,36.29,213.12ZM40,209v-1a12.17,12.17,0,0,1-1.27.06,9.62,9.62,0,0,1-1.29-.07v1Z"/><path class="cls-18" d="M51.85,208.38H49.72v1.2c1.09-.06,2-.12,2.75-.2l.12,1.19q-1.71.24-3.57.33t-3.84.09L45,209.67c1.36,0,2.39,0,3.09,0v-1.25H46v-4.26h5.77v1.33h-4.1V207h4.21Zm3.37,6.7H46.8v-3.41h1.69v2.07h6.73Zm-.32-2.73H53.21v-9H54.9Z"/><path class="cls-18" d="M69.13,205.16c0,.76,0,1.43,0,2a16.72,16.72,0,0,1-.25,2H70.4v1.34H65.76v4.81H64.09v-4.81H59.56v-1.34h7.58a14.68,14.68,0,0,0,.27-1.9q.06-.85.06-1.83H60.8v-1.33h8.33Z"/><path class="cls-18" d="M81.14,210.43H79.48v-1.51H76.81a3,3,0,0,1-1,.73,3.42,3.42,0,0,1-1.33.25,3.34,3.34,0,0,1-1.62-.38,2.78,2.78,0,0,1-1.14-1.06,2.81,2.81,0,0,1-.4-1.52,2.63,2.63,0,0,1,.4-1.49,2.84,2.84,0,0,1,1.13-1,3.4,3.4,0,0,1,1.6-.37,3.56,3.56,0,0,1,1.35.25,2.93,2.93,0,0,1,1,.7h2.67V203.4h1.66Zm-7.53-4.81a1.28,1.28,0,0,0-.56.52,1.48,1.48,0,0,0-.19.8,1.53,1.53,0,0,0,.19.82,1.33,1.33,0,0,0,.56.54,1.84,1.84,0,0,0,.83.18,1.7,1.7,0,0,0,.79-.18,1.39,1.39,0,0,0,.56-.54,1.63,1.63,0,0,0,.2-.82,1.61,1.61,0,0,0-.2-.8,1.4,1.4,0,0,0-.56-.52,1.73,1.73,0,0,0-.79-.18A1.84,1.84,0,0,0,73.61,205.62Zm7.53,9.67H79.48v-3H73V211h8.17Zm-1.66-7.7v-1.25h-2a2.77,2.77,0,0,1,.06.6,3.83,3.83,0,0,1-.06.65Z"/><path class="cls-18" d="M87.92,210.93a19.75,19.75,0,0,0,3.15-.33l.17,1.43a24.15,24.15,0,0,1-4.18.36h-.81v-7.67h1.67Zm8.1,4.36H94.41v-5.95H93.3v5.37H91.73V203.59H93.3V208h1.11v-4.6H96Z"/><path class="cls-18" d="M105.15,214.74h-1.57v-5.62h-1a6.22,6.22,0,0,1-.41,2,3.09,3.09,0,0,1-.91,1.29,2.06,2.06,0,0,1-2.65-.07,3.35,3.35,0,0,1-.9-1.5,8.43,8.43,0,0,1,0-4.6,3.27,3.27,0,0,1,.9-1.48,2,2,0,0,1,1.37-.52,2,2,0,0,1,1.26.42,2.94,2.94,0,0,1,.9,1.23,6.26,6.26,0,0,1,.43,1.9h1v-4.23h1.57Zm-5.91-8.23a7.84,7.84,0,0,0,0,4.08c.18.46.44.68.78.67s.61-.21.8-.67a7.57,7.57,0,0,0,0-4.08c-.19-.47-.46-.7-.8-.7S99.42,206,99.24,206.51Zm8.39,8.78H106V203.4h1.59Z"/><path class="cls-18" d="M113.7,208.28a5.53,5.53,0,0,0,1,1.85,4,4,0,0,0,1.61,1.22l-1,1.34a4.88,4.88,0,0,1-1.64-1.32,6.46,6.46,0,0,1-1.06-2,6.71,6.71,0,0,1-1.1,2.11,4.94,4.94,0,0,1-1.69,1.4l-1-1.36a4.21,4.21,0,0,0,1.64-1.29,5.82,5.82,0,0,0,1-1.93,7.92,7.92,0,0,0,.34-2.23v-1.78h1.68v1.78A7.48,7.48,0,0,0,113.7,208.28Zm5.22,7h-1.65v-6.83h-2.33v-1.35h2.33V203.4h1.65Z"/><path class="cls-18" d="M126.51,210.09H120.8v-5.71h5.71Zm3.8,5h-8.14v-3.86h1.66v2.52h6.48Zm-7.86-6.3h2.42v-3.07h-2.42Zm7.43-2h1.61v1.37h-1.61v3.88h-1.67V203.4h1.67Z"/><path class="cls-18" d="M139.25,209.89c1.23,0,2.39-.13,3.5-.27l.11,1.2c-1,.16-2,.28-3,.36v3.74h-1.66v-3.65l-2.29,0h-.6l-.21-1.34C136.64,210,138,209.93,139.25,209.89Zm3-4h-2.35a1.68,1.68,0,0,0,.31.9,2.48,2.48,0,0,0,.89.74,5.06,5.06,0,0,0,1.44.48l-.65,1.28a5.09,5.09,0,0,1-1.7-.62,3.37,3.37,0,0,1-1.11-1,3.41,3.41,0,0,1-1.12,1.15,4.87,4.87,0,0,1-1.74.68l-.68-1.3a4.63,4.63,0,0,0,1.46-.5,2.5,2.5,0,0,0,.89-.8,1.84,1.84,0,0,0,.32-1h-2.36v-1.29h2.38v-1.17h1.67v1.17h2.35Zm2.88,9.41h-1.65V203.41h1.65Z"/><path class="cls-18" d="M151.34,208.2a5.69,5.69,0,0,0,.95,1.83,4.4,4.4,0,0,0,1.55,1.26l-1,1.33a4.49,4.49,0,0,1-1.59-1.29,6.54,6.54,0,0,1-1-1.94,7,7,0,0,1-1.1,2.08,4.91,4.91,0,0,1-1.68,1.37l-1-1.34a4.57,4.57,0,0,0,1.64-1.29,6,6,0,0,0,1-1.92,7.37,7.37,0,0,0,.33-2.2v-1.78H151v1.78A7.09,7.09,0,0,0,151.34,208.2ZM156,208h1.75v1.41H156v5.9h-1.68V203.4H156Z"/><path class="cls-18" d="M160.26,211a26.61,26.61,0,0,0,4.87-.52l.17,1.39a23.72,23.72,0,0,1-2.79.4c-.94.07-1.9.11-2.88.11h-1v-7.83h1.66Zm9-1.72H167.6v6h-1.67V203.4h1.67v4.5h1.68Z"/><path class="cls-18" d="M177.68,204.75a3.47,3.47,0,0,1,1.11,1.48,6.32,6.32,0,0,1,0,4.48,3.41,3.41,0,0,1-1.11,1.48,2.63,2.63,0,0,1-1.61.52,2.69,2.69,0,0,1-1.63-.52,3.34,3.34,0,0,1-1.11-1.48,6.44,6.44,0,0,1,0-4.47,3.34,3.34,0,0,1,1.11-1.48,2.76,2.76,0,0,1,3.24,0Zm-2.42,1.3a2,2,0,0,0-.53.93,5,5,0,0,0-.19,1.49,4.93,4.93,0,0,0,.19,1.48,2,2,0,0,0,.53.93,1.17,1.17,0,0,0,.81.32,1.2,1.2,0,0,0,.81-.32,2,2,0,0,0,.53-.92,5.65,5.65,0,0,0,0-3,2.07,2.07,0,0,0-.53-.93,1.19,1.19,0,0,0-.81-.31A1.16,1.16,0,0,0,175.26,206.05Zm8.67,1.5h-1.68v2.12h1.68V211h-1.68v4.26h-1.68V203.4h1.68v2.75h1.68Z"/><path class="cls-18" d="M189.05,204.28a3,3,0,0,1,1,.68h2.7V203.4h1.66v7h-1.66v-1.42h-2.71a3,3,0,0,1-1.05.67,3.51,3.51,0,0,1-1.31.24,3.4,3.4,0,0,1-1.6-.38,2.84,2.84,0,0,1-1.13-1,2.68,2.68,0,0,1-.41-1.48,2.73,2.73,0,0,1,.41-1.5,2.84,2.84,0,0,1,1.13-1,3.72,3.72,0,0,1,2.93-.13Zm-2.13,1.36a1.26,1.26,0,0,0-.56.51,1.51,1.51,0,0,0-.2.8,1.48,1.48,0,0,0,.2.79,1.28,1.28,0,0,0,.56.52,1.7,1.7,0,0,0,.82.18,1.64,1.64,0,0,0,.81-.18,1.31,1.31,0,0,0,.55-.52,1.57,1.57,0,0,0,.2-.79,1.61,1.61,0,0,0-.2-.8,1.29,1.29,0,0,0-.55-.51,1.76,1.76,0,0,0-.81-.18A1.83,1.83,0,0,0,186.92,205.64Zm5.64,5.25a3.09,3.09,0,0,1,1.42.8,1.83,1.83,0,0,1,.51,1.26,1.85,1.85,0,0,1-.51,1.26,3.18,3.18,0,0,1-1.42.8,8.59,8.59,0,0,1-4.35,0,3.18,3.18,0,0,1-1.42-.8,1.84,1.84,0,0,1,0-2.52,3.09,3.09,0,0,1,1.42-.8,8.59,8.59,0,0,1,4.35,0Zm-4,1.25a.87.87,0,0,0-.63.81q0,.51.63.78a6.57,6.57,0,0,0,3.66,0q.63-.27.63-.78a.87.87,0,0,0-.62-.81,5.16,5.16,0,0,0-1.85-.26A5.05,5.05,0,0,0,188.56,212.14Zm2.32-5.19a2.81,2.81,0,0,1-.07.65h2v-1.32h-2A3,3,0,0,1,190.88,207Z"/><path class="cls-18" d="M206.74,209.43H196.07v-1h10.67Zm-1.16-3.73c0,1.3-1.55,2-4.18,2s-4.18-.72-4.18-2,1.54-2,4.18-2S205.58,204.39,205.58,205.7Zm-.19,7.38h-6.82v1h7.15v1h-8.36v-2.9h6.81v-.92h-6.82v-.93h8Zm-6.88-7.38c0,.72,1,1.1,2.89,1.1s2.9-.38,2.9-1.1-1-1.1-2.9-1.1S198.5,205,198.51,205.7Z"/><path class="cls-18" d="M217.77,206.34h-6.94v-1h2.89v-1.67H215v1.67h2.81Zm-.51,3.58a2.92,2.92,0,0,1-5.83,0,2.92,2.92,0,0,1,5.83,0Zm-4.64,0a1.73,1.73,0,0,0,3.45,0,1.73,1.73,0,0,0-3.45,0Zm7.39-1.69h1.88v1H220v5.93h-1.23v-11.7H220Z"/><path class="cls-18" d="M228.35,206.25H231v-2.76h1.23v11.73H231v-4.75h-2.64v1.8h-5.44v-7.66h5.44Zm-4.21,5h3v-5.7h-3Zm6.85-1.82v-2.19h-2.64v2.19Z"/><path class="cls-18" d="M47.8,230v-1a3.43,3.43,0,0,1-1.11-.43,2.21,2.21,0,0,1-.72-.74,2,2,0,0,1-.25-1,1.93,1.93,0,0,1,.36-1.16,2.41,2.41,0,0,1,1-.79,3.83,3.83,0,0,1,1.53-.28,3.75,3.75,0,0,1,1.5.28,2.47,2.47,0,0,1,1,.79,1.88,1.88,0,0,1,.38,1.16,2,2,0,0,1-.26,1,2.21,2.21,0,0,1-.74.75,3.15,3.15,0,0,1-1.1.42v1c1.06-.06,2-.14,2.77-.26l.1,1.22a25.41,25.41,0,0,1-3.41.4c-1.15.05-2.43.08-3.85.08L44.86,230Zm4.35-5.88H45.09v-1.31H47.8v-1.25h1.67v1.25h2.68Zm-4.49,2a.89.89,0,0,0,0,1.43,1.77,1.77,0,0,0,1,.25,1.71,1.71,0,0,0,1-.25.89.89,0,0,0,0-1.43,1.63,1.63,0,0,0-1-.26A1.69,1.69,0,0,0,47.66,226.07Zm6.85.22h1.56v1.38H54.51v5.67H52.83V221.45h1.68Z"/><path class="cls-18" d="M62.48,226.16A7.72,7.72,0,0,1,60.75,229a10.79,10.79,0,0,1-3.27,2.27L56.6,230a10.14,10.14,0,0,0,2.51-1.6,6.22,6.22,0,0,0,1.52-2,7,7,0,0,0,.66-2.41h-4v-1.31H63A11.14,11.14,0,0,1,62.48,226.16Zm4.08,7.18H64.87V221.45h1.69Z"/><path class="cls-18" d="M75.89,226.26a5.69,5.69,0,0,0,1,1.83,4.27,4.27,0,0,0,1.55,1.25l-1,1.33a4.57,4.57,0,0,1-1.59-1.28,6.84,6.84,0,0,1-1-1.95,6.66,6.66,0,0,1-1.1,2.08A4.94,4.94,0,0,1,72,230.9l-1-1.35a4.38,4.38,0,0,0,1.64-1.29,5.88,5.88,0,0,0,1-1.91,7.49,7.49,0,0,0,.33-2.21v-1.77h1.68v1.77A6.88,6.88,0,0,0,75.89,226.26Zm4.7-.22h1.75v1.41H80.59v5.89H78.92V221.45h1.67Z"/><path class="cls-18" d="M93.62,228.41H82.77v-1.33h2.45v-1.42a2.59,2.59,0,0,1-1-.73,1.55,1.55,0,0,1-.35-1,1.65,1.65,0,0,1,.53-1.23,3.33,3.33,0,0,1,1.5-.79,8.32,8.32,0,0,1,2.3-.28,8.17,8.17,0,0,1,2.28.28,3.43,3.43,0,0,1,1.51.79,1.74,1.74,0,0,1,.54,1.23,1.66,1.66,0,0,1-.37,1,2.64,2.64,0,0,1-1,.73v1.41h2.5Zm-3.23.88a3.37,3.37,0,0,1,1.43.72,1.57,1.57,0,0,1,.5,1.16,1.61,1.61,0,0,1-.5,1.18,3.26,3.26,0,0,1-1.43.73,8.8,8.8,0,0,1-2.21.25,9,9,0,0,1-2.24-.25,3.26,3.26,0,0,1-1.43-.73,1.61,1.61,0,0,1-.5-1.18,1.57,1.57,0,0,1,.5-1.16,3.37,3.37,0,0,1,1.43-.72,8.6,8.6,0,0,1,2.24-.25A8.36,8.36,0,0,1,90.39,229.29Zm-4.13-6.13c-.45.18-.67.43-.67.76s.22.57.66.73a5.73,5.73,0,0,0,1.94.25,5.66,5.66,0,0,0,1.93-.25c.45-.16.67-.41.67-.73s-.22-.58-.67-.76a7.29,7.29,0,0,0-3.86,0Zm-.55,8c0,.61.81.91,2.47.91s2.46-.3,2.47-.91-.84-.87-2.47-.87S85.7,230.59,85.71,231.17Zm3.75-4.09v-1a12,12,0,0,1-1.27.06,9.82,9.82,0,0,1-1.29-.07v1Z"/><path class="cls-18" d="M108.3,230.49h-4.64v2.86H102v-2.86H97.42v-1.36H108.3Zm-.6-6.47H97.94v-1.34H102v-1.24h1.66v1.24h4Zm-2.67.7a3.11,3.11,0,0,1,1.41.69,1.48,1.48,0,0,1,0,2.22,3.11,3.11,0,0,1-1.41.69,8.72,8.72,0,0,1-2.19.24,8.83,8.83,0,0,1-2.21-.24,3,3,0,0,1-1.41-.69,1.52,1.52,0,0,1,0-2.22,3,3,0,0,1,1.41-.69,8.83,8.83,0,0,1,2.21-.24A8.72,8.72,0,0,1,105,224.72Zm-4,1.2c-.39.13-.59.33-.59.6s.2.47.59.6a6.1,6.1,0,0,0,1.79.2c1.58,0,2.36-.27,2.36-.8,0-.27-.19-.47-.58-.6a6.37,6.37,0,0,0-1.78-.21A6.29,6.29,0,0,0,101.05,225.92Z"/><path class="cls-18" d="M116.8,232.79h-1.56v-5.62h-1a6.37,6.37,0,0,1-.42,2,3.17,3.17,0,0,1-.9,1.29,2,2,0,0,1-1.29.45,2,2,0,0,1-1.36-.52,3.45,3.45,0,0,1-.91-1.5,8.39,8.39,0,0,1,0-4.59,3.41,3.41,0,0,1,.91-1.49,2,2,0,0,1,1.36-.52,2,2,0,0,1,1.26.42,3.08,3.08,0,0,1,.9,1.23,6,6,0,0,1,.43,1.9h1v-4.23h1.56Zm-5.91-8.23a8.13,8.13,0,0,0,0,4.08c.18.46.44.68.78.68s.61-.22.8-.68a7.57,7.57,0,0,0,0-4.08c-.19-.46-.46-.69-.8-.69S111.07,224.1,110.89,224.56Zm8.4,8.78h-1.6V221.45h1.6Z"/><path class="cls-18" d="M131.41,228.58H120.53v-1.3h10.88Zm-1.14,4.5h-8.49v-3.53h1.68v2.2h6.81ZM130.2,226h-8.31v-4.13h1.66v2.82h6.65Z"/><path class="cls-18" d="M146,227.58h-4.6v.74h3.28v3h-6.62V232H145v1.25h-8.57v-3.08h6.61v-.64h-6.62v-1.22h3.32v-.74h-4.57v-1.35H146Zm-7.81-5.12H143v-.83h1.66v4h-8.08v-4h1.65Zm4.77,1.92v-.72h-4.77v.72Z"/><path class="cls-18" d="M151.85,222.81a3.41,3.41,0,0,1,1.12,1.48,6.44,6.44,0,0,1,0,4.47,3.39,3.39,0,0,1-1.12,1.49,2.66,2.66,0,0,1-1.6.52,2.75,2.75,0,0,1-1.63-.52,3.31,3.31,0,0,1-1.12-1.49,6.44,6.44,0,0,1,0-4.47,3.34,3.34,0,0,1,1.12-1.48,2.69,2.69,0,0,1,1.63-.52A2.6,2.6,0,0,1,151.85,222.81Zm-2.41,1.3a1.91,1.91,0,0,0-.54.93,4.93,4.93,0,0,0-.19,1.48,5,5,0,0,0,.19,1.49,1.91,1.91,0,0,0,.54.93,1.19,1.19,0,0,0,1.61,0,2.17,2.17,0,0,0,.53-.93,6.17,6.17,0,0,0,0-3,2.08,2.08,0,0,0-.54-.93,1.14,1.14,0,0,0-.79-.32A1.17,1.17,0,0,0,149.44,224.11Zm7.26,9.26H155V221.45h1.68Z"/><path class="cls-18" d="M164.75,225.85a9.57,9.57,0,0,1-.73,2.6,8.87,8.87,0,0,1-1.55,2.37l-1.31-.93a7.87,7.87,0,0,0,1.25-1.75,7.35,7.35,0,0,0,.68-1.87,13.15,13.15,0,0,0,.26-2.25h-1.67v-1.35H165A24.33,24.33,0,0,1,164.75,225.85Zm6.59,7.49h-1.66V227.2h-1.83a11,11,0,0,1-.75,2.32,9.39,9.39,0,0,1-1.29,2.07l-1.31-.93a8.45,8.45,0,0,0,1.24-2,9.44,9.44,0,0,0,.65-2.14,19.52,19.52,0,0,0,.25-2.52h-1.33v-1.35h2.9a28.35,28.35,0,0,1-.15,3.18h1.62v-4.4h1.66Z"/><path class="cls-18" d="M183,228.32h-1.66V227H180l.22.08-.82,1.28a4.7,4.7,0,0,1-1.65-.9,4.61,4.61,0,0,1-1.09-1.42,4.71,4.71,0,0,1-1.12,1.56,4.66,4.66,0,0,1-1.74,1l-.87-1.31a4.32,4.32,0,0,0,1.6-.87,3.63,3.63,0,0,0,.95-1.28,3.7,3.7,0,0,0,.31-1.5v-.09h-2.35v-1.35h6.38v1.35h-2.31v.08a3.38,3.38,0,0,0,.51,1.85,3.58,3.58,0,0,0,1.56,1.35v-1.15h1.77v-.76h-1.77v-1.35h1.77v-2.06H183Zm-5.22,2.19a3.18,3.18,0,0,0,1.05,1.18,3.32,3.32,0,0,0,1.38-2.65v-.34h1.64V229a2.92,2.92,0,0,0,.56,1.78A3.17,3.17,0,0,0,184.1,232l-.85,1.22a3.81,3.81,0,0,1-1.39-.81,3.74,3.74,0,0,1-.88-1.24,4.48,4.48,0,0,1-.86,1.29,3.85,3.85,0,0,1-1.31.87,3.69,3.69,0,0,1-1.33-.84,3.73,3.73,0,0,1-.85-1.27,3.91,3.91,0,0,1-.89,1.2,4,4,0,0,1-1.35.8l-.81-1.22a3.38,3.38,0,0,0,1.25-.71,2.78,2.78,0,0,0,.74-1,3.21,3.21,0,0,0,.25-1.19v-.34h1.62V229A3.25,3.25,0,0,0,177.76,230.51Z"/><path class="cls-18" d="M195.39,228.58H184.51v-1.3h10.88Zm-1.14,4.5h-8.49v-3.53h1.67v2.2h6.82Zm-.08-7.08h-8.31v-4.13h1.66v2.82h6.65Z"/><path class="cls-18" d="M201,226.63a5.12,5.12,0,0,0,1,1.71,4.54,4.54,0,0,0,1.63,1.16l-.9,1.3a4.68,4.68,0,0,1-1.76-1.26,6.26,6.26,0,0,1-1.15-2,6.87,6.87,0,0,1-1.15,2.14,5,5,0,0,1-1.77,1.39l-.95-1.32a4.51,4.51,0,0,0,1.63-1.24,5.62,5.62,0,0,0,1-1.82,6.24,6.24,0,0,0,.34-2V224h-2.52V222.6h6.72V224h-2.49v.73A5.66,5.66,0,0,0,201,226.63Zm5,6.71h-1.69V221.45H206Z"/><path class="cls-18" d="M80.4,242.08h2.43v-1.73H84.5v6H78.74v-6H80.4Zm7.85,9.1H80.11v-3.81h1.66v2.48h6.48Zm-5.42-6.11v-1.71H80.4v1.71Zm5-2.21h1.61v1.37H87.82v4H86.15v-8.75h1.67Z"/><path class="cls-18" d="M100.83,249.94H90v-1.37h10.88Zm-1.19-3.6H91.23V240.5h8.32v1.34H92.87V245h6.77Z"/><path class="cls-18" d="M106.47,244.35a5.47,5.47,0,0,0,1,1.85,4.24,4.24,0,0,0,1.65,1.22l-1,1.33a4.9,4.9,0,0,1-1.71-1.29,6.35,6.35,0,0,1-1.13-2,6.93,6.93,0,0,1-1.16,2.15,5,5,0,0,1-1.8,1.4l-1-1.38a4.45,4.45,0,0,0,1.7-1.27,5.76,5.76,0,0,0,1-1.92,7.44,7.44,0,0,0,.36-2.27v-1.78h1.68v1.78A7.06,7.06,0,0,0,106.47,244.35Zm5,7.07h-1.68V239.5h1.68Z"/><path class="cls-18" d="M118.91,246v-.67a3.13,3.13,0,0,1-1.54-.59,1.4,1.4,0,0,1-.55-1.13,1.36,1.36,0,0,1,.35-1,2.31,2.31,0,0,1,1-.62,5.68,5.68,0,0,1,3.06,0,2.33,2.33,0,0,1,1,.62,1.41,1.41,0,0,1-.19,2.08,3,3,0,0,1-1.52.58V246c1,0,2-.13,2.87-.24l.12,1.15a29.12,29.12,0,0,1-3.45.38c-1.19.06-2.49.09-3.92.09l-.17-1.3Zm4.23-4.45h-6.8v-1.21h2.57v-1h1.66v1h2.57Zm2.53,9.8H124v-2h-6.45v-1.28h8.13Zm-6.93-8.25a.52.52,0,0,0-.32.51.52.52,0,0,0,.33.5,2.17,2.17,0,0,0,1,.18,2.12,2.12,0,0,0,1-.18.56.56,0,0,0,.35-.5c0-.45-.45-.67-1.32-.67A2.37,2.37,0,0,0,118.74,243.14Zm6.93-.23h1.51v1.38h-1.51v3.3H124v-8.07h1.68Z"/><path class="cls-18" d="M132.8,240.66a2.89,2.89,0,0,1,1.17,1.07,2.8,2.8,0,0,1,.44,1.54,3,3,0,0,1-.43,1.56,3.1,3.1,0,0,1-1.17,1.07,3.71,3.71,0,0,1-3.31,0,3,3,0,0,1-1.17-1.07,2.86,2.86,0,0,1-.43-1.56,2.79,2.79,0,0,1,.43-1.54,3,3,0,0,1,1.17-1.07,3.52,3.52,0,0,1,1.65-.38A3.46,3.46,0,0,1,132.8,240.66Zm-2.48,1.25a1.35,1.35,0,0,0-.58.53,1.6,1.6,0,0,0-.21.83,1.64,1.64,0,0,0,.21.84,1.48,1.48,0,0,0,.57.54,1.92,1.92,0,0,0,.84.18,1.8,1.8,0,0,0,.82-.18,1.44,1.44,0,0,0,.58-.54,1.64,1.64,0,0,0,.21-.84,1.6,1.6,0,0,0-.21-.83,1.41,1.41,0,0,0-.58-.53,1.6,1.6,0,0,0-.82-.18A1.63,1.63,0,0,0,130.32,241.91Zm7.67,9.27H129.7v-4h1.69v2.65H138Zm-.32-3.12H136v-8.54h1.67Z"/><path class="cls-18" d="M146.34,241.74h-7v-1h2.87v-1.26h1.24v1.26h2.86Zm-.65,2.53c0,1.25-1.15,2.07-2.83,2.06s-2.85-.81-2.85-2.06,1.14-2.05,2.85-2.05S145.69,243,145.69,244.27ZM142.3,248h5V246.9h1.24v4.26h-7.48V246.9h1.23Zm-1.09-3.77c0,.7.65,1.14,1.65,1.14s1.66-.44,1.67-1.14-.68-1.13-1.67-1.12S141.2,243.6,141.21,244.27Zm6.1,5.9V249h-5v1.17Zm1.24-7.63h1.7v1h-1.7v2.84h-1.24V239.6h1.24Z"/><path class="cls-18" d="M152.87,247.25a27.83,27.83,0,0,0,5.38-.53l.17,1a28.69,28.69,0,0,1-5.8.56h-1v-7.59h1.23Zm7.77,4.05H159.4V239.6h1.24Z"/><path class="cls-18" d="M168.45,241.73h-4.23v5.65a27.28,27.28,0,0,0,5.11-.39l.15,1a29.33,29.33,0,0,1-5.56.38H163v-7.7h5.47Zm3.15,2.4h1.88v1H171.6v6.18h-1.24V239.6h1.24Z"/><path class="cls-18" d="M174.45,249.36a.93.93,0,0,1,.93-.93.93.93,0,0,1,0,1.85A.92.92,0,0,1,174.45,249.36Z"/><path class="cls-7" d="M28,170c-.6,2.27.08,8,1.43,9.64s6.15,4.13,9.11,2.61,80.76-55.36,79-54.53c-2.43,1.12-4.91-17.47-10.38-14.84S28,170,28,170Z"/><path class="cls-19" d="M36.6,171.3c-1.09-1.5-6-3.21-8.61-1.26-.6,2.27.08,8,1.43,9.64s6.15,4.13,9.11,2.61C41.31,179.13,37.68,172.8,36.6,171.3Z"/><path class="cls-3" d="M62.6,147.17s9.43,2.71,10.05,11.9,30.35,13.08,31.83,13.11,8.58-8.91,8.58-8.91L83,151.89S75.12,140.57,62.6,147.17Z"/><path class="cls-20" d="M44.29,173.07a21,21,0,0,1,1.85,5.27c.07.37.63.21.56-.16a21.78,21.78,0,0,0-1.91-5.41c-.17-.33-.67,0-.5.3Z"/><path class="cls-20" d="M46.49,172.29a19.06,19.06,0,0,1,1,5.44c0,.38.6.38.59,0a19.7,19.7,0,0,0-1-5.59c-.12-.36-.68-.21-.56.15Z"/><path class="cls-20" d="M48.52,171a25.6,25.6,0,0,1,1,5.95c0,.37.6.37.58,0a26.78,26.78,0,0,0-1-6.1.3.3,0,0,0-.57.15Z"/><path class="cls-20" d="M107.76,130.74a15.52,15.52,0,0,1,1.26,3.87c.07.37.63.22.56-.15a16.34,16.34,0,0,0-1.32-4c-.16-.33-.66,0-.5.3Z"/><path class="cls-20" d="M109.64,129a24.23,24.23,0,0,1,0,5.45c0,.32.51.39.57.07l.13-.71c.07-.37-.49-.53-.56-.16l-.13.72.57.08a24.23,24.23,0,0,0,0-5.45c0-.37-.62-.37-.58,0Z"/><path class="cls-20" d="M112.35,127.74a19.2,19.2,0,0,1-.66,6.49.29.29,0,0,0,.56.16,19.89,19.89,0,0,0,.68-6.65c0-.37-.6-.37-.58,0Z"/><path class="cls-20" d="M56.71,170.58a23.44,23.44,0,0,0-1.1-4.44c-.12-.35-.68-.2-.56.16a24.22,24.22,0,0,1,1.1,4.44.29.29,0,0,0,.35.2.3.3,0,0,0,.21-.36Z"/><path class="cls-20" d="M57.15,170.74a25.12,25.12,0,0,0,.31-5.05c0-.37-.6-.37-.58,0a25,25,0,0,1-.29,4.89c-.06.37.5.53.56.16Z"/><path class="cls-20" d="M103,138.21a5.34,5.34,0,0,0-1-2.79.3.3,0,0,0-.51.3,4.64,4.64,0,0,1,1,2.49.29.29,0,0,0,.29.29.3.3,0,0,0,.29-.29Z"/><path class="cls-14" d="M81.48,132.39C81,132.2,62.17,142.17,62.81,144S89.25,154,89,154.69s5.72,15.74,5.72,15.74,9.1,2.94,9.79,1.75-4.31-5.48-4.31-5.48L98,146.59l6.59,15.13s8.18,2.06,8.52,1.55-5.06-6-5.06-6-2.64-18.89-4.2-20.43S81.48,132.39,81.48,132.39Z"/><path class="cls-21" d="M62.81,144c-2.42-.81-2-5.44-1.67-11.94.67-15.39,14.81-22,18.5-22,7.71,0,9.6,8.79,10.07,11.49s1.25,7.2,0,8.23-3.87,0-3.87,0,3.13,3.25,2.1,4.13S75.79,148.33,62.81,144Z"/><g class="cls-22"><path class="cls-23" d="M89.17,140.9a18.48,18.48,0,0,1,5.3,2.18c1.35.82,3,2,3,3.74,0,.41.67.42.65,0-.08-1.87-1.6-3.19-3.07-4.13a19.05,19.05,0,0,0-5.73-2.42c-.41-.1-.59.53-.18.63Z"/></g><path class="cls-6" d="M72.43,131.29l9.33-.39,2.2,6.86,6.43,2.83s-4.2.11-5.9,2.06-4.69,2-6.89,1.31S72.43,131.29,72.43,131.29Z"/><path class="cls-6" d="M95.72,122.69,90,123c.33,2.09.62,4.58.21,5.93.44,2.16.83,4.13.83,4.29,0,.37-4.07,6.75-4.07,6.75l4.74,1.36s5.61-6.35,6.14-7S95.72,122.69,95.72,122.69Z"/><path class="cls-21" d="M89.66,112.16c1.75-.51,7.17,10.53,7.17,10.53s-5.75,2.59-7.86,2.22S80.74,114.75,89.66,112.16Z"/><path class="cls-6" d="M81.54,110.13a2.89,2.89,0,0,0-.32.29A4.05,4.05,0,0,0,80.4,114,10.2,10.2,0,0,0,82,117.39a18.85,18.85,0,0,1,1.86,3.3,7.78,7.78,0,0,1,.48,2.44c0,.36,0,.78.34,1s.9-.1,1.18-.47c1.46-1.91,1.26-4.57.86-6.94a29.28,29.28,0,0,1-.49-3.83A7.61,7.61,0,0,0,81.54,110.13Z"/><path class="cls-7" d="M80.69,102.28a5.17,5.17,0,0,0-.43-1.74A2.28,2.28,0,0,0,79,99.33a2.92,2.92,0,0,0-1.75.08A5.26,5.26,0,0,0,75,100.66a4.56,4.56,0,0,0-1.21,4.15,5.33,5.33,0,0,0,2.63,3.5,3.72,3.72,0,0,0,1.86.51,2.07,2.07,0,0,0,1.65-.88"/><path class="cls-7" d="M94.94,106a5.55,5.55,0,0,0-2.44-9,11.16,11.16,0,0,0-2.64-.4l-5.61-.39a7.35,7.35,0,0,0-2.92.19c-1.67.59-2.67,2.29-3.34,3.93-1.08,2.66-1.58,5.91.13,8.21a4.39,4.39,0,0,1,1,1.61,2.85,2.85,0,0,0,.16.78,1.38,1.38,0,0,0,.75.54c1.54.63,3.26-.22,4.92-.15,2.54.1,5.36.46,6.45-1.83"/><path class="cls-6" d="M81.94,108.41A4.56,4.56,0,0,0,80.75,107,1.54,1.54,0,0,0,79,107a2,2,0,0,0-.55,1.75,4.49,4.49,0,0,0,.87,2.67,2.2,2.2,0,0,0,2.55.7.81.81,0,0,1,.42-.14c.18,0,.3.18.41.33a31.43,31.43,0,0,0,2.79,3.41,8.89,8.89,0,0,0,1.94,1.68,5.33,5.33,0,0,0,8-5.07c-.06-.74-.28-1.46-.3-2.2,0-1.32.57-2.58.66-3.9a5.82,5.82,0,0,0-3-5.25,7.68,7.68,0,0,0-6.16-.46,8.47,8.47,0,0,0-4.32,3.26A7.38,7.38,0,0,0,81.23,109"/><path class="cls-7" d="M81.07,107.05l.17,1.71a3,3,0,0,0,.38,1.39,1,1,0,0,0,1.25.44,1.54,1.54,0,0,0,.61-1l1-3.54a5.06,5.06,0,0,1,1.1-2.25,4.71,4.71,0,0,1,2.52-1,1.37,1.37,0,0,1,1.24.18,2.26,2.26,0,0,1,.34.56,1.77,1.77,0,0,0,1.66.81,2.63,2.63,0,0,0,1.7-.87,2.13,2.13,0,0,1,.53-.47c.55-.25,1.26.21,1.78-.09a1.15,1.15,0,0,0,.33-1.31,5.21,5.21,0,0,0-1.87-2.47,6,6,0,0,0-2.06-1.26,6.56,6.56,0,0,0-2.38-.21,12.73,12.73,0,0,0-4.93,1,5.73,5.73,0,0,0-3.24,3.67"/></g></g></g></svg>