<svg xmlns="http://www.w3.org/2000/svg" xmlns:xlink="http://www.w3.org/1999/xlink" viewBox="0 0 255.02 214.03"><defs><style>.cls-1{fill:none;stroke:#be1f2d;stroke-miterlimit:10;stroke-width:7.8px;}.cls-2{fill:#2e465e;}.cls-3{fill:#213243;}.cls-4{fill:#f3b67f;}.cls-5{fill:#eceff1;}.cls-6{fill:#f4a5a7;}.cls-7{fill:#fbc02e;}.cls-8{fill:#d08a8b;}.cls-9{fill:#080b0d;}.cls-10{fill:#121c25;}.cls-11{fill:#16212c;}.cls-12{fill:#202121;}.cls-13{fill:url(#linear-gradient);}.cls-14{fill:#f18530;}.cls-15{fill:#f6f6f6;}</style><linearGradient id="linear-gradient" x1="116.64" y1="85.09" x2="12.42" y2="85.09" gradientUnits="userSpaceOnUse"><stop offset="0" stop-color="#adadad"/><stop offset="0.84" stop-color="#e9e8e8" stop-opacity="0"/></linearGradient></defs><g id="Layer_2" data-name="Layer 2"><g id="Layer_2-2" data-name="Layer 2"><path class="cls-1" d="M127.39,3.9h0A107.49,107.49,0,0,1,234.88,111.39v95.74a0,0,0,0,1,0,0H19.9a0,0,0,0,1,0,0V111.39A107.49,107.49,0,0,1,127.39,3.9Z"/><path class="cls-2" d="M159.39,67.22a41.16,41.16,0,0,0,2.84-11.49c-2.66-2.58-6.94-3.67-10-1.66-2.08,1.35-3.19,3.73-4.2,6l-8.28,18.48c-1.18,2.63-2.09,5.35-3.32,7.93a18.38,18.38,0,0,0-2.19,9.08,10,10,0,0,0,3.15,6.63C147.33,92.83,154.14,79.89,159.39,67.22Z"/><path class="cls-3" d="M163.07,56.66a9.28,9.28,0,0,0-.84-.93,41.16,41.16,0,0,1-2.84,11.49c-5.25,12.67-12.06,25.61-22,35a6.78,6.78,0,0,0,4.06,1.83c2.67.21,5.2-1.22,7.36-2.81A42.89,42.89,0,0,0,166.05,68.3C166.16,64.21,165.58,59.88,163.07,56.66Z"/><path class="cls-2" d="M125.35,68.08a51.68,51.68,0,0,0-3.67,21.11c.17,4.75,1.21,9.85,4.73,13a10.63,10.63,0,0,0,9.68,2.42,9.9,9.9,0,0,0,7-7c.77-3.16-.15-6.48-1.14-9.58a182.8,182.8,0,0,0-8-20.58C130.9,67.32,128.38,68.24,125.35,68.08Z"/><path class="cls-2" d="M133.09,67.46c-2.67,0-5,.76-7.74.62a51.68,51.68,0,0,0-3.67,21.11c.17,4.75,1.21,9.85,4.73,13l.09.07a9.61,9.61,0,0,0,2.4-1.32C139.4,93.35,137,78.24,133.09,67.46Z"/><path class="cls-3" d="M141.93,88.05a182.8,182.8,0,0,0-8-20.58h-.85C137,78.24,139.4,93.35,128.9,101a9.61,9.61,0,0,1-2.4,1.32,10.62,10.62,0,0,0,9.59,2.35,9.9,9.9,0,0,0,7-7C143.84,94.47,142.92,91.15,141.93,88.05Z"/><path class="cls-4" d="M128.47,52.4l.06-.17-.2.15c-.16-2.76-3.26-7.28-6-7.88a43.94,43.94,0,0,0,4.37,10.77A13.53,13.53,0,0,0,128.47,52.4Z"/><path class="cls-5" d="M120.89,47.87c-.7.22-1.41.45-2.11.69a3.9,3.9,0,0,1,.67,1.46l2-.65A2.55,2.55,0,0,0,120.89,47.87Z"/><path class="cls-6" d="M117.47,49c-1,.33-.57,1.88.4,1.54l1.58-.53a3.9,3.9,0,0,0-.67-1.46C118.34,48.71,117.9,48.85,117.47,49Z"/><path class="cls-5" d="M126.78,46.13c-2,.53-3.94,1.12-5.89,1.74a2.55,2.55,0,0,1,.53,1.5q2.85-.9,5.74-1.68A12.22,12.22,0,0,0,126.78,46.13Z"/><path class="cls-7" d="M130.88,45.1c-1.37.32-2.74.67-4.1,1a12.22,12.22,0,0,1,.38,1.56c1.37-.37,2.74-.72,4.13-1C132.29,46.41,131.88,44.86,130.88,45.1Z"/><path class="cls-4" d="M128.74,53.64a18.94,18.94,0,0,0,2.6-3.8,3.15,3.15,0,0,1-2.2,5.39"/><path class="cls-4" d="M126.67,59.27c-1.3-4.44-1.19-11.55-.3-16.09,2.21,1.67,3.15,7.07,2.15,9.64a9.18,9.18,0,0,1,4.71.16c2.18.66,2.37,4.53,1.45,6.61a3.12,3.12,0,0,1-2.13-3.32c-.19.23-.24.45-.42.68a5.92,5.92,0,0,1,1.61,4.32,5.54,5.54,0,0,1-1.85,4.08c.45,1.93,1.1,3.64,1.55,5.56a8.78,8.78,0,0,1-7,.89C126.55,67.74,127.82,63.18,126.67,59.27Z"/><path class="cls-3" d="M134.06,70.34a9.81,9.81,0,0,1-8.73,1c-.46-.17-.65.56-.19.73a10.53,10.53,0,0,0,9.29-1C134.84,70.73,134.47,70.08,134.06,70.34Z"/><path class="cls-8" d="M139.64,156l.88-9.65-11.93,1.35.65,8.8A18.13,18.13,0,0,0,139.64,156Z"/><path class="cls-6" d="M129.24,156.54l.55,7.33h9.14l.71-7.83A18.13,18.13,0,0,1,129.24,156.54Z"/><path class="cls-9" d="M161.26,107.86c-6.86-1.42-13.79-2.85-20.8-2.75a36.23,36.23,0,0,0-13.75,2.74,8.68,8.68,0,0,0-5.16,9.18c1.6,11.51,3.28,22.9,4.84,34.44a26.56,26.56,0,0,0,20-.21c-.09-6-.05-12.78-.15-18.76,5.75,2.09,12,4.27,18.1,4.27s12.36-1.66,17.17-5.43,8-9.84,7.54-15.93a8.7,8.7,0,0,0-2.12-5.47c-1.91-2-4.91-2.34-7.65-2.48C173.68,107.18,166.8,109,161.26,107.86Z"/><path class="cls-10" d="M146.44,131.7a44.82,44.82,0,0,1-9-8.52c-.75-.93-1.45-1.9-2.12-2.88-.27-.41-.93,0-.66.37a45.51,45.51,0,0,0,8.58,9.48c.92.78,1.88,1.51,2.87,2.21C146.46,132.64,146.84,132,146.44,131.7Z"/><path class="cls-10" d="M141.29,129.36a15,15,0,0,1-4.82-3.71c-.32-.37-.85.17-.53.54a15.42,15.42,0,0,0,5,3.83C141.35,130.23,141.73,129.57,141.29,129.36Z"/><polygon class="cls-9" points="129.79 163.87 123.49 167.9 113.55 171.19 139.64 171.19 138.93 163.87 129.79 163.87"/><path class="cls-8" d="M156.43,156l.88-9.65-11.93,1.35.65,8.8A18.13,18.13,0,0,0,156.43,156Z"/><path class="cls-6" d="M146,156.54l.54,7.33h9.15l.71-7.83A18.13,18.13,0,0,1,146,156.54Z"/><path class="cls-11" d="M185.25,136.52a11.52,11.52,0,0,0,10.05-10.86v-.08c.09-1.78.14-3.55.17-5.33a36.5,36.5,0,0,0-.31-5.72c-.35-2.36-.92-4.71-1.3-7.08-5.16.16-11,1.41-15.81.41-6.86-1.42-13.8-2.85-20.81-2.75a37.78,37.78,0,0,0-11.71,2,10.6,10.6,0,0,0-7,11.5c1.53,11,3.14,21.88,4.63,32.91a26.56,26.56,0,0,0,20-.21c-.09-6,0-12.78-.15-18.76,5.75,2.09,12,4.27,18.1,4.27A32.7,32.7,0,0,0,185.25,136.52Z"/><path class="cls-3" d="M163.23,131.7a44.82,44.82,0,0,1-9-8.52c-.75-.93-1.45-1.9-2.12-2.88-.28-.41-.93,0-.66.37a45.74,45.74,0,0,0,8.57,9.48c.93.78,1.89,1.51,2.88,2.21C163.25,132.64,163.62,132,163.23,131.7Z"/><path class="cls-3" d="M158.08,129.36a14.94,14.94,0,0,1-4.82-3.71c-.32-.37-.85.17-.54.54a15.57,15.57,0,0,0,5,3.83C158.14,130.23,158.52,129.57,158.08,129.36Z"/><polygon class="cls-11" points="146.57 163.87 140.28 167.9 130.34 171.19 156.43 171.19 155.72 163.87 146.57 163.87"/><path class="cls-3" d="M148.84,59.73a16,16,0,0,1,11.32-10.12,43.36,43.36,0,0,1,12.56-.85c4.57.23,9.44,1,12.87,4.3,6.18,6,9.46,16.12,11.44,24.24A95.8,95.8,0,0,1,199.52,105c-.15,2.69-.41,5.37-.82,8-.1.68-.92,7-1.45,7.06-11.66,1.14-31.05-6-41.8-10.62,2.82-9.38,5.14-19.56.22-28-1.9-3.28-4.33-6.26-5.89-9.72A18.18,18.18,0,0,1,148.84,59.73Z"/><path class="cls-12" d="M144,34.16a3.15,3.15,0,0,1-3.89-3.94c-2.37.16-3.93-2.8-3.91-5.18a6.15,6.15,0,0,1,4-5.37,9.86,9.86,0,0,1,7,.23,26.28,26.28,0,0,1,6.12,3.61,1.78,1.78,0,0,1,.57-1.87,3.45,3.45,0,0,1,2-.5,6.63,6.63,0,0,1,6.34,8.35,4.11,4.11,0,0,1,3.6,2.18,7.29,7.29,0,0,1,.63,4.08A15.26,15.26,0,0,1,159,47.46"/><path class="cls-4" d="M149.2,52.89l.38.09a21.47,21.47,0,0,0,6.45-.07l.79.68a13.6,13.6,0,0,0,1.64-4.94C156.48,51.61,152.74,52.37,149.2,52.89Z"/><path class="cls-4" d="M160.56,45.57V43.1a2.3,2.3,0,1,0-1.1-4.24,12.35,12.35,0,0,1-2.66-3.49c-.31-.85.49-3.16.49-4.06-4.42-2.84-9-1.68-13.68-1.53-1.35,5.54-.35,11-.15,15.12a11,11,0,0,0,.91,4.62,7.2,7.2,0,0,0,4.83,3.37c3.54-.52,7.28-1.28,9.26-4.24a13.6,13.6,0,0,1-1.64,4.94c.68.58,1.39,1.15,2.08,1.73a2.54,2.54,0,0,0,3.42-.14,19.92,19.92,0,0,0,2.56-3.4,1.93,1.93,0,0,0-.31-2.37C163.23,48.1,161.93,47.07,160.56,45.57Z"/><path class="cls-4" d="M136.38,115c-.28-1-.59-2.12-.88-3.14-.91,0-1.81-.19-2.72-.27a12.58,12.58,0,0,1-1.94-.27l-.36-.11c-.34,1.65-.77,3.2-1.25,4.93,1,1.67,1.79,3.46,2.79,5.12,1.25-1,.95-3.35,0-4.68.1-1.21.82-2.37.92-3.58.57,1.22.74,2.65,1.31,3.87,1.62.15,3.13.21,4.76.36A2.78,2.78,0,0,0,136.38,115Z"/><path class="cls-4" d="M136.63,100.37a3.62,3.62,0,0,0-2.73,1.42,22.64,22.64,0,0,0-4,8.38,50.16,50.16,0,0,1-2.31,6.92c.83,1.75,1.45,3.61,2.28,5.36,1.34-.87,1.27-3.24.51-4.65.22-1.2,1-2.28,1.26-3.47.45,1.27.48,2.71.93,4,1.6.31,3.1.51,4.7.82a2.8,2.8,0,0,0-2.45-2.49c-.21-1.16-.45-2.58-.66-3.74a4,4,0,0,0,4-2.06,4.32,4.32,0,0,0-.62-4.6,24.21,24.21,0,0,0,2.72.62,30.4,30.4,0,0,0-1.43-6.56Z"/><path class="cls-4" d="M146.58,100l-7.79.27a30.4,30.4,0,0,1,1.43,6.56,18.24,18.24,0,0,0,5.9,0A20.07,20.07,0,0,0,146.58,100Z"/><path class="cls-2" d="M184,51.62c-3.28-2.49-8.21-2-11.5.51s-5.08,6.55-5.67,10.63-.12,8.23.35,12.32l2.56,22.3a135.41,135.41,0,0,0-27.06,1.75c-.38,3.09-.33,6.34-.7,9.42a96.42,96.42,0,0,0,46.53,4.2,4,4,0,0,0,3.33-3.65c.72-9.3,1.46-18.72.81-28C191.88,70.81,192.19,57.86,184,51.62Z"/><path class="cls-3" d="M175.17,103.75a34.59,34.59,0,0,0-5-6.6c-.34-.35-.87.19-.54.54a33.64,33.64,0,0,1,4.9,6.43A.37.37,0,0,0,175.17,103.75Z"/><path class="cls-3" d="M172.88,103.4l-1.49-2.84a.38.38,0,1,0-.66.37l1.49,2.84a.38.38,0,0,0,.66-.37Z"/><path class="cls-13" d="M100.27,67.07c.43,5.27,2.88,10.77,4.61,15.27,1.93,5,3.34,10.59,1.47,15.6-2.57,6.9-11.17,10.34-18.27,8.42s-12.47-8.2-14.8-15.18-2-14.59-.8-21.85c1-5.82,2.49-12,.23-17.45-1.78-4.3-5.69-7.41-9.94-9.32C50.65,37.11,35.56,40.84,26,50S12,73,12.46,86.29A49.5,49.5,0,0,0,24.27,116.9c7.16,8.36,19.63,11.88,30.24,12.82,11.83,1.05,25.69.36,36.78-3.93s20.72-12.78,24.13-24a25.47,25.47,0,0,0-.52-17.1c-2-4.68-5.28-8.7-6.92-13.52-1.81-5.35-.36-9.4,2.5-14,1-1.63,4-4.42,4.31-6.31-3.66,1.34-8.18,2.45-11,5.34C100.75,59.35,100,63.15,100.27,67.07Z"/><line class="cls-1" x1="36.73" y1="185.18" x2="196.06" y2="25.85"/><rect class="cls-14" y="142.25" width="255.02" height="71.77" rx="8.51"/><path class="cls-15" d="M23.11,169.4H12.42v-1H23.11Zm-1.32,3c0,1.36-1.52,2.13-4,2.12s-4.06-.76-4.06-2.12,1.53-2.13,4.06-2.13S21.79,171.08,21.79,172.44Zm.08-5.08H13.76V163.3h8v1H15v2h6.89Zm-6.93,5.08c0,.75,1,1.17,2.81,1.17s2.8-.42,2.8-1.17-1-1.16-2.8-1.17S14.94,171.7,14.94,172.44Z"/><path class="cls-15" d="M30.92,168.67l-.64,1a4.81,4.81,0,0,1-2.81-2.58,4.86,4.86,0,0,1-2.88,2.85l-.7-1a4.14,4.14,0,0,0,2.93-4V163.6h1.23V165A4,4,0,0,0,30.92,168.67Zm2.77,5.67H25.78v-3.67H27v2.66h6.65Zm-.51-7.94h1.7v1h-1.7v4.05H31.94v-8.63h1.24Z"/><path class="cls-15" d="M46.21,171l-.75,1a6,6,0,0,1-3-3.55,6.28,6.28,0,0,1-3,3.81l-.76-1a5.91,5.91,0,0,0,3.14-5.29v-2h1.25v2A5.67,5.67,0,0,0,46.21,171Zm2.3,3.66H47.26V162.88h1.25Z"/><path class="cls-15" d="M60.63,168.32l-.68,1a4.61,4.61,0,0,1-2.74-2.53,4.82,4.82,0,0,1-2.94,2.88l-.67-1a4.17,4.17,0,0,0,3-4v-1.14H57.8v1.09A3.88,3.88,0,0,0,60.63,168.32Zm2.81,4c0,1.41-1.5,2.22-4,2.21s-4-.8-4-2.21,1.51-2.23,4-2.23S63.44,170.93,63.44,172.35Zm-6.69,0c0,.78,1,1.23,2.73,1.23s2.73-.45,2.73-1.23-1-1.27-2.73-1.27S56.75,171.54,56.75,172.35Zm6.65-2.56H62.16v-3.51H59.69v-1h2.47v-2.38H63.4Z"/><path class="cls-15" d="M67,167.83a26,26,0,0,0,5-.49l.16,1a27.75,27.75,0,0,1-5.49.52h-1v-5.29H67Zm7.52,4.43c0,1.45-1.52,2.31-3.89,2.33s-3.93-.88-3.93-2.33S68.22,170,70.61,170,74.5,170.85,74.5,172.26Zm-6.6,0c0,.82,1,1.32,2.71,1.33s2.68-.51,2.68-1.33S72.24,171,70.61,171,67.9,171.44,67.9,172.26Zm8.17-6.67H74.4v1.46h1.67v1H74.4v1.71H73.16v-6.92H74.4v1.69h1.67Z"/><path class="cls-15" d="M77.82,176.18H76.71l.7-3.61h1.46Z"/><path class="cls-15" d="M89.27,168.24h-4.1v2.53a28.31,28.31,0,0,0,5.21-.39l.12,1a30.3,30.3,0,0,1-5.6.44H84v-4.59h4.1V165H83.92v-1h5.35Zm3.31-.79h1.88v1.05H92.58v6.11H91.35V162.88h1.23Z"/><path class="cls-15" d="M101.48,167.86c0,2.52-1.28,4.11-3,4.11s-3-1.59-3-4.11,1.27-4.1,3-4.1S101.48,165.35,101.48,167.86Zm-4.85,0c0,1.85.75,3,1.83,3s1.81-1.15,1.81-3-.74-3-1.81-3S96.63,166,96.63,167.86Zm8.09,6.75h-1.25V162.88h1.25Z"/><path class="cls-15" d="M112.59,164.93h-4.21v2.28h3.72v1h-3.72v2.61a26.76,26.76,0,0,0,4.87-.33l.13,1a32.9,32.9,0,0,1-5.34.35h-.92v-7.91h5.47Zm3.75,9.68h-1.22v-6.39h-2.33v-1h2.33v-4.33h1.22Z"/><path class="cls-15" d="M132.1,169.4H121.41v-1H132.1Zm-1.32,3c0,1.36-1.52,2.13-4,2.12s-4.06-.76-4.06-2.12,1.53-2.13,4.06-2.13S130.78,171.08,130.78,172.44Zm.08-5.08h-8.11V163.3h8v1H124v2h6.89Zm-6.92,5.08c0,.75,1,1.17,2.8,1.17s2.8-.42,2.8-1.17-1-1.16-2.8-1.17S123.94,171.7,123.94,172.44Z"/><path class="cls-15" d="M138.7,171.23v-.86a2.82,2.82,0,0,1-1.44-.8,2,2,0,0,1-.53-1.37,2,2,0,0,1,.38-1.19,2.54,2.54,0,0,1,1.09-.81,4.37,4.37,0,0,1,3.13,0,2.57,2.57,0,0,1,1.08.81,2,2,0,0,1,.39,1.19,1.89,1.89,0,0,1-.25,1,2.17,2.17,0,0,1-.7.75,3,3,0,0,1-1,.46v.78c.91-.05,1.74-.12,2.5-.22l.14,1.5c-.78.15-1.59.26-2.43.34s-1.61.11-2.33.13-1.54,0-2.48,0l-.24-1.69Zm4.58-5.65h-7.09V164h2.51v-1.16h2.1V164h2.48ZM139,167.67a.55.55,0,0,0-.27.53.58.58,0,0,0,.26.54,1.43,1.43,0,0,0,.78.18,1.34,1.34,0,0,0,.75-.18.61.61,0,0,0,.27-.54.59.59,0,0,0-.27-.53,1.43,1.43,0,0,0-.75-.19A1.48,1.48,0,0,0,139,167.67Zm6.92-.22h1.36v1.73h-1.36v5.59h-2.11V162.68h2.11Z"/><path class="cls-15" d="M153.77,167.56a7.44,7.44,0,0,1-1.7,2.92,10.49,10.49,0,0,1-3.38,2.34l-1.07-1.65a10.54,10.54,0,0,0,2.45-1.53,5.71,5.71,0,0,0,1.42-1.8,6.82,6.82,0,0,0,.63-2.28h-3.81v-1.64h5.94A12.59,12.59,0,0,1,153.77,167.56Zm4.13,7.21h-2.13V162.68h2.13Z"/><path class="cls-15" d="M170.24,168.93h-4.48v.49h3.17v3.35h-6.44v.4h6.73v1.55h-8.78v-3.4h6.43V171h-6.42v-1.56h3.19v-.49h-4.43v-1.64h11Zm-1.39-2h-8.32V163h8.32Zm-6.27-1.59h4.18v-.69h-4.18Z"/><path class="cls-15" d="M181.8,169h-11v-1.66h11Zm-3.1-5.91a3.41,3.41,0,0,1,1.52.69,1.41,1.41,0,0,1,.53,1.11,1.45,1.45,0,0,1-.53,1.12,3.31,3.31,0,0,1-1.52.69,10.42,10.42,0,0,1-2.41.24,10.61,10.61,0,0,1-2.43-.24,3.45,3.45,0,0,1-1.54-.69,1.43,1.43,0,0,1-.52-1.12,1.4,1.4,0,0,1,.52-1.11,3.45,3.45,0,0,1,1.54-.69,10.61,10.61,0,0,1,2.43-.24A10.42,10.42,0,0,1,178.7,163.08Zm1.79,9.7h-6.44v.39h6.73v1.55H172v-3.38h6.43V171H172v-1.53h8.48Zm-6-8.3c-.35.08-.53.22-.53.4a.34.34,0,0,0,.22.33,2.07,2.07,0,0,0,.71.16c.31,0,.77,0,1.36,0s1,0,1.36,0a2.07,2.07,0,0,0,.71-.16.35.35,0,0,0,.23-.33c0-.18-.18-.32-.54-.4a13,13,0,0,0-3.52,0Z"/><path class="cls-15" d="M196.29,173.42h-11v-1.66h4.41v-2.6h2.09v2.6h4.54Zm-4.07-7.67a3.66,3.66,0,0,0,1.35,1.4A6.09,6.09,0,0,0,196,168l-.87,1.74a7.12,7.12,0,0,1-2.73-1,5.3,5.3,0,0,1-1.72-1.78,5.33,5.33,0,0,1-1.72,1.79,6.82,6.82,0,0,1-2.69,1L185.4,168a5.8,5.8,0,0,0,2.41-.83,3.78,3.78,0,0,0,1.34-1.4,3.54,3.54,0,0,0,.41-1.62v-.81h2.26v.81A3.39,3.39,0,0,0,192.22,165.75Z"/><path class="cls-15" d="M202,167.68a4.89,4.89,0,0,0,.92,1.71,4.23,4.23,0,0,0,1.69,1.2l-1.11,1.63a4.64,4.64,0,0,1-1.7-1.16,5.91,5.91,0,0,1-1.11-1.77,6.14,6.14,0,0,1-1.11,2,4.69,4.69,0,0,1-1.73,1.28l-1.17-1.64a4.25,4.25,0,0,0,1.67-1.27,5,5,0,0,0,.94-1.82,7.59,7.59,0,0,0,.29-2.09v-.21h-2.38v-1.69H204v1.69h-2.31v.21A6.8,6.8,0,0,0,202,167.68Zm5,7.09H204.9V162.68H207Z"/><path class="cls-15" d="M215.4,165.73h-6.94v-1h2.89V163h1.24v1.67h2.81Zm-.51,3.58a2.92,2.92,0,1,1-2.91-2.72A2.74,2.74,0,0,1,214.89,169.31Zm-4.64,0a1.73,1.73,0,0,0,3.45,0,1.73,1.73,0,0,0-3.45,0Zm7.4-1.69h1.88v1h-1.88v5.93h-1.23V162.88h1.23Z"/><path class="cls-15" d="M220.72,172.42l-.66-1c3.11-1.52,4.49-3.63,4.71-6.31h-4.18v-1H226C226,167.53,224.69,170.44,220.72,172.42Zm9.11,2.17h-1.22v-6.05H226v-1h2.63v-4.64h1.22Z"/><path class="cls-15" d="M233.32,170.6a25.59,25.59,0,0,0,5.2-.52l.15,1a27.46,27.46,0,0,1-5.61.51h-1V164h1.22Zm9.27-2.1h-1.82v6.07h-1.24V162.88h1.24v4.6h1.82Z"/><path class="cls-15" d="M81.51,188.09H70.84v-1H81.51Zm-.6-5.3H71.38v-.95h4.17v-1.06h1.24v1.06h4.12Zm-7.53,6.84h5.54v-.95h1.24v3.82h-8v-3.82h1.23Zm6.62-4.8c0,1.07-1.37,1.62-3.84,1.62s-3.85-.55-3.84-1.62,1.36-1.65,3.84-1.65S80,183.74,80,184.83Zm-1.08,6.72v-1H73.38v1Zm-5.26-6.72c0,.51.85.78,2.5.78s2.53-.27,2.53-.78-.88-.79-2.53-.8S73.64,184.31,73.66,184.83Z"/><path class="cls-15" d="M92.15,189.57H90.91v-3H88a3,3,0,0,1-2.37,1.05,2.91,2.91,0,0,1-3.07-3,2.94,2.94,0,0,1,3.07-3A3.11,3.11,0,0,1,88,182.71h2.91V181h1.24Zm-8.39-4.94a1.87,1.87,0,1,0,1.88-1.87A1.78,1.78,0,0,0,83.76,184.63Zm8.71,7.76H84.55v-3.72h1.24v2.71h6.68Zm-3.79-7.76a3.13,3.13,0,0,1-.13.89h2.36v-1.8H88.55A3.33,3.33,0,0,1,88.68,184.63Z"/><path class="cls-15" d="M104.63,186.88H94v-1h10.67Zm-1.16-3.74c0,1.31-1.54,2-4.18,2s-4.18-.72-4.18-2,1.54-2,4.18-2S103.47,181.84,103.47,183.14Zm-.18,7.38H96.47v1h7.14v1H95.25v-2.9h6.81v-.91H95.24v-.93h8.05Zm-6.89-7.38c0,.72,1,1.1,2.89,1.1s2.9-.38,2.9-1.1-1-1.09-2.9-1.09S96.39,182.45,96.4,183.14Z"/><path class="cls-15" d="M115.66,183.78h-6.94v-1h2.89v-1.67h1.24v1.67h2.81Zm-.51,3.58a2.92,2.92,0,1,1-2.91-2.72A2.74,2.74,0,0,1,115.15,187.36Zm-4.64,0a1.73,1.73,0,0,0,3.45,0,1.73,1.73,0,0,0-3.45,0Zm7.39-1.68h1.89v1H117.9v5.93h-1.22v-11.7h1.22Z"/><path class="cls-15" d="M127.74,189.14l-.68,1a5.78,5.78,0,0,1-3-3.46,6.37,6.37,0,0,1-3,3.77l-.72-1a5.92,5.92,0,0,0,3.09-5.05v-1.24h-2.68v-1h6.59v1h-2.66v1.24A5.37,5.37,0,0,0,127.74,189.14Zm2.3,3.5H128.8v-11.7H130Z"/><path class="cls-15" d="M141.5,184.28a3.09,3.09,0,1,1-3.07-2.72A2.81,2.81,0,0,1,141.5,184.28Zm-3.93,7a8.69,8.69,0,0,0,2.22-.38l.18,1a9.45,9.45,0,0,1-3,.42h-.6V188h1.22Zm-1-7a1.88,1.88,0,1,0,1.87-1.69A1.74,1.74,0,0,0,136.56,184.28Zm8.91,4.69h-5.9v-1h2.36v-.95h1.22V188h2.32Zm-.74,2c0,1-.92,1.65-2.21,1.63s-2.22-.62-2.21-1.63.89-1.67,2.21-1.67S144.73,190,144.73,191Zm-3.32,0c0,.47.46.77,1.11.77s1.1-.3,1.1-.77-.46-.78-1.1-.78S141.41,190.5,141.41,191Zm3-7.48h1.7v1h-1.7v2.23h-1.24v-5.82h1.24Z"/><path class="cls-15" d="M157.41,187.22H146.74v-1h10.67Zm-.59-2.73-.44,1a6,6,0,0,1-4.3-2.41,6,6,0,0,1-4.29,2.41l-.47-1c2.27-.29,4.12-1.54,4.12-2.93v-.49h1.27v.49C152.71,182.91,154.58,184.21,156.82,184.49Zm-7.53,4.7h5.5V188H156v4.55h-8V188h1.23Zm5.5,2.31v-1.34h-5.5v1.34Z"/><path class="cls-15" d="M160.25,188.59a27.1,27.1,0,0,0,5.38-.54l.17,1a28.69,28.69,0,0,1-5.8.56h-1v-7.59h1.23Zm7.77,4h-1.24v-11.7H168Z"/><path class="cls-15" d="M175.83,183.06H171.6v5.66a28.07,28.07,0,0,0,5.11-.39l.16,1a28.63,28.63,0,0,1-5.57.38h-.94v-7.69h5.47Zm3.15,2.41h1.88v1H179v6.18h-1.24V180.94H179Z"/><path class="cls-15" d="M181.83,190.69a.93.93,0,0,1,.93-.93.93.93,0,0,1,0,1.86A.93.93,0,0,1,181.83,190.69Z"/></g></g></svg>