<svg xmlns="http://www.w3.org/2000/svg" viewBox="0 0 255.02 214.03"><defs><style>.cls-1{fill:none;stroke:#be1f2d;stroke-miterlimit:10;stroke-width:7.8px;}.cls-2{fill:#e62745;}.cls-3{fill:#f9b338;}.cls-4{fill:#f18530;}.cls-5{fill:#f6f6f6;}</style></defs><g id="Layer_2" data-name="Layer 2"><g id="Layer_2-2" data-name="Layer 2"><path class="cls-1" d="M127.39,3.9h0A107.49,107.49,0,0,1,234.88,111.39v95.74a0,0,0,0,1,0,0H19.9a0,0,0,0,1,0,0V111.39A107.49,107.49,0,0,1,127.39,3.9Z"/><path class="cls-2" d="M62.65,138.36c-1.51-5.2-.56-10.81-2.44-15.9-1.66-4.47-3.14-7.39-3.06-12.54a32.3,32.3,0,0,1,2.91-13.45,27.39,27.39,0,0,1,3.79-5.85c1.09-1.29,5.18-3.7,5.61-5-1.2,3.73-2.94,14,2.75,15.53,5,1.35,5.89-6.46,5.19-9.94C76,84.15,70,79.29,68.52,72.59c-2.4-11.1,3.81-21.56,1.85-31.81,7.76,2.57,10,6.66,12.65,13.57C84.58,47,87.25,40.62,93.31,35.84c3.26-2.58,9.18-7.47,13.65-6.53-.8,1.9-3.6,3.37-4.72,5.35s-1.45,4.08-1.85,6.5C99.41,47,98.62,53,99.16,58.9c.33,3.69,1.38,11.37,5.62,12.82,4,1.36,3.63-1.45,5-4.29,6.48,7.3,2,17.47,1.64,25.63-.23,5.62,2.83,4.69,5.87,1.55,2.8-2.9,5.83-7.94,10.48-7.81a31.75,31.75,0,0,0-.85,29.15c2.73,5.75,4.19,21.26,1.07,30.44H67.33A17.6,17.6,0,0,1,62.65,138.36Z"/><path class="cls-3" d="M119.39,146.39c4.13-3.9,3-18.59,1.93-21.44-1.39-3.69-3.5-6.82-4.38-10.76-.68-3-.41-6.06-.57-9.11a9,9,0,0,0-3.51,2.69c-1.24,1.5-1.58,4.42-3.49,5.22-4.06,1.69-4.71-4.64-4.83-7.27a93.71,93.71,0,0,1,.74-13.08c.51-5.47-1-8.94-3.26-13.81.1,6.23-4.28,7.8-8.17,2.33-5.21-7.33-4.13-16.38-2.63-24.53-3.35,3.61-7.08,7.08-9.17,11.71-1.93,4.28-.08,7.72-.65,12-2.3-.56-2.54-3.55-5.61-2.91a21.17,21.17,0,0,0,2.39,7.06,23.46,23.46,0,0,1,4.08,11.87c.61,7.86-6.47,20.69-14.91,13.65-2.11,6.29-1.09,12,1.9,17.55,2.59,4.81,5.72,9.81,4.34,18.82Z"/><path class="cls-2" d="M190.58,136.4c2.14-6.46.8-13.44,3.47-19.77,2.35-5.57,4.45-9.19,4.34-15.61a36,36,0,0,0-4.13-16.72A33.4,33.4,0,0,0,188.87,77c-1.55-1.6-7.35-4.6-8-6.27,1.7,4.64,4.18,17.42-3.9,19.33-7,1.66-8.36-8-7.38-12.37,2-8.74,10.55-14.78,12.61-23.12,3.42-13.8-5.4-26.81-2.63-39.55-11,3.18-14.15,8.28-18,16.87-2.22-9.13-6-17.07-14.61-23C142.42,5.68,134-.4,127.66.77c1.15,2.36,5.12,4.19,6.72,6.65s2.05,5.07,2.62,8.08c1.38,7.25,2.51,14.69,1.75,22.07-.48,4.59-2,14.15-8,15.94-5.68,1.69-5.16-1.8-7.12-5.34-9.19,9.08-2.78,21.74-2.32,31.89.32,7-4,5.83-8.33,1.93-4-3.62-8.28-9.88-14.89-9.71,7,11.41,7.62,24.42,1.21,36.25-3.87,7.15-6,26.45-1.52,37.86h86.14A21.63,21.63,0,0,0,190.58,136.4Z"/><path class="cls-3" d="M110,146.39c-5.86-4.85-4.26-23.12-2.74-26.67,2-4.59,5-8.48,6.23-13.38,1-3.77.57-7.54.8-11.34a12.75,12.75,0,0,1,5,3.36c1.77,1.86,2.24,5.49,5,6.48,5.76,2.11,6.68-5.76,6.85-9,.29-5.5-.46-10.83-1-16.27-.73-6.8,1.43-11.13,4.63-17.18-.14,7.75,6.08,9.71,11.61,2.89,7.39-9.11,5.86-20.37,3.73-30.5,4.75,4.49,10,8.8,13,14.56,2.74,5.32.11,9.6.91,14.94,3.27-.7,3.61-4.41,8-3.62-.67,2.84-1.48,6.13-3.4,8.78-3.46,4.78-5.27,8.75-5.8,14.76-.85,9.78,9.19,25.74,21.18,17,3,7.83,1.55,14.92-2.7,21.83-3.68,6-8.11,12.21-6.15,23.41Z"/><line class="cls-1" x1="36.73" y1="185.18" x2="196.06" y2="25.85"/><rect class="cls-4" y="142.25" width="255.02" height="71.77" rx="8.51"/><path class="cls-5" d="M79.46,159.51l-.64,1A4.77,4.77,0,0,1,76,157.92a4.86,4.86,0,0,1-2.89,2.84l-.69-1a4.14,4.14,0,0,0,2.93-3.95v-1.39h1.23v1.43A4,4,0,0,0,79.46,159.51Zm2.77,5.67H74.31v-3.67h1.27v2.66h6.65Zm-.51-7.94h1.7v1h-1.7v4.05H80.48v-8.63h1.24Z"/><path class="cls-5" d="M90.05,157.72H85.91v1.41a30,30,0,0,0,5.33-.35l.16,1a33.42,33.42,0,0,1-5.72.35h-1v-3.4h4.13v-1.33H84.67v-1h5.38Zm3.74,7.56H86.1v-4h7.69Zm-6.47-1h5.26v-2H87.32Zm6.47-3.61H92.55v-6.93h1.24Z"/><path class="cls-5" d="M99.16,161.82c1.25,0,2.52-.12,3.68-.27l.07.92a45.27,45.27,0,0,1-7.24.44l-.14-1c.73,0,1.55,0,2.4,0v-3.54h1.23Zm3-6.12a27.27,27.27,0,0,1-.33,4.58l-1.23-.09a29.47,29.47,0,0,0,.34-4.21H96.18v-1h6Zm2.6,2.86h1.79v1.05h-1.79v5.82h-1.25V153.72h1.25Z"/><path class="cls-5" d="M116.94,157.42a3.12,3.12,0,1,1-3.11-2.9A2.92,2.92,0,0,1,116.94,157.42Zm-5,0a1.9,1.9,0,0,0,3.8,0,1.9,1.9,0,0,0-3.8,0Zm8.6,7.76h-8v-3.8h1.25v2.79h6.75Zm-.35-2.94h-1.24v-8.5h1.24Z"/><path class="cls-5" d="M129.05,159.07l-.64,1a4.69,4.69,0,0,1-2.79-2.56,4.87,4.87,0,0,1-2.93,2.82l-.64-1a4.1,4.1,0,0,0,2.91-3.77v-.16h-2.53v-1h6.31v1h-2.51v.17A3.91,3.91,0,0,0,129.05,159.07Zm-3.66,2.9h5.16v-1.35h1.23v4.66h-7.61v-4.66h1.22Zm5.16,2.31v-1.35h-5.16v1.35Zm1.23-4.18h-1.23v-2.59h-2.19v-1h2.19v-2.77h1.23Z"/><path class="cls-5" d="M140.42,158.48h-2.29V160c1,0,2.07-.11,3-.22l.09.92a57,57,0,0,1-7.43.4l-.17-1c1,0,2.12,0,3.25-.05v-1.53h-2.2v-4h5.61v1h-4.37v2h4.48Zm3.25,6.7h-8.09v-3.31h1.25v2.3h6.84Zm-.37-2.68h-1.24v-8.78h1.24Z"/><path class="cls-5" d="M159.09,160.14H148.44v-1h4.27v-2.3h1.22v2.3h5.16Zm-.8,4.27-.47,1a5.63,5.63,0,0,1-4.1-2.29,5.69,5.69,0,0,1-4.1,2.29l-.45-1c2.26-.32,3.91-1.5,3.92-2.94V161h1.25v.47C154.33,162.91,156,164.09,158.29,164.41Zm-.54-9.28a14.89,14.89,0,0,1-.28,3.27l-1.23-.13a13.32,13.32,0,0,0,.29-3h-6.85v-1h8.07Z"/><path class="cls-5" d="M167.68,164.85h-1.19v-5.64h-1.31c-.11,2.29-1.09,3.71-2.54,3.7s-2.52-1.6-2.52-4.13,1-4.13,2.52-4.12,2.39,1.34,2.54,3.54h1.31V154h1.19Zm-6.41-6.07c0,1.87.52,2.95,1.37,2.95s1.4-1.08,1.4-2.95-.54-2.95-1.4-2.95S161.27,156.91,161.27,158.78Zm8.79,6.65h-1.19V153.72h1.19Z"/><path class="cls-5" d="M178.76,161.78l-.75,1a6,6,0,0,1-2.85-3.6,6.33,6.33,0,0,1-2.89,3.82l-.78-1a6,6,0,0,0,3-5.29v-2h1.25v2A5.64,5.64,0,0,0,178.76,161.78Zm2.55,3.67h-1.23v-6.83h-2.61v-1h2.61v-3.9h1.23Z"/><path class="cls-5" d="M52.24,176.21h-3.5v1.62h4.73v1H42.79v-1h4.72v-1.62h-3.3v-4h1.23v3h6.8Zm.11,7H44.12v-3.51h1.23v2.51h7Z"/><path class="cls-5" d="M56,174h3.07v-1.66h1.23v5.2H54.8v-5.2H56Zm3.07,2.57V175H56v1.61Zm4.52,2.95H57.3v1h6.19v.89H57.3v1h6.56v.92H56.09v-4.68h7.52Zm-.07-5.21h1.7v1h-1.7v2.73H62.3v-6.32h1.24Z"/><path class="cls-5" d="M79.87,179.5H75.09v3.95H73.88V179.5H69.16v-1H79.87Zm-1.32-2.43H70.61v-4.63h7.8v1H71.87v2.64h6.68Z"/><path class="cls-5" d="M86.45,175.8h-4v1.54a29.73,29.73,0,0,0,4.92-.31l.11,1a33.38,33.38,0,0,1-5.34.31h-.92v-3.5h4v-1.41h-4v-1h5.24Zm4.1,5.49c0,1.39-1.5,2.18-4,2.19s-4-.8-4-2.19,1.5-2.17,4-2.17S90.55,179.9,90.55,181.29Zm-6.68,0c0,.79,1,1.22,2.72,1.21s2.73-.42,2.73-1.21-1-1.21-2.73-1.22S83.86,180.5,83.87,181.29ZM90.49,179H89.25v-3.54H87.14v-1h2.11v-2.64h1.24Z"/><path class="cls-5" d="M100.7,174.08H97.2v2.09h3.3v1H97.2v2.46a22.31,22.31,0,0,0,3.86-.27l.11,1a22.56,22.56,0,0,1-4.38.3H96v-7.58h4.69Zm4.94,9.4h-1.19v-6H103v5.48h-1.19V172H103v4.43h1.41v-4.65h1.19Z"/><path class="cls-5" d="M117.83,179.46h-4.78v4h-1.22v-4h-4.71v-1h10.71Zm-1.22-4.64c0,1.58-1.7,2.57-4.17,2.57s-4.16-1-4.16-2.57,1.68-2.6,4.16-2.6S116.61,173.23,116.61,174.82Zm-7,0c0,1,1.15,1.58,2.88,1.58s2.9-.6,2.9-1.58-1.16-1.59-2.9-1.61S109.55,173.83,109.56,174.82Z"/><path class="cls-5" d="M119.46,181.35l-.65-1c3.11-1.49,4.63-3.6,4.87-6.33h-4.31v-1h5.56C124.93,176.45,123.47,179.43,119.46,181.35Zm9,2.13h-1.25v-11.7h1.25Z"/><path class="cls-5" d="M131.31,185.07H130.2l.69-3.6h1.47Z"/><path class="cls-5" d="M147.64,181.94H137v-1h10.69Zm-5.35-4.51a4.05,4.05,0,0,0,1.7-3.29v-1.46h1.25v1.46a3.75,3.75,0,0,0,2.33,3.54l-.68.93a4.27,4.27,0,0,1-2.29-2.5,4.29,4.29,0,0,1-2.32,2.64,4.33,4.33,0,0,1-2.34-2.68,4.46,4.46,0,0,1-2.27,2.54l-.67-.93a4,4,0,0,0,2.34-3.54v-1.46h1.24v1.46A4.08,4.08,0,0,0,142.29,177.43Z"/><path class="cls-5" d="M153,177.2h-3v2.4a22,22,0,0,0,3.93-.31l.1,1a26.47,26.47,0,0,1-4.42.34h-.81v-4.44h3V174h-3v-1H153Zm3.11,5.68H155v-6h-1.39v-1H155V172h1.17Zm2.4.6h-1.18v-11.7h1.18Z"/><path class="cls-5" d="M160.84,181.35l-.65-1c3.11-1.49,4.63-3.6,4.87-6.33h-4.31v-1h5.57C166.32,176.45,164.85,179.43,160.84,181.35Zm9,2.13h-1.25v-11.7h1.25Z"/><path class="cls-5" d="M185.61,182H174.9v-1h4.69v-2.78h1.23V181h4.79Zm-.47-4.61-.53,1a6.26,6.26,0,0,1-4.42-3.16,6.19,6.19,0,0,1-4.37,3.16l-.55-1c2.24-.38,4.27-2.12,4.27-4v-.89h1.3v.89C180.84,175.26,182.88,177,185.14,177.38Z"/><path class="cls-5" d="M186.91,178.52l-.51-1c2.81-.73,4.47-2.21,4.69-4.06H187v-1h5.46C192.42,175.51,190.38,177.62,186.91,178.52Zm8.75,5h-1.24v-3.34h-6.49v-1h7.73Zm0-8.82h1.7v1.05h-1.7v2.91h-1.24v-6.84h1.24Z"/><path class="cls-5" d="M212,178.29H201.29v-1H212Zm-1.31,3.05c0,1.36-1.52,2.13-4,2.11s-4.06-.75-4.06-2.11,1.53-2.13,4.06-2.13S210.66,180,210.66,181.34Zm.07-5.08h-8.11V172.2h8v1h-6.81v2h6.88Zm-6.92,5.08c0,.74,1,1.16,2.81,1.16s2.8-.42,2.8-1.16-1-1.16-2.8-1.18S203.81,180.59,203.81,181.34Z"/><path class="cls-5" d="M73.64,198.24v-1a3.08,3.08,0,0,1-1.1-.42,2.18,2.18,0,0,1-.73-.75,1.81,1.81,0,0,1-.24-1,1.85,1.85,0,0,1,.36-1.17,2.43,2.43,0,0,1,1-.79,4.09,4.09,0,0,1,1.53-.28,4,4,0,0,1,1.51.28,2.47,2.47,0,0,1,1,.79,1.93,1.93,0,0,1,.38,1.17,1.89,1.89,0,0,1-.27,1,2.15,2.15,0,0,1-.73.74,3.23,3.23,0,0,1-1.1.42v1c1.05-.05,2-.14,2.77-.25l.1,1.21a24.23,24.23,0,0,1-3.41.4c-1.15.06-2.44.09-3.85.09l-.23-1.36Q72.59,198.27,73.64,198.24ZM78,192.36h-7v-1.3h2.7V189.8h1.68v1.26H78Zm-4.48,2a.78.78,0,0,0-.36.71.76.76,0,0,0,.36.71,1.67,1.67,0,0,0,1,.25,1.63,1.63,0,0,0,1-.25.8.8,0,0,0,.36-.71.83.83,0,0,0-.36-.71,1.63,1.63,0,0,0-1-.26A1.67,1.67,0,0,0,73.51,194.36Zm6.85.21h1.55V196H80.36v5.67H78.67V189.74h1.69Z"/><path class="cls-5" d="M88.33,194.45a7.82,7.82,0,0,1-1.73,2.86,10.63,10.63,0,0,1-3.27,2.28l-.88-1.34a10.23,10.23,0,0,0,2.51-1.6,6.22,6.22,0,0,0,1.52-2,7.08,7.08,0,0,0,.66-2.42h-4V191h5.75A11.14,11.14,0,0,1,88.33,194.45Zm4.07,7.18H90.72V189.74H92.4Z"/><path class="cls-5" d="M101.21,196.23c1.23,0,2.39-.13,3.5-.27l.11,1.2c-.95.16-1.95.28-3,.36v3.74h-1.66v-3.65l-2.29,0h-.6l-.21-1.34C98.6,196.3,100,196.27,101.21,196.23Zm3-4h-2.35a1.68,1.68,0,0,0,.31.9,2.48,2.48,0,0,0,.89.74,5.06,5.06,0,0,0,1.44.48l-.65,1.28a5.09,5.09,0,0,1-1.7-.62,3.37,3.37,0,0,1-1.11-1,3.41,3.41,0,0,1-1.12,1.15,5,5,0,0,1-1.74.68l-.68-1.3A4.63,4.63,0,0,0,99,194a2.5,2.5,0,0,0,.89-.8,1.84,1.84,0,0,0,.32-1H97.8v-1.29h2.38v-1.17h1.67v1.17h2.35Zm2.88,9.41h-1.65V189.75h1.65Z"/><path class="cls-5" d="M118.21,191.17c0,.61,0,1.15,0,1.62a12.3,12.3,0,0,1-.23,1.6h1.57v1.33H108.62v-1.33h7.65a12.37,12.37,0,0,0,.22-1.44c0-.44.05-.91.06-1.4H110v-1.33h8.26Zm-6.65,6.6h5V196.5h1.64v5h-8.23v-5h1.64Zm5,2.38V199h-5v1.11Z"/><path class="cls-5" d="M130.93,195.77H120.26v-1h10.67ZM129.77,192c0,1.3-1.54,2-4.18,2s-4.18-.72-4.18-2,1.54-2,4.18-2S129.77,190.73,129.77,192Zm-.19,7.38h-6.81v1h7.14v1h-8.36v-2.9h6.81v-.92h-6.82v-.93h8ZM122.7,192c0,.72,1,1.1,2.89,1.1s2.9-.38,2.9-1.1-1-1.1-2.9-1.1S122.69,191.35,122.7,192Z"/><path class="cls-5" d="M144.44,191.31a14.92,14.92,0,0,1-.3,3.38h1.66v1H135.09v-1h7.79a13,13,0,0,0,.33-3.25h-6.78v-1h8Zm0,10.08h-8.06V197.2h8.06Zm-6.84-1h5.61v-2.2h-5.61Z"/><path class="cls-5" d="M153.64,192h-7v-1h2.87v-1.25h1.25V191h2.86Zm-.66,2.54c0,1.24-1.15,2.06-2.83,2.05s-2.85-.81-2.85-2.05,1.14-2,2.85-2S153,193.25,153,194.51Zm-3.39,3.76h5v-1.14h1.24v4.26h-7.48v-4.26h1.23Zm-1.09-3.76c0,.69.66,1.13,1.65,1.13s1.66-.44,1.67-1.13-.68-1.14-1.67-1.13S148.49,193.83,148.5,194.51Zm6.1,5.89v-1.16h-5v1.16Zm1.24-7.63h1.7v1h-1.7v2.84H154.6v-6.82h1.24Z"/><path class="cls-5" d="M160.16,197.49a27.87,27.87,0,0,0,5.38-.54l.17,1a28.73,28.73,0,0,1-5.8.57h-1V191h1.23Zm7.77,4h-1.24v-11.7h1.24Z"/><path class="cls-5" d="M175.74,192h-4.23v5.66a28.11,28.11,0,0,0,5.11-.4l.15,1.05a29.33,29.33,0,0,1-5.56.38h-.94V191h5.47Zm3.15,2.4h1.88v1h-1.88v6.18h-1.24V189.83h1.24Z"/><path class="cls-5" d="M181.74,199.59a.93.93,0,0,1,.93-.93.93.93,0,0,1,0,1.86A.93.93,0,0,1,181.74,199.59Z"/></g></g></svg>